<svg width="71" height="68" viewBox="0 0 71 68" fill="none" xmlns="http://www.w3.org/2000/svg">
<g clip-path="url(#clip0_1_24924)">
<path d="M65.3362 46.0184L65.3167 46.2999L65.5478 46.462L66.2211 46.9345C66.303 47.3885 66.3475 47.853 66.3475 48.3267C66.3475 51.9128 63.9347 54.9777 60.5477 56.0929L60.1985 56.2079L60.2041 56.5754C60.2048 56.6221 60.2054 56.6253 60.2058 56.6274C60.2061 56.6289 60.2062 56.6298 60.2062 56.6482C60.2062 59.9616 57.3934 62.6847 53.877 62.6847C53.5059 62.6847 53.1415 62.6523 52.7853 62.5933L52.4714 62.5413L52.2914 62.8036C50.6039 65.261 47.6939 66.8916 44.3766 66.8916C40.9255 66.8916 37.9145 65.1278 36.263 62.5038L35.8398 61.8315L35.4167 62.5038C33.7654 65.1276 30.7543 66.8915 27.3033 66.8915C23.986 66.8915 21.0759 65.2609 19.3885 62.8034L19.2083 62.5411L18.8944 62.5932C18.5383 62.6523 18.1741 62.6846 17.8028 62.6846C14.2864 62.6846 11.4736 59.9615 11.4736 56.648C11.4736 56.6469 11.4736 56.6455 11.4736 56.6432C11.4737 56.64 11.4739 56.6351 11.4742 56.627C11.4746 56.6161 11.4755 56.5948 11.4757 56.5728L11.4795 56.2071L11.1321 56.0928C7.74512 54.9776 5.3323 51.9128 5.3323 48.3266C5.3323 47.8344 5.38036 47.3519 5.4685 46.8813L6.27922 46.0348L6.44981 45.8567L6.41231 45.6129L6.27377 44.7124L6.43391 44.5603L6.11512 44.1988C4.72728 42.6251 3.89307 40.598 3.89307 38.3856C3.89307 35.6941 5.12752 33.2748 7.09381 31.6159L7.36772 31.3848L7.23686 31.0511C6.88538 30.155 6.69211 29.1855 6.69211 28.1721C6.69211 25.6201 7.91144 23.335 9.83546 21.8243L9.95537 21.7302L10.0024 21.5851L10.4453 20.2175L10.5489 19.8978L10.2919 19.6811L9.60432 19.1015C9.59614 18.9484 9.59191 18.7945 9.59191 18.6397C9.59191 13.6715 13.8063 9.60697 19.0513 9.60697H19.3366L19.4818 9.36136L20.1778 8.18363L20.3282 7.92916L20.1778 7.67474L19.8206 7.07073C20.7667 3.53137 24.1281 0.891602 28.1571 0.891602C31.2197 0.891602 33.8996 2.41914 35.4238 4.70881L35.84 5.33408L36.2562 4.70881C37.7803 2.41914 40.4603 0.891602 43.5229 0.891602C47.5399 0.891602 50.8935 3.51577 51.8509 7.03929L51.0671 8.08339L50.7396 8.51962L51.2026 8.80799L52.3643 9.53151L52.4857 9.6071H52.6286C57.8738 9.6071 62.088 13.6716 62.088 18.6397C62.088 18.7248 62.0868 18.8097 62.0843 18.8943L61.1919 18.989L60.4951 19.0629L60.7916 19.6978L61.7001 21.6427L61.7506 21.7507L61.8443 21.8243C63.7683 23.3351 64.9877 25.6201 64.9877 28.1721C64.9877 29.1855 64.7944 30.155 64.443 31.0511L64.3121 31.3848L64.586 31.6159C66.5523 33.2748 67.7868 35.6941 67.7868 38.3856C67.7868 40.5981 66.9525 42.6251 65.5647 44.1988L65.2451 44.5613L65.4249 44.7311L65.3362 46.0184Z" stroke="#009951"/>
<path d="M65.835 46.0528L65.94 44.5301C65.9399 44.5299 65.9399 44.5297 65.9397 44.5296C67.4032 42.8701 68.2868 40.7272 68.2868 38.3856C68.2868 35.5361 66.9789 32.9806 64.9085 31.2337C65.2821 30.2811 65.4878 29.2498 65.4878 28.1721C65.4878 25.4554 64.1887 23.0295 62.1532 21.431L61.2447 19.4862L62.5607 19.3466C62.5787 19.1131 62.5881 18.8775 62.5881 18.6397C62.5881 13.3751 58.1291 9.1071 52.6287 9.1071L51.467 8.38358L52.3947 7.14774C51.4656 3.27836 47.8476 0.391602 43.5229 0.391602C42.6844 0.391602 41.873 0.501 41.1021 0.704225C44.3717 1.56384 46.9064 4.12306 47.6012 7.32793C47.8181 8.32783 48.6629 9.08812 49.71 9.28376C54.2923 10.1397 57.7506 14.0031 57.7506 18.6395C57.7506 19.1609 57.7065 19.6723 57.6222 20.1709C57.4904 20.9495 57.7402 21.7376 58.2936 22.3221C59.758 23.8686 60.6504 25.9204 60.6504 28.1721C60.6504 28.8008 60.5804 29.4136 60.4479 30.0043C60.2737 30.7807 60.5149 31.5855 61.0548 32.1883C62.5471 33.8546 63.4494 36.0187 63.4494 38.3856C63.4494 40.2752 62.874 42.0356 61.8828 43.5168C61.4522 44.16 61.3398 44.9509 61.5821 45.6788C61.8602 46.5138 62.0103 47.4034 62.0103 48.3266C62.0103 51.7874 59.902 54.7752 56.8481 56.1818C56.2609 56.4523 55.7876 56.9081 55.5334 57.4825C54.8651 58.993 53.0448 61.9387 48.7971 62.912C48.2181 63.0447 47.6959 63.356 47.3244 63.8013C45.9826 65.4099 44.1088 66.5932 41.9578 67.1074C42.7323 67.2924 43.5422 67.3917 44.3765 67.3917C47.8596 67.3917 50.9234 65.679 52.7035 63.0867C53.0849 63.1499 53.4766 63.1849 53.8769 63.1849C57.6486 63.1849 60.7062 60.2583 60.7062 56.6483C60.7062 56.6214 60.7044 56.5948 60.704 56.568C64.2781 55.3911 66.8474 52.1471 66.8474 48.3268C66.8474 47.7499 66.7855 47.1872 66.6737 46.6415L65.835 46.0528Z" fill="#2B3990"/>
<path d="M47.0479 55.436C46.4816 55.436 46.0225 54.9965 46.0225 54.4545C46.0225 50.309 49.546 46.9365 53.8771 46.9365C54.4434 46.9365 54.9025 47.3759 54.9025 47.918C54.9025 48.46 54.4434 48.8994 53.8771 48.8994C50.6768 48.8994 48.0732 51.3914 48.0732 54.4545C48.0732 54.9965 47.6141 55.436 47.0479 55.436Z" fill="#009951"/>
<path d="M57.4294 19.9717C59.1306 19.9717 60.7917 20.4907 62.1625 21.4391C62.1593 21.4367 62.1563 21.4339 62.153 21.4313C62.366 20.7644 62.5051 20.0668 62.5606 19.3468C61.0139 18.4781 59.2397 18.0088 57.4294 18.0088C54.1909 18.0088 51.122 19.5092 49.22 22.0224C48.8878 22.4613 48.9902 23.075 49.4489 23.393C49.9074 23.7111 50.5486 23.6128 50.8808 23.1739C52.3983 21.1686 54.8464 19.9717 57.4294 19.9717Z" fill="#009951"/>
<path d="M57.9056 35.9979C56.3922 35.9979 54.9173 35.4912 53.7525 34.5711C52.4862 33.5709 51.675 32.1732 51.4451 30.6445C53.724 30.3285 55.8078 29.1397 57.1771 27.3301C57.5094 26.8912 57.407 26.2775 56.9483 25.9595C56.4897 25.6414 55.8486 25.7395 55.5163 26.1786C54.2899 27.799 52.3114 28.7664 50.2242 28.7664C48.7108 28.7664 47.2359 28.2598 46.0711 27.3397C44.5606 26.1466 43.6943 24.3887 43.6943 22.5166C43.6943 21.9746 43.2352 21.5352 42.6689 21.5352C42.1027 21.5352 41.6436 21.9746 41.6436 22.5166C41.6436 24.9766 42.7815 27.2864 44.7657 28.8537C46.0795 29.8916 47.6935 30.5278 49.3813 30.688C49.5936 32.4677 50.406 34.1234 51.6998 35.4186C50.6124 35.8106 49.6372 36.4692 48.876 37.3521C47.8826 38.5043 47.3354 39.9628 47.3354 41.4588C47.3354 42.0008 47.7945 42.4402 48.3608 42.4402C48.9271 42.4402 49.3862 42.0008 49.3862 41.4588C49.3862 40.4176 49.7667 39.403 50.4577 38.6016C51.3004 37.6242 52.5183 37.0391 53.8298 36.9729C55.0745 37.6152 56.4766 37.9608 57.9053 37.9608C58.4716 37.9608 58.9307 37.5213 58.9307 36.9793C58.9307 36.4373 58.4719 35.9979 57.9056 35.9979Z" fill="#009951"/>
<path d="M52.6284 9.10718C52.6284 9.10665 52.6284 9.10613 52.6284 9.10547C52.6284 9.10534 52.6283 9.10508 52.6284 9.10508C52.6283 8.4322 52.5458 7.77817 52.3949 7.14913C52.3949 7.1486 52.3948 7.14834 52.3946 7.14795C48.4631 7.2266 44.871 9.30896 42.9796 12.6244C42.7082 13.1002 42.8912 13.6964 43.3881 13.9562C43.8852 14.2161 44.5081 14.0408 44.7795 13.5652C46.3481 10.8153 49.3544 9.10704 52.6251 9.10704C52.6262 9.10704 52.6273 9.10718 52.6284 9.10718Z" fill="#009951"/>
<path d="M65.9399 44.5303C64.2998 46.397 61.8437 47.5862 59.1021 47.5862C58.5358 47.5862 58.0767 48.0257 58.0767 48.5677C58.0767 49.1097 58.5358 49.5491 59.1021 49.5491C62.0354 49.5491 64.7015 48.4409 66.6737 46.6416C66.5216 45.9001 66.2747 45.1914 65.9399 44.5303Z" fill="#009951"/>
<path d="M24.632 55.436C25.1983 55.436 25.6574 54.9965 25.6574 54.4545C25.6574 50.309 22.1338 46.9365 17.8027 46.9365C17.2364 46.9365 16.7773 47.3759 16.7773 47.918C16.7773 48.46 17.2364 48.8994 17.8027 48.8994C21.003 48.8994 23.6066 51.3914 23.6066 54.4545C23.6066 54.9965 24.0657 55.436 24.632 55.436Z" fill="#009951"/>
<path d="M14.2508 19.9712C12.5496 19.9712 10.8885 20.4902 9.51775 21.4386C9.5209 21.4362 9.52391 21.4334 9.52719 21.4308C9.31418 20.7639 9.17514 20.0663 9.11963 19.3463C10.6663 18.4776 12.4405 18.0083 14.2508 18.0083C17.4893 18.0083 20.5582 19.5087 22.4602 22.0219C22.7925 22.4608 22.6901 23.0745 22.2314 23.3925C21.7728 23.7106 21.1316 23.6124 20.7994 23.1735C19.2819 21.1682 16.8338 19.9712 14.2508 19.9712Z" fill="#009951"/>
<path d="M13.7746 35.9979C15.288 35.9979 16.7629 35.4912 17.9277 34.5711C19.194 33.5709 20.0052 32.1732 20.2351 30.6445C17.9562 30.3285 15.8724 29.1397 14.5031 27.3301C14.1708 26.8912 14.2732 26.2775 14.7319 25.9595C15.1905 25.6414 15.8316 25.7395 16.1639 26.1786C17.3903 27.799 19.3688 28.7664 21.456 28.7664C22.9694 28.7664 24.4443 28.2598 25.6091 27.3397C27.1196 26.1466 27.9859 24.3887 27.9859 22.5166C27.9859 21.9746 28.445 21.5352 29.0113 21.5352C29.5775 21.5352 30.0366 21.9746 30.0366 22.5166C30.0366 24.9766 28.8987 27.2864 26.9145 28.8537C25.6007 29.8916 23.9867 30.5278 22.2989 30.688C22.0866 32.4677 21.2742 34.1234 19.9804 35.4186C21.0678 35.8106 22.043 36.4692 22.8042 37.3521C23.7976 38.5043 24.3448 39.9628 24.3448 41.4588C24.3448 42.0008 23.8857 42.4402 23.3194 42.4402C22.7531 42.4402 22.294 42.0008 22.294 41.4588C22.294 40.4176 21.9135 39.403 21.2225 38.6016C20.3798 37.6242 19.1619 37.0391 17.8504 36.9729C16.6057 37.6152 15.2036 37.9608 13.7749 37.9608C13.2086 37.9608 12.7495 37.5213 12.7495 36.9793C12.7495 36.4373 13.2083 35.9979 13.7746 35.9979Z" fill="#009951"/>
<path d="M19.0513 9.10669C19.0513 9.10616 19.0513 9.10564 19.0513 9.10499C19.0513 9.10485 19.0514 9.10459 19.0513 9.10459C19.0514 8.43171 19.1338 7.77768 19.2848 7.14864C19.2848 7.14812 19.2849 7.14785 19.2851 7.14746C23.2165 7.22611 26.8087 9.30847 28.7001 12.6239C28.9714 13.0997 28.7885 13.6959 28.2915 13.9557C27.7944 14.2156 27.1715 14.0403 26.9002 13.5647C25.3316 10.8148 22.3253 9.10656 19.0546 9.10656C19.0535 9.10656 19.0524 9.10669 19.0513 9.10669Z" fill="#009951"/>
<path d="M5.74012 44.5298C7.3802 46.3965 9.83635 47.5857 12.578 47.5857C13.1443 47.5857 13.6034 48.0252 13.6034 48.5672C13.6034 49.1092 13.1443 49.5486 12.578 49.5486C9.64467 49.5486 6.97852 48.4404 5.00635 46.6411C5.15838 45.8996 5.40529 45.1909 5.74012 44.5298Z" fill="#009951"/>
<path d="M45.4023 47.2079C45.4023 46.6659 44.9432 46.2264 44.3769 46.2264C41.3326 46.2264 38.618 47.5969 36.8657 49.7252V36.7856C36.8657 34.3493 38.1396 32.0978 40.2735 30.7628C40.7475 30.4663 40.8806 29.858 40.5708 29.4043C40.2608 28.9505 39.6253 28.8233 39.1515 29.1199C38.2672 29.6731 37.4998 30.3508 36.8657 31.1194V15.0988C36.8657 12.6625 38.1396 10.411 40.2735 9.07599C40.7475 8.77946 40.8806 8.17123 40.5708 7.71754C40.2608 7.26372 39.6253 7.13653 39.1515 7.43305C38.2672 7.98633 37.4998 8.66405 36.8657 9.43258V3.16455C36.4852 3.55517 36.1415 3.97928 35.8403 4.43166C35.5391 3.97915 35.1954 3.55517 34.8149 3.16455V9.43258C34.1809 8.66392 33.4135 7.98633 32.5291 7.43305C32.0551 7.13653 31.4198 7.26385 31.1098 7.71754C30.8 8.17123 30.933 8.77946 31.4071 9.07599C33.541 10.411 34.8149 12.6625 34.8149 15.0988V31.1193C34.1809 30.3506 33.4135 29.673 32.5291 29.1197C32.0551 28.8232 31.4198 28.9507 31.1098 29.4042C30.8 29.8579 30.933 30.4661 31.4071 30.7627C33.541 32.0977 34.8149 34.3491 34.8149 36.7855V49.7251C33.0626 47.5968 30.348 46.2263 27.3037 46.2263C26.7374 46.2263 26.2783 46.6657 26.2783 47.2078C26.2783 47.7498 26.7374 48.1892 27.3037 48.1892C31.4453 48.1892 34.8149 51.4144 34.8149 55.3785V64.1158C35.1955 63.6975 35.5396 63.2478 35.8403 62.7701C36.1409 63.2478 36.4851 63.6975 36.8657 64.1158V55.3786C36.8657 51.4145 40.2353 48.1893 44.3769 48.1893C44.9432 48.1893 45.4023 47.7499 45.4023 47.2079Z" fill="#009951"/>
</g>
<defs>
<clipPath id="clip0_1_24924">
<rect width="70" height="67" fill="white" transform="translate(0.839844 0.391602)"/>
</clipPath>
</defs>
</svg>
