<svg width="73" height="73" viewBox="0 0 73 73" fill="none" xmlns="http://www.w3.org/2000/svg">
<path d="M16.4844 17.708C17.727 17.708 18.7344 16.7006 18.7344 15.458C18.7344 14.2154 17.727 13.208 16.4844 13.208C15.2417 13.208 14.2344 14.2154 14.2344 15.458C14.2344 16.7006 15.2417 17.708 16.4844 17.708Z" fill="white"/>
<path d="M23.9844 17.708C25.227 17.708 26.2344 16.7006 26.2344 15.458C26.2344 14.2154 25.227 13.208 23.9844 13.208C22.7417 13.208 21.7344 14.2154 21.7344 15.458C21.7344 16.7006 22.7417 17.708 23.9844 17.708Z" fill="white"/>
<path d="M31.4844 17.708C32.727 17.708 33.7344 16.7006 33.7344 15.458C33.7344 14.2154 32.727 13.208 31.4844 13.208C30.2417 13.208 29.2344 14.2154 29.2344 15.458C29.2344 16.7006 30.2417 17.708 31.4844 17.708Z" fill="white"/>
<path fill-rule="evenodd" clip-rule="evenodd" d="M68.9844 39.458V13.958C68.9844 8.57301 64.6194 4.20801 59.2344 4.20801C47.7084 4.20801 25.7604 4.20801 14.2344 4.20801C8.84938 4.20801 4.48438 8.57301 4.48438 13.958V58.958C4.48438 64.343 8.84938 68.708 14.2344 68.708H36.7344C37.9764 68.708 38.9844 67.7 38.9844 66.458C38.9844 65.216 37.9764 64.208 36.7344 64.208H14.2344C11.3334 64.208 8.98438 61.859 8.98438 58.958V13.958C8.98438 11.057 11.3334 8.70801 14.2344 8.70801H59.2344C62.1354 8.70801 64.4844 11.057 64.4844 13.958V39.458C64.4844 40.7 65.4924 41.708 66.7344 41.708C67.9764 41.708 68.9844 40.7 68.9844 39.458Z" fill="white"/>
<path fill-rule="evenodd" clip-rule="evenodd" d="M66.7344 22.208H6.73438C5.49238 22.208 4.48438 23.216 4.48438 24.458C4.48438 25.7 5.49238 26.708 6.73438 26.708H66.7344C67.9764 26.708 68.9844 25.7 68.9844 24.458C68.9844 23.216 67.9764 22.208 66.7344 22.208Z" fill="white"/>
<path fill-rule="evenodd" clip-rule="evenodd" d="M65.1055 65.1676L58.8025 56.1676C58.0915 55.1506 56.6875 54.9016 55.6705 55.6156C54.6535 56.3266 54.4045 57.7306 55.1185 58.7476L61.4185 67.7476C62.1325 68.7646 63.5365 69.0136 64.5535 68.2996C65.5705 67.5886 65.8195 66.1846 65.1055 65.1676Z" fill="white"/>
<path fill-rule="evenodd" clip-rule="evenodd" d="M66.9355 48.7099C61.8115 45.7519 52.5325 40.3999 47.5255 37.5109C46.1455 36.7159 44.4325 36.7909 43.1275 37.7029C41.8255 38.6149 41.1685 40.2019 41.4445 41.7679C42.4465 47.4619 44.3035 58.0129 45.3295 63.8389C45.6085 65.4379 46.8115 66.7219 48.3895 67.1059C49.9675 67.4929 51.6235 66.9109 52.6135 65.6209L57.8755 58.7629L66.1195 56.1649C67.6705 55.6759 68.7835 54.3169 68.9605 52.7029C69.1375 51.0889 68.3425 49.5199 66.9355 48.7099ZM63.8905 52.1479L55.8445 54.6859C55.4035 54.8239 55.0165 55.0939 54.7375 55.4599L49.6015 62.1559L46.0255 41.8399L63.8905 52.1479Z" fill="white"/>
</svg>
