<svg width="51" height="52" viewBox="0 0 51 52" fill="none" xmlns="http://www.w3.org/2000/svg">
<path d="M8.53857 23.3934H3.87191C3.7172 23.3934 3.56882 23.3319 3.45943 23.2225C3.35003 23.1131 3.28857 22.9648 3.28857 22.8101V18.1434C3.28857 17.9887 3.35003 17.8403 3.45943 17.7309C3.56882 17.6215 3.7172 17.5601 3.87191 17.5601H8.53857C8.69328 17.5601 8.84166 17.6215 8.95105 17.7309C9.06045 17.8403 9.12191 17.9887 9.12191 18.1434V22.8101C9.12191 22.9648 9.06045 23.1131 8.95105 23.2225C8.84166 23.3319 8.69328 23.3934 8.53857 23.3934ZM4.45524 22.2267H7.95524V18.7267H4.45524V22.2267Z" fill="#30378E"/>
<path d="M16.1221 23.3934H11.4554C11.3007 23.3934 11.1523 23.3319 11.0429 23.2225C10.9335 23.1131 10.8721 22.9648 10.8721 22.8101V18.1434C10.8721 17.9887 10.9335 17.8403 11.0429 17.7309C11.1523 17.6215 11.3007 17.5601 11.4554 17.5601H16.1221C16.2768 17.5601 16.4252 17.6215 16.5346 17.7309C16.6439 17.8403 16.7054 17.9887 16.7054 18.1434V22.8101C16.7054 22.9648 16.6439 23.1131 16.5346 23.2225C16.4252 23.3319 16.2768 23.3934 16.1221 23.3934ZM12.0387 22.2267H15.5387V18.7267H12.0387V22.2267Z" fill="#30378E"/>
<path d="M23.7056 23.3934H19.0389C18.8842 23.3934 18.7358 23.3319 18.6264 23.2225C18.517 23.1131 18.4556 22.9648 18.4556 22.8101V18.1434C18.4556 17.9887 18.517 17.8403 18.6264 17.7309C18.7358 17.6215 18.8842 17.5601 19.0389 17.5601H23.7056C23.8603 17.5601 24.0086 17.6215 24.118 17.7309C24.2274 17.8403 24.2889 17.9887 24.2889 18.1434V22.8101C24.2889 22.9648 24.2274 23.1131 24.118 23.2225C24.0086 23.3319 23.8603 23.3934 23.7056 23.3934ZM19.6222 22.2267H23.1222V18.7267H19.6222V22.2267Z" fill="#30378E"/>
<path d="M31.8721 23.3934H27.2054C27.0507 23.3934 26.9023 23.3319 26.7929 23.2225C26.6835 23.1131 26.6221 22.9648 26.6221 22.8101V18.1434C26.6221 17.9887 26.6835 17.8403 26.7929 17.7309C26.9023 17.6215 27.0507 17.5601 27.2054 17.5601H31.8721C32.0268 17.5601 32.1752 17.6215 32.2846 17.7309C32.3939 17.8403 32.4554 17.9887 32.4554 18.1434V22.8101C32.4554 22.9648 32.3939 23.1131 32.2846 23.2225C32.1752 23.3319 32.0268 23.3934 31.8721 23.3934ZM27.7887 22.2267H31.2887V18.7267H27.7887V22.2267Z" fill="#30378E"/>
<path d="M39.4556 23.3934H34.7889C34.6342 23.3934 34.4858 23.3319 34.3764 23.2225C34.267 23.1131 34.2056 22.9648 34.2056 22.8101V18.1434C34.2056 17.9887 34.267 17.8403 34.3764 17.7309C34.4858 17.6215 34.6342 17.5601 34.7889 17.5601H39.4556C39.6103 17.5601 39.7586 17.6215 39.868 17.7309C39.9774 17.8403 40.0389 17.9887 40.0389 18.1434V22.8101C40.0389 22.9648 39.9774 23.1131 39.868 23.2225C39.7586 23.3319 39.6103 23.3934 39.4556 23.3934ZM35.3722 22.2267H38.8722V18.7267H35.3722V22.2267Z" fill="#30378E"/>
<path d="M47.0386 23.3934H42.3719C42.2172 23.3934 42.0688 23.3319 41.9594 23.2225C41.85 23.1131 41.7886 22.9648 41.7886 22.8101V18.1434C41.7886 17.9887 41.85 17.8403 41.9594 17.7309C42.0688 17.6215 42.2172 17.5601 42.3719 17.5601H47.0386C47.1933 17.5601 47.3417 17.6215 47.4511 17.7309C47.5605 17.8403 47.6219 17.9887 47.6219 18.1434V22.8101C47.6219 22.9648 47.5605 23.1131 47.4511 23.2225C47.3417 23.3319 47.1933 23.3934 47.0386 23.3934ZM42.9552 22.2267H46.4552V18.7267H42.9552V22.2267Z" fill="#30378E"/>
<path d="M8.53857 31.5599H3.87191C3.7172 31.5599 3.56882 31.4984 3.45943 31.389C3.35003 31.2796 3.28857 31.1313 3.28857 30.9766V26.3099C3.28857 26.1552 3.35003 26.0068 3.45943 25.8974C3.56882 25.788 3.7172 25.7266 3.87191 25.7266H8.53857C8.69328 25.7266 8.84166 25.788 8.95105 25.8974C9.06045 26.0068 9.12191 26.1552 9.12191 26.3099V30.9766C9.12191 31.1313 9.06045 31.2796 8.95105 31.389C8.84166 31.4984 8.69328 31.5599 8.53857 31.5599ZM4.45524 30.3932H7.95524V26.8932H4.45524V30.3932Z" fill="#30378E"/>
<path d="M16.1221 31.5599H11.4554C11.3007 31.5599 11.1523 31.4984 11.0429 31.389C10.9335 31.2796 10.8721 31.1313 10.8721 30.9766V26.3099C10.8721 26.1552 10.9335 26.0068 11.0429 25.8974C11.1523 25.788 11.3007 25.7266 11.4554 25.7266H16.1221C16.2768 25.7266 16.4252 25.788 16.5346 25.8974C16.6439 26.0068 16.7054 26.1552 16.7054 26.3099V30.9766C16.7054 31.1313 16.6439 31.2796 16.5346 31.389C16.4252 31.4984 16.2768 31.5599 16.1221 31.5599ZM12.0387 30.3932H15.5387V26.8932H12.0387V30.3932Z" fill="#30378E"/>
<path d="M23.7056 31.5599H19.0389C18.8842 31.5599 18.7358 31.4984 18.6264 31.389C18.517 31.2796 18.4556 31.1313 18.4556 30.9766V26.3099C18.4556 26.1552 18.517 26.0068 18.6264 25.8974C18.7358 25.788 18.8842 25.7266 19.0389 25.7266H23.7056C23.8603 25.7266 24.0086 25.788 24.118 25.8974C24.2274 26.0068 24.2889 26.1552 24.2889 26.3099V30.9766C24.2889 31.1313 24.2274 31.2796 24.118 31.389C24.0086 31.4984 23.8603 31.5599 23.7056 31.5599ZM19.6222 30.3932H23.1222V26.8932H19.6222V30.3932Z" fill="#30378E"/>
<path d="M31.8721 31.5599H27.2054C27.0507 31.5599 26.9023 31.4984 26.7929 31.389C26.6835 31.2796 26.6221 31.1313 26.6221 30.9766V26.3099C26.6221 26.1552 26.6835 26.0068 26.7929 25.8974C26.9023 25.788 27.0507 25.7266 27.2054 25.7266H31.8721C32.0268 25.7266 32.1752 25.788 32.2846 25.8974C32.3939 26.0068 32.4554 26.1552 32.4554 26.3099V30.9766C32.4554 31.1313 32.3939 31.2796 32.2846 31.389C32.1752 31.4984 32.0268 31.5599 31.8721 31.5599ZM27.7887 30.3932H31.2887V26.8932H27.7887V30.3932Z" fill="#30378E"/>
<path d="M39.4556 31.5599H34.7889C34.6342 31.5599 34.4858 31.4984 34.3764 31.389C34.267 31.2796 34.2056 31.1313 34.2056 30.9766V26.3099C34.2056 26.1552 34.267 26.0068 34.3764 25.8974C34.4858 25.788 34.6342 25.7266 34.7889 25.7266H39.4556C39.6103 25.7266 39.7586 25.788 39.868 25.8974C39.9774 26.0068 40.0389 26.1552 40.0389 26.3099V30.9766C40.0389 31.1313 39.9774 31.2796 39.868 31.389C39.7586 31.4984 39.6103 31.5599 39.4556 31.5599ZM35.3722 30.3932H38.8722V26.8932H35.3722V30.3932Z" fill="#30378E"/>
<path d="M47.0386 31.5599H42.3719C42.2172 31.5599 42.0688 31.4984 41.9594 31.389C41.85 31.2796 41.7886 31.1313 41.7886 30.9766V26.3099C41.7886 26.1552 41.85 26.0068 41.9594 25.8974C42.0688 25.788 42.2172 25.7266 42.3719 25.7266H47.0386C47.1933 25.7266 47.3417 25.788 47.4511 25.8974C47.5605 26.0068 47.6219 26.1552 47.6219 26.3099V30.9766C47.6219 31.1313 47.5605 31.2796 47.4511 31.389C47.3417 31.4984 47.1933 31.5599 47.0386 31.5599ZM42.9552 30.3932H46.4552V26.8932H42.9552V30.3932Z" fill="#30378E"/>
<path d="M8.53857 39.7269H3.87191C3.7172 39.7269 3.56882 39.6654 3.45943 39.556C3.35003 39.4466 3.28857 39.2983 3.28857 39.1436V34.4769C3.28857 34.3222 3.35003 34.1738 3.45943 34.0644C3.56882 33.955 3.7172 33.8936 3.87191 33.8936H8.53857C8.69328 33.8936 8.84166 33.955 8.95105 34.0644C9.06045 34.1738 9.12191 34.3222 9.12191 34.4769V39.1436C9.12191 39.2983 9.06045 39.4466 8.95105 39.556C8.84166 39.6654 8.69328 39.7269 8.53857 39.7269ZM4.45524 38.5602H7.95524V35.0602H4.45524V38.5602Z" fill="#30378E"/>
<path d="M16.1221 39.7269H11.4554C11.3007 39.7269 11.1523 39.6654 11.0429 39.556C10.9335 39.4466 10.8721 39.2983 10.8721 39.1436V34.4769C10.8721 34.3222 10.9335 34.1738 11.0429 34.0644C11.1523 33.955 11.3007 33.8936 11.4554 33.8936H16.1221C16.2768 33.8936 16.4252 33.955 16.5346 34.0644C16.6439 34.1738 16.7054 34.3222 16.7054 34.4769V39.1436C16.7054 39.2983 16.6439 39.4466 16.5346 39.556C16.4252 39.6654 16.2768 39.7269 16.1221 39.7269ZM12.0387 38.5602H15.5387V35.0602H12.0387V38.5602Z" fill="#30378E"/>
<path d="M39.4556 39.7269H34.7889C34.6342 39.7269 34.4858 39.6654 34.3764 39.556C34.267 39.4466 34.2056 39.2983 34.2056 39.1436V34.4769C34.2056 34.3222 34.267 34.1738 34.3764 34.0644C34.4858 33.955 34.6342 33.8936 34.7889 33.8936H39.4556C39.6103 33.8936 39.7586 33.955 39.868 34.0644C39.9774 34.1738 40.0389 34.3222 40.0389 34.4769V39.1436C40.0389 39.2983 39.9774 39.4466 39.868 39.556C39.7586 39.6654 39.6103 39.7269 39.4556 39.7269ZM35.3722 38.5602H38.8722V35.0602H35.3722V38.5602Z" fill="#30378E"/>
<path d="M47.0386 39.7269H42.3719C42.2172 39.7269 42.0688 39.6654 41.9594 39.556C41.85 39.4466 41.7886 39.2983 41.7886 39.1436V34.4769C41.7886 34.3222 41.85 34.1738 41.9594 34.0644C42.0688 33.955 42.2172 33.8936 42.3719 33.8936H47.0386C47.1933 33.8936 47.3417 33.955 47.4511 34.0644C47.5605 34.1738 47.6219 34.3222 47.6219 34.4769V39.1436C47.6219 39.2983 47.5605 39.4466 47.4511 39.556C47.3417 39.6654 47.1933 39.7269 47.0386 39.7269ZM42.9552 38.5602H46.4552V35.0602H42.9552V38.5602Z" fill="#30378E"/>
<path d="M8.53857 47.8934H3.87191C3.7172 47.8934 3.56882 47.8319 3.45943 47.7225C3.35003 47.6131 3.28857 47.4648 3.28857 47.3101V42.6434C3.28857 42.4887 3.35003 42.3403 3.45943 42.2309C3.56882 42.1215 3.7172 42.0601 3.87191 42.0601H8.53857C8.69328 42.0601 8.84166 42.1215 8.95105 42.2309C9.06045 42.3403 9.12191 42.4887 9.12191 42.6434V47.3101C9.12191 47.4648 9.06045 47.6131 8.95105 47.7225C8.84166 47.8319 8.69328 47.8934 8.53857 47.8934ZM4.45524 46.7267H7.95524V43.2267H4.45524V46.7267Z" fill="#30378E"/>
<path d="M16.1221 47.8934H11.4554C11.3007 47.8934 11.1523 47.8319 11.0429 47.7225C10.9335 47.6131 10.8721 47.4648 10.8721 47.3101V42.6434C10.8721 42.4887 10.9335 42.3403 11.0429 42.2309C11.1523 42.1215 11.3007 42.0601 11.4554 42.0601H16.1221C16.2768 42.0601 16.4252 42.1215 16.5346 42.2309C16.6439 42.3403 16.7054 42.4887 16.7054 42.6434V47.3101C16.7054 47.4648 16.6439 47.6131 16.5346 47.7225C16.4252 47.8319 16.2768 47.8934 16.1221 47.8934ZM12.0387 46.7267H15.5387V43.2267H12.0387V46.7267Z" fill="#30378E"/>
<path d="M39.4556 47.8934H34.7889C34.6342 47.8934 34.4858 47.8319 34.3764 47.7225C34.267 47.6131 34.2056 47.4648 34.2056 47.3101V42.6434C34.2056 42.4887 34.267 42.3403 34.3764 42.2309C34.4858 42.1215 34.6342 42.0601 34.7889 42.0601H39.4556C39.6103 42.0601 39.7586 42.1215 39.868 42.2309C39.9774 42.3403 40.0389 42.4887 40.0389 42.6434V47.3101C40.0389 47.4648 39.9774 47.6131 39.868 47.7225C39.7586 47.8319 39.6103 47.8934 39.4556 47.8934ZM35.3722 46.7267H38.8722V43.2267H35.3722V46.7267Z" fill="#30378E"/>
<path d="M47.0386 47.8934H42.3719C42.2172 47.8934 42.0688 47.8319 41.9594 47.7225C41.85 47.6131 41.7886 47.4648 41.7886 47.3101V42.6434C41.7886 42.4887 41.85 42.3403 41.9594 42.2309C42.0688 42.1215 42.2172 42.0601 42.3719 42.0601H47.0386C47.1933 42.0601 47.3417 42.1215 47.4511 42.2309C47.5605 42.3403 47.6219 42.4887 47.6219 42.6434V47.3101C47.6219 47.4648 47.5605 47.6131 47.4511 47.7225C47.3417 47.8319 47.1933 47.8934 47.0386 47.8934ZM42.9552 46.7267H46.4552V43.2267H42.9552V46.7267Z" fill="#30378E"/>
<path d="M49.9554 7.64339H33.6221V0.643392C33.6221 0.488682 33.5606 0.340309 33.4512 0.230913C33.3418 0.121517 33.1934 0.0600586 33.0387 0.0600586H17.8721C17.7174 0.0600586 17.569 0.121517 17.4596 0.230913C17.3502 0.340309 17.2887 0.488682 17.2887 0.643392V7.64339H0.955404C0.800694 7.64339 0.652321 7.70485 0.542925 7.81425C0.433529 7.92364 0.37207 8.07202 0.37207 8.22672V50.8101C0.37207 50.9648 0.433529 51.1131 0.542925 51.2225C0.652321 51.3319 0.800694 51.3934 0.955404 51.3934H49.9554C50.1101 51.3934 50.2585 51.3319 50.3679 51.2225C50.4773 51.1131 50.5387 50.9648 50.5387 50.8101V8.22672C50.5387 8.07202 50.4773 7.92364 50.3679 7.81425C50.2585 7.70485 50.1101 7.64339 49.9554 7.64339ZM18.4554 1.22673H32.4554V14.0601H18.4554V1.22673ZM20.2054 50.2267V35.0601H30.1221V50.2267H20.2054ZM49.3721 50.2267H31.2887V34.4767C31.2887 34.322 31.2273 34.1736 31.1179 34.0642C31.0085 33.9548 30.8601 33.8934 30.7054 33.8934H19.6221C19.4674 33.8934 19.319 33.9548 19.2096 34.0642C19.1002 34.1736 19.0387 34.322 19.0387 34.4767V50.2267H1.53874V8.81006H17.2887V14.6434C17.2887 14.7981 17.3502 14.9465 17.4596 15.0559C17.569 15.1653 17.7174 15.2267 17.8721 15.2267H33.0387C33.1934 15.2267 33.3418 15.1653 33.4512 15.0559C33.5606 14.9465 33.6221 14.7981 33.6221 14.6434V8.81006H49.3721V50.2267Z" fill="#30378E"/>
<path d="M27.2056 12.8936H23.7056C23.5509 12.8936 23.4025 12.8321 23.2931 12.7227C23.1837 12.6133 23.1222 12.4649 23.1222 12.3102V9.97689H20.7889C20.6342 9.97689 20.4858 9.91543 20.3764 9.80603C20.267 9.69664 20.2056 9.54826 20.2056 9.39355V5.89355C20.2056 5.73884 20.267 5.59047 20.3764 5.48108C20.4858 5.37168 20.6342 5.31022 20.7889 5.31022H23.1222V2.97689C23.1222 2.82218 23.1837 2.67381 23.2931 2.56441C23.4025 2.45501 23.5509 2.39355 23.7056 2.39355H27.2056C27.3603 2.39355 27.5086 2.45501 27.618 2.56441C27.7274 2.67381 27.7889 2.82218 27.7889 2.97689V5.31022H30.1222C30.2769 5.31022 30.4253 5.37168 30.5347 5.48108C30.6441 5.59047 30.7056 5.73884 30.7056 5.89355V9.39355C30.7056 9.54826 30.6441 9.69664 30.5347 9.80603C30.4253 9.91543 30.2769 9.97689 30.1222 9.97689H27.7889V12.3102C27.7889 12.4649 27.7274 12.6133 27.618 12.7227C27.5086 12.8321 27.3603 12.8936 27.2056 12.8936ZM24.2889 11.7269H26.6222V9.39355C26.6222 9.23884 26.6837 9.09047 26.7931 8.98108C26.9025 8.87168 27.0509 8.81022 27.2056 8.81022H29.5389V6.47689H27.2056C27.0509 6.47689 26.9025 6.41543 26.7931 6.30603C26.6837 6.19664 26.6222 6.04826 26.6222 5.89355V3.56022H24.2889V5.89355C24.2889 6.04826 24.2274 6.19664 24.118 6.30603C24.0086 6.41543 23.8603 6.47689 23.7056 6.47689H21.3722V8.81022H23.7056C23.8603 8.81022 24.0086 8.87168 24.118 8.98108C24.2274 9.09047 24.2889 9.23884 24.2889 9.39355V11.7269Z" fill="#30378E"/>
</svg>
