<svg width="147" height="128" viewBox="0 0 147 128" fill="none" xmlns="http://www.w3.org/2000/svg">
<path d="M112.099 38.8643C108.21 35.4235 101.436 35.326 97.4672 38.5148C96.0177 39.6283 94.9152 41.1292 94.2783 42.8496C93.6811 44.4665 93.1664 46.0923 92.7015 47.7161L89.2794 44.6296C84.9084 40.6876 82.5006 35.4452 82.5006 29.8695V2.67106C82.5006 1.52232 81.4672 0.590332 80.1934 0.590332C78.9197 0.590332 77.8863 1.52232 77.8863 2.67106V7.75908H69.697V2.67106C69.697 1.52232 68.6636 0.590332 67.3898 0.590332C66.1161 0.590332 65.0826 1.52232 65.0826 2.67106V29.8695C65.0826 35.4452 62.6763 40.6876 58.3053 44.6296L54.8489 47.7468C54.3866 46.1273 53.8718 44.4945 53.2704 42.8496C52.6365 41.1319 51.5325 39.631 50.119 38.5446C46.083 35.2989 39.3357 35.4316 35.4604 38.8534C27.9275 45.4288 14.3819 59.1649 8.27896 77.2601C1.15465 98.3383 -0.0860564 113.589 1.12761 120.839C1.78402 124.645 5.41752 127.439 9.74648 127.479C10.7679 127.498 11.7698 127.506 12.7581 127.506C35.9395 127.506 50.1115 122.473 57.2253 111.763C57.3245 111.611 57.4026 111.451 57.4581 111.283C58.0139 109.593 58.3143 107.902 58.3504 106.293L58.8701 93.3993C59.1465 86.2143 58.9452 78.8369 58.2738 71.4677L57.8815 67.2671C66.7685 59.6466 80.7514 59.6339 89.6677 67.2106L89.2749 71.4704C88.6035 78.8369 88.4022 86.2143 88.6786 93.402L89.1983 106.257C89.2344 107.891 89.5348 109.582 90.0906 111.28C90.1461 111.451 90.2242 111.611 90.3234 111.763C97.4372 122.475 111.608 127.506 134.773 127.506C135.759 127.506 136.763 127.498 137.781 127.479C142.131 127.439 145.765 124.645 146.423 120.831C147.636 113.586 146.394 98.3356 139.271 77.2628C133.167 59.1649 119.621 45.4288 112.099 38.8643ZM69.697 29.0838V22.5815H77.8863V29.0838H69.697ZM77.8863 11.9205V18.4201H69.697V11.9205H77.8863ZM141.861 120.199C141.553 121.988 139.816 123.299 137.712 123.318C115.044 123.675 100.898 119.316 94.436 109.85C94.047 108.596 93.8382 107.357 93.8112 106.141L93.29 93.253C93.0196 86.2332 93.2164 79.0184 93.8743 71.8145L93.9464 71.0261L97.3681 74.1119C97.8187 74.5183 98.409 74.7215 98.9993 74.7215C99.5896 74.7215 100.18 74.5183 100.631 74.1119C101.532 73.2992 101.532 71.9825 100.631 71.1697L93.4372 64.681C82.6133 54.9221 65.006 54.9221 54.1821 64.681L53.8577 64.9736L46.9872 71.1697C46.086 71.9825 46.086 73.2992 46.9872 74.1119C47.8885 74.9247 49.3485 74.9247 50.2497 74.1119L53.6068 71.0857L53.6744 71.8118C54.3323 79.0184 54.5291 86.2332 54.2587 93.2503L53.7375 106.174C53.7105 107.366 53.5017 108.601 53.1142 109.85C46.6508 119.319 32.4517 123.705 9.81557 123.318C7.7322 123.299 5.99582 121.988 5.68939 120.208C4.6034 113.727 5.78703 98.9099 12.6935 78.4712C18.493 61.2727 31.4574 48.1408 38.6793 41.8363C40.8813 39.8911 44.7477 39.8044 47.0864 41.6792C47.899 42.305 48.5238 43.1639 48.8904 44.1582C49.7585 46.5315 50.4765 48.8913 51.0323 51.1888L37.9313 63.0039C37.03 63.8167 37.03 65.1334 37.9313 65.9462C38.3819 66.3526 38.9722 66.5558 39.5625 66.5558C40.1528 66.5558 40.7431 66.3526 41.1938 65.9462L61.5678 47.5719C65.9155 43.6509 68.6127 38.6501 69.417 33.2452H78.1662C78.9706 38.6501 81.6681 43.6509 86.0169 47.5719L106.389 65.9462C106.84 66.3526 107.43 66.5558 108.021 66.5558C108.611 66.5558 109.201 66.3526 109.652 65.9462C110.553 65.1334 110.553 63.8167 109.652 63.0039L96.5179 51.1562C97.0797 48.8371 97.7962 46.4909 98.6553 44.1663C99.0264 43.1639 99.6512 42.305 100.498 41.6521C102.773 39.8288 106.661 39.883 108.88 41.8445C116.091 48.1408 129.056 61.2727 134.857 78.4739C141.763 98.9072 142.945 113.727 141.861 120.199Z" fill="#2B3990"/>
<path d="M40.335 81.8064L32.3844 87.6756C33.5543 83.1176 35.8044 78.7739 39.2009 75.0603C40.0121 74.1717 39.8724 72.8604 38.8885 72.1289C37.9062 71.3974 36.4507 71.522 35.641 72.4107C34.233 73.9509 33.05 75.6098 31.9721 77.3148L27.27 71.4245C26.5235 70.4952 25.0815 70.2812 24.0496 70.9531C23.0147 71.625 22.7803 72.9227 23.5239 73.8574L29.6902 81.5819C27.2022 87.1679 26.344 93.2469 27.2278 99.2394C27.1869 99.2938 27.1255 99.3282 27.0898 99.3869L22.3432 107.182C21.7289 108.189 22.1375 109.455 23.255 110.007C23.6065 110.183 23.988 110.265 24.3635 110.265C25.1776 110.265 25.9677 109.875 26.3868 109.186L28.7509 105.304C28.9242 105.789 29.0353 106.284 29.2332 106.764L30.8465 110.671C31.1919 111.508 32.0721 112.026 33.0079 112.026C33.2753 112.026 33.5472 111.985 33.813 111.896C35.0072 111.495 35.614 110.294 35.1694 109.219L33.5577 105.312C31.9983 101.532 31.3222 97.5671 31.4619 93.6448C31.5905 93.5823 31.7263 93.5376 31.8438 93.4509L33.6951 92.0842L35.5659 94.3639C36.0196 94.9139 36.7165 95.2065 37.4225 95.2065C37.9002 95.2065 38.3808 95.0738 38.7939 94.7974C39.8183 94.1147 40.0331 92.8115 39.2761 91.8876L37.2712 89.4446L43.258 85.0251C44.2434 84.299 44.3891 82.9877 43.5825 82.099C42.7744 81.2077 41.3249 81.0776 40.335 81.8064Z" fill="#009951"/>
<path d="M120.46 99.3869C120.424 99.3285 120.363 99.2943 120.323 99.2401C121.206 93.2474 120.348 87.1679 117.86 81.5817L124.026 73.8574C124.769 72.9227 124.535 71.625 123.5 70.9531C122.47 70.2812 121.026 70.4952 120.28 71.4245L115.578 77.3148C114.5 75.6098 113.317 73.9509 111.909 72.4107C111.096 71.5247 109.645 71.3974 108.661 72.1289C107.677 72.8604 107.538 74.1717 108.349 75.0603C111.745 78.7739 113.995 83.1176 115.165 87.6756L107.215 81.8064C106.228 81.0776 104.775 81.2077 103.967 82.099C103.16 82.9877 103.306 84.299 104.292 85.0251L110.278 89.4446L108.274 91.8876C107.516 92.8115 107.731 94.1147 108.756 94.7974C109.169 95.0738 109.649 95.2065 110.127 95.2065C110.833 95.2065 111.53 94.9139 111.984 94.3639L113.854 92.0842L115.706 93.4509C115.823 93.5376 115.959 93.5825 116.088 93.645C116.228 97.5671 115.551 101.532 113.992 105.312L112.38 109.219C111.937 110.297 112.544 111.495 113.738 111.896C114.004 111.985 114.276 112.026 114.543 112.026C115.479 112.026 116.359 111.508 116.706 110.671L118.318 106.764C118.516 106.285 118.627 105.789 118.8 105.305L121.164 109.186C121.583 109.875 122.373 110.265 123.188 110.265C123.563 110.265 123.945 110.183 124.298 110.007C125.414 109.455 125.822 108.189 125.208 107.182L120.46 99.3869Z" fill="#009951"/>
</svg>
