<svg width="130" height="141" viewBox="0 0 130 141" fill="none" xmlns="http://www.w3.org/2000/svg">
<path d="M82.7064 31.7163L32.7073 55.9019" stroke="#2B3990" stroke-width="4" stroke-miterlimit="10"/>
<path d="M16.1636 38.0042L77.9562 8.10791" stroke="#2B3990" stroke-width="4" stroke-miterlimit="10"/>
<path d="M60.4552 107.632V138.997H23.2686V107.632" stroke="#2B3990" stroke-width="4" stroke-miterlimit="10"/>
<path d="M22.6994 87.5811L8.61792 62.1978" stroke="#2B3990" stroke-width="4" stroke-miterlimit="10"/>
<path d="M32.7073 55.9023L44.1716 76.568" stroke="#2B3990" stroke-width="4" stroke-miterlimit="10"/>
<path d="M41.8618 117.215C53.7654 117.215 63.4152 108.116 63.4152 96.8914C63.4152 85.667 53.7654 76.5679 41.8618 76.5679C29.9581 76.5679 20.3083 85.667 20.3083 96.8914C20.3083 108.116 29.9581 117.215 41.8618 117.215Z" stroke="#2B3990" stroke-width="4" stroke-miterlimit="10"/>
<path d="M16.162 63.872C23.7163 63.872 29.8402 58.0975 29.8402 50.9743C29.8402 43.8511 23.7163 38.0767 16.162 38.0767C8.60781 38.0767 2.48389 43.8511 2.48389 50.9743C2.48389 58.0975 8.60781 63.872 16.162 63.872Z" stroke="#2B3990" stroke-width="4" stroke-miterlimit="10"/>
<path d="M101.057 9.37109L125.961 53.9549L101.815 65.924L76.3831 20.3944" stroke="#2B3990" stroke-width="4" stroke-miterlimit="10"/>
<path d="M89.0815 28.5072C96.6357 28.5072 102.76 22.7327 102.76 15.6096C102.76 8.48639 96.6357 2.71191 89.0815 2.71191C81.5272 2.71191 75.4033 8.48639 75.4033 15.6096C75.4033 22.7327 81.5272 28.5072 89.0815 28.5072Z" stroke="#2B3990" stroke-width="4" stroke-miterlimit="10"/>
<path d="M113.923 59.9219L127.598 84.3532" stroke="#2B3990" stroke-width="4" stroke-miterlimit="10"/>
<ellipse cx="41.8623" cy="96.8914" rx="16.2736" ry="15.345" fill="#009951"/>
</svg>
