<svg width="44" height="61" viewBox="0 0 44 61" fill="none" xmlns="http://www.w3.org/2000/svg">
<path d="M21.9572 33.6806C18.6098 33.6806 15.4628 32.3771 13.0958 30.0101C10.7288 27.6431 9.42529 24.4961 9.42529 21.1487C9.42529 17.8013 10.7288 14.6542 13.0958 12.2873C15.4628 9.92025 18.6098 8.6167 21.9572 8.6167C25.3046 8.6167 28.4517 9.92025 30.8186 12.2872C33.1856 14.6542 34.4892 17.8013 34.4892 21.1486C34.4892 24.4961 33.1856 27.6431 30.8186 30.0101C28.4517 32.377 25.3046 33.6806 21.9572 33.6806ZM21.9572 10.497C16.0839 10.497 11.3056 15.2753 11.3056 21.1486C11.3056 27.022 16.0839 31.8003 21.9572 31.8003C27.8306 31.8003 32.6089 27.022 32.6089 21.1486C32.6089 15.2753 27.8306 10.497 21.9572 10.497Z" fill="#30378E"/>
<path d="M16.2744 41.9143C15.936 41.9143 15.5981 41.8674 15.2611 41.7579C13.8121 41.2874 12.9816 39.8687 12.2489 38.6171C11.779 37.8144 11.2931 36.9844 10.7431 36.5842C10.1812 36.1752 9.23213 35.9656 8.31427 35.7628C6.90809 35.452 5.31427 35.0999 4.42979 33.8846C3.55424 32.6815 3.70176 31.1352 3.84439 29.6397C3.93437 28.6964 4.0274 27.721 3.80812 27.0456C3.60438 26.4182 3.00261 25.7425 2.36554 25.0272C1.39382 23.9361 0.29248 22.6994 0.29248 21.1486C0.29248 19.5977 1.39382 18.3611 2.36554 17.27C3.00265 16.5546 3.60438 15.879 3.80812 15.2515C4.0274 14.5762 3.93433 13.6008 3.84435 12.6574C3.70168 11.162 3.5542 9.61559 4.42979 8.41248C5.31423 7.19719 6.90805 6.84503 8.31427 6.53435C9.23209 6.33155 10.1812 6.12186 10.7431 5.71289C11.293 5.31267 11.7789 4.48271 12.2488 3.68007C12.9816 2.42838 13.8121 1.0097 15.261 0.539235C16.6524 0.0874563 18.0634 0.699766 19.428 1.2919C20.3105 1.67485 21.2231 2.07085 21.957 2.07085C22.6909 2.07085 23.6035 1.67485 24.486 1.2919C25.8506 0.699766 27.2615 0.0874172 28.6529 0.539235C30.1019 1.0097 30.9324 2.42842 31.6652 3.6801C32.135 4.48271 32.6209 5.31267 33.1708 5.71289C33.7328 6.12186 34.6819 6.33155 35.5998 6.53435C37.0059 6.84506 38.5998 7.19719 39.4842 8.41248C40.3598 9.61555 40.2123 11.1619 40.0696 12.6574C39.9797 13.6008 39.8866 14.5762 40.1059 15.2515C40.3096 15.8789 40.9114 16.5546 41.5484 17.27C42.5202 18.3611 43.6215 19.5977 43.6215 21.1486C43.6215 22.6994 42.5202 23.936 41.5484 25.0271C40.9113 25.7425 40.3096 26.4181 40.1059 27.0456C39.8866 27.721 39.9797 28.6964 40.0696 29.6397C40.2123 31.1351 40.3598 32.6815 39.4842 33.8846C38.5998 35.0999 37.0059 35.4521 35.5998 35.7628C34.6819 35.9656 33.7328 36.1752 33.1708 36.5842C32.6209 36.9844 32.1351 37.8144 31.6652 38.617C30.9324 39.8687 30.1019 41.2874 28.6529 41.7579C27.2616 42.2096 25.8506 41.5973 24.486 41.0052C23.6035 40.6223 22.691 40.2263 21.957 40.2263C21.223 40.2263 20.3105 40.6223 19.428 41.0052C18.3939 41.454 17.333 41.9142 16.2744 41.9143ZM16.2759 2.26452C16.1212 2.26452 15.9759 2.28411 15.8418 2.32771C15.0733 2.57724 14.4623 3.62084 13.8715 4.63008C13.3041 5.59945 12.7173 6.6018 11.8496 7.23327C10.9702 7.87323 9.82626 8.12601 8.71994 8.37041C7.58699 8.62072 6.41541 8.87958 5.95012 9.51896C5.49368 10.1461 5.60175 11.2793 5.71618 12.4789C5.82437 13.6131 5.93625 14.7859 5.59651 15.8322C5.27094 16.8349 4.50778 17.6918 3.76969 18.5205C2.98459 19.4021 2.17277 20.3136 2.17277 21.1486C2.17277 21.9835 2.98463 22.8951 3.76973 23.7766C4.50778 24.6053 5.27094 25.4623 5.59651 26.4649C5.93625 27.5113 5.82437 28.6841 5.71622 29.8183C5.6018 31.0179 5.49368 32.151 5.95012 32.7782C6.41541 33.4176 7.58699 33.6765 8.71994 33.9267C9.82626 34.1712 10.9702 34.4239 11.8496 35.0639C12.7173 35.6953 13.3041 36.6977 13.8715 37.6671C14.4624 38.6763 15.0734 39.7199 15.8418 39.9695C16.5564 40.2018 17.5877 39.7541 18.6795 39.2803C19.7381 38.8209 20.8327 38.3459 21.957 38.3459C23.0814 38.3459 24.176 38.8209 25.2345 39.2803C26.3263 39.754 27.3576 40.2016 28.0722 39.9694C28.8407 39.7199 29.4517 38.6763 30.0425 37.6671C30.61 36.6977 31.1968 35.6953 32.0645 35.0639C32.9438 34.4239 34.0878 34.1712 35.1941 33.9267C36.3271 33.6764 37.4986 33.4176 37.9639 32.7782C38.4204 32.151 38.3123 31.0179 38.1979 29.8182C38.0897 28.6841 37.9778 27.5112 38.3176 26.4649C38.6432 25.4623 39.4063 24.6053 40.1443 23.7766C40.9294 22.8951 41.7413 21.9835 41.7413 21.1486C41.7413 20.3136 40.9294 19.4021 40.1443 18.5205C39.4063 17.6918 38.6432 16.8349 38.3176 15.8322C37.9778 14.7859 38.0897 13.6131 38.1979 12.4789C38.3123 11.2793 38.4204 10.1461 37.9639 9.51896C37.4986 8.87958 36.3271 8.62072 35.1941 8.37041C34.0878 8.12597 32.9438 7.87323 32.0645 7.23327C31.1968 6.6018 30.61 5.59945 30.0425 4.63008C29.4517 3.6208 28.8407 2.5772 28.0722 2.32767C27.3575 2.09549 26.3263 2.54312 25.2345 3.01687C24.176 3.47621 23.0814 3.95122 21.957 3.95122C20.8327 3.95122 19.7381 3.47625 18.6795 3.01687C17.7926 2.63204 16.9457 2.26452 16.2759 2.26452Z" fill="#30378E"/>
<path d="M15.4351 60.5542C15.0419 60.5542 14.6888 60.309 14.5527 59.9379L11.3877 51.31L4.02255 56.807C3.69784 57.0493 3.25445 57.0564 2.92218 56.8245C2.58996 56.5926 2.44361 56.174 2.55905 55.7856L8.75618 34.942C8.90413 34.4443 9.42752 34.1608 9.92529 34.3088C10.423 34.4567 10.7065 34.9802 10.5585 35.4779L5.16901 53.605L11.2737 49.0488C11.5115 48.8712 11.8194 48.8163 12.1039 48.901C12.3885 48.9857 12.6164 49.1997 12.7186 49.4784L15.3419 56.6295L20.5672 39.0551C20.7152 38.5574 21.2387 38.2739 21.7363 38.4219C22.2341 38.5699 22.5176 39.0933 22.3696 39.591L16.3366 59.882C16.2211 60.2704 15.8698 60.5411 15.4648 60.5538C15.4549 60.5541 15.445 60.5542 15.4351 60.5542Z" fill="#30378E"/>
<path d="M28.4795 60.5541C28.4697 60.5541 28.4598 60.5539 28.4499 60.5536C28.0449 60.5409 27.6936 60.2703 27.5782 59.8819L21.5456 39.5909C21.3976 39.0932 21.6811 38.5698 22.1788 38.4218C22.6767 38.274 23.1999 38.5573 23.3479 39.055L28.5728 56.6293L31.1961 49.4783C31.2983 49.1996 31.5262 48.9856 31.8108 48.901C32.0953 48.8163 32.4031 48.8711 32.6411 49.0487L38.7456 53.6049L33.3561 35.4778C33.2082 34.9801 33.4917 34.4567 33.9894 34.3087C34.4871 34.1609 35.0105 34.4442 35.1585 34.9419L41.3556 55.7855C41.4711 56.1738 41.3247 56.5925 40.9925 56.8244C40.6602 57.0563 40.2168 57.0492 39.8921 56.8069L32.527 51.3099L29.3619 59.9378C29.2259 60.3088 28.8727 60.5541 28.4795 60.5541Z" fill="#30378E"/>
<path d="M17.8787 27.9602C17.6841 27.9602 17.4901 27.8999 17.326 27.7807C17.0243 27.5615 16.8807 27.1848 16.9599 26.8204L17.8462 22.7426L14.7323 19.9646C14.454 19.7164 14.3488 19.3272 14.464 18.9725C14.5793 18.6179 14.8932 18.3649 15.2642 18.3276L19.4162 17.9104L21.096 14.0905C21.2462 13.7492 21.5838 13.5288 21.9567 13.5288C22.3296 13.5288 22.6672 13.7492 22.8173 14.0905L24.4971 17.9104L28.6492 18.3276C29.0202 18.3649 29.3341 18.6179 29.4494 18.9725C29.5646 19.3272 29.4593 19.7164 29.1811 19.9646L26.0672 22.7426L26.9535 26.8204C27.0327 27.1848 26.8891 27.5615 26.5874 27.7807C26.2858 27.9999 25.8831 28.0201 25.561 27.8321L21.9567 25.729L18.3524 27.8321C18.2055 27.9178 18.0419 27.9602 17.8787 27.9602ZM17.5794 19.9847L19.5072 21.7047C19.7602 21.9303 19.8721 22.2746 19.8001 22.6059L19.2514 25.1306L21.4829 23.8285C21.7757 23.6577 22.1377 23.6577 22.4305 23.8285L24.6621 25.1306L24.1133 22.6059C24.0413 22.2747 24.1532 21.9303 24.4061 21.7047L26.3341 19.9847L23.7634 19.7264C23.4262 19.6926 23.1332 19.4797 22.9968 19.1694L21.9567 16.8044L20.9167 19.1694C20.7802 19.4797 20.4873 19.6926 20.1501 19.7264L17.5794 19.9847Z" fill="#30378E"/>
</svg>
