<svg width="86" height="83" viewBox="0 0 86 83" fill="none" xmlns="http://www.w3.org/2000/svg">
<g clip-path="url(#clip0_1_25055)">
<path d="M6.15234 68.7241C3.22333 68.7241 0.839844 71.0235 0.839844 73.8491C0.839844 76.6748 3.22333 78.9741 6.15234 78.9741C9.08136 78.9741 11.4648 76.6748 11.4648 73.8491C11.4648 71.0235 9.08136 68.7241 6.15234 68.7241ZM6.15234 75.5575C5.17484 75.5575 4.38146 74.7921 4.38146 73.8491C4.38146 72.9061 5.17484 72.1407 6.15234 72.1407C7.12984 72.1407 7.92323 72.9061 7.92323 73.8491C7.92323 74.7921 7.12984 75.5575 6.15234 75.5575Z" fill="#2B3990"/>
<path d="M43.3398 75.5577C49.1977 75.5577 53.9648 70.9588 53.9648 65.3077C53.9648 62.5025 52.743 59.8137 50.5932 57.8628C39.9186 31.0932 53.6461 3.1209 53.7877 2.84063C54.188 2.04113 53.8905 1.08099 53.0971 0.626631C52.3073 0.182518 51.2873 0.383995 50.7524 1.10502C50.0158 2.09927 32.7148 25.9203 32.7148 65.3077C32.7148 70.9588 37.482 75.5577 43.3398 75.5577ZM44.204 21.6768C42.2737 32.3299 41.9302 45.9454 47.4446 59.4924C47.5508 59.7486 47.7173 59.9775 47.9368 60.1586C49.5165 61.4706 50.4231 63.3497 50.4231 65.3075C50.4231 69.0761 47.2462 72.1409 43.3397 72.1409C39.4332 72.1409 36.2563 69.0761 36.2563 65.3075C36.2565 47.1959 40.1205 32.3299 44.204 21.6768Z" fill="#2B3990"/>
<path d="M80.5273 65.3074C81.5048 65.3074 82.2982 64.542 82.2982 63.599C82.2982 62.656 81.5048 61.8906 80.5273 61.8906H59.1002C58.5973 61.8906 58.1156 62.0956 57.7792 62.4577C57.4427 62.8198 57.2798 63.3051 57.3365 63.7869L57.4108 64.3301C57.4568 64.6512 57.5065 64.9725 57.5065 65.3072C57.5065 72.8444 51.1527 78.9738 43.3398 78.9738C35.527 78.9738 29.1732 72.8444 29.1732 65.3072C29.1732 64.9826 29.2229 64.6717 29.2654 64.3609L29.3363 63.8245C29.354 63.6913 29.3434 63.5204 29.3256 63.3871C29.2159 62.533 28.4615 61.8906 27.569 61.8906H2.61073C1.63323 61.8906 0.839844 62.656 0.839844 63.599C0.839844 64.542 1.63323 65.3074 2.61073 65.3074H25.6316C25.6316 74.7271 33.5756 82.3908 43.34 82.3908C53.1044 82.3908 61.0484 74.7271 61.0484 65.3074H80.5273Z" fill="#009951"/>
<path d="M80.5273 72.1406C77.5983 72.1406 75.2148 74.44 75.2148 77.2656C75.2148 80.0913 77.5983 82.3906 80.5273 82.3906C83.4564 82.3906 85.8398 80.0913 85.8398 77.2656C85.8398 74.4401 83.4564 72.1406 80.5273 72.1406ZM80.5273 78.974C79.5498 78.974 78.7565 78.2086 78.7565 77.2656C78.7565 76.3226 79.5498 75.5572 80.5273 75.5572C81.5048 75.5572 82.2982 76.3226 82.2982 77.2656C82.2982 78.2086 81.5048 78.974 80.5273 78.974Z" fill="#2B3990"/>
<path d="M20.3188 72.1406C17.3898 72.1406 15.0063 74.44 15.0063 77.2656C15.0063 80.0913 17.3898 82.3906 20.3188 82.3906C23.2479 82.3906 25.6313 80.0913 25.6313 77.2656C25.6313 74.4401 23.2479 72.1406 20.3188 72.1406ZM20.3188 78.974C19.3413 78.974 18.548 78.2086 18.548 77.2656C18.548 76.3226 19.3413 75.5572 20.3188 75.5572C21.2963 75.5572 22.0897 76.3226 22.0897 77.2656C22.0897 78.2086 21.2963 78.974 20.3188 78.974Z" fill="#2B3990"/>
<path d="M66.3608 68.7241C63.4318 68.7241 61.0483 71.0235 61.0483 73.8491C61.0483 76.6748 63.4318 78.9741 66.3608 78.9741C69.2899 78.9741 71.6733 76.6748 71.6733 73.8491C71.6733 71.0235 69.2897 68.7241 66.3608 68.7241ZM66.3608 75.5575C65.3833 75.5575 64.59 74.7921 64.59 73.8491C64.59 72.9061 65.3833 72.1407 66.3608 72.1407C67.3383 72.1407 68.1317 72.9061 68.1317 73.8491C68.1317 74.7921 67.3383 75.5575 66.3608 75.5575Z" fill="#2B3990"/>
</g>
<defs>
<clipPath id="clip0_1_25055">
<rect width="85" height="82" fill="white" transform="translate(0.839844 0.391602)"/>
</clipPath>
</defs>
</svg>
