<svg width="73" height="72" viewBox="0 0 73 72" fill="none" xmlns="http://www.w3.org/2000/svg">
<g clip-path="url(#clip0_1_25276)">
<path d="M29.7558 26.8144C31.0815 27.2203 32.4367 27.4214 33.785 27.4214C35.9963 27.4214 38.1885 26.8803 40.1971 25.8136C46.8703 22.2703 49.4161 13.9579 45.8717 7.28402C44.1549 4.05119 41.2819 1.68067 37.7819 0.60911C34.282 -0.462734 30.5741 -0.107093 27.3406 1.6098L27.3405 1.60994C20.6682 5.15495 18.1226 13.4672 21.666 20.1394C23.3828 23.3724 26.2558 25.7427 29.7558 26.8144ZM28.3303 3.47266L28.3302 3.4728C31.0659 2.02014 34.2034 1.71977 37.1644 2.62609C40.1255 3.53256 42.5562 5.53816 44.0087 8.27345C47.0076 13.9202 44.8538 20.953 39.2078 23.9509C36.4719 25.4037 33.3349 25.7043 30.3736 24.7977C27.4125 23.8911 24.9818 21.8855 23.5291 19.1502C20.5311 13.505 22.6849 6.47205 28.3303 3.47266Z" fill="#30378E"/>
<path d="M28.198 17.1361H30.3482V19.2821C30.3482 20.6197 31.4347 21.7078 32.7702 21.7078H34.7673C36.105 21.7078 37.1933 20.6197 37.1933 19.2821V17.1361H39.3395C40.6772 17.1361 41.7655 16.048 41.7655 14.7103V12.7133C41.7655 11.3757 40.6772 10.2875 39.3395 10.2875H37.1933V8.1416C37.1933 6.80398 36.105 5.71582 34.7673 5.71582H32.7702C31.4347 5.71582 30.3482 6.80398 30.3482 8.1416V10.2875H28.198C26.8604 10.2875 25.772 11.3757 25.772 12.7133V14.7103C25.772 16.048 26.8604 17.1361 28.198 17.1361ZM27.8815 12.7133C27.8815 12.5418 28.0265 12.3968 28.198 12.3968H31.403C31.9855 12.3968 32.4577 11.9247 32.4577 11.3421V8.14146C32.4577 7.9699 32.6009 7.82491 32.7702 7.82491H34.7673C34.9389 7.82491 35.0839 7.9699 35.0839 8.14146V11.3421C35.0839 11.9246 35.5561 12.3968 36.1386 12.3968H39.3395C39.511 12.3968 39.656 12.5418 39.656 12.7133V14.7103C39.656 14.8819 39.511 15.0269 39.3395 15.0269H36.1386C35.5561 15.0269 35.0839 15.499 35.0839 16.0816V19.2822C35.0839 19.4538 34.9389 19.5987 34.7673 19.5987H32.7702C32.6007 19.5987 32.4577 19.4538 32.4577 19.2822V16.0816C32.4577 15.4991 31.9855 15.0269 31.403 15.0269H28.198C28.0265 15.0269 27.8815 14.8819 27.8815 14.7103V12.7133Z" fill="#30378E"/>
<path d="M68.3537 61.7989V53.1131H71.1815C71.7641 53.1131 72.2363 52.641 72.2363 52.0584V30.9252C72.2363 28.6932 70.4183 26.8772 68.1839 26.8772C66.3164 26.8772 64.7412 28.1485 64.2758 29.8706H54.7703C54.1877 29.8706 53.7156 30.3426 53.7156 30.9252C53.7156 31.5079 54.1878 31.9799 54.7703 31.9799H64.1355V51.004H35.6188V36.2663C35.6188 33.9027 37.5419 31.9798 39.9057 31.9798H49.899C50.4816 31.9798 50.9537 31.5077 50.9537 30.9251C50.9537 30.3425 50.4815 29.8704 49.899 29.8704H39.9057C36.3788 29.8704 33.5093 32.7394 33.5093 36.2663V36.5508H20.9078C20.8674 34.9003 19.8636 33.3448 18.2691 32.685C18.24 32.6729 18.2103 32.6622 18.1802 32.6528L8.55641 29.6475V24.217C8.55641 21.9828 6.73841 20.165 4.50402 20.165C2.2716 20.1649 0.455566 21.9826 0.455566 24.2169V34.0861C0.455566 34.6685 0.927785 35.1408 1.51025 35.1408C2.09272 35.1408 2.56494 34.6687 2.56494 34.0861V24.2169C2.56494 23.1456 3.43471 22.2741 4.50388 22.2741C5.57516 22.2741 6.44675 23.1456 6.44675 24.2169V46.0676C6.44675 46.6501 6.91897 47.1223 7.50144 47.1223H33.509V51.0037H2.56508V38.9568C2.56508 38.3743 2.09286 37.9021 1.51039 37.9021C0.927926 37.9021 0.455707 38.3741 0.455707 38.9568V52.0584C0.455707 52.6408 0.927926 53.1131 1.51039 53.1131H5.4185V61.7989C3.07935 62.287 1.31675 64.3646 1.31675 66.8464C1.31675 69.6894 3.63004 72.0025 6.47333 72.0025C9.31663 72.0025 11.6299 69.6894 11.6299 66.8464C11.6299 64.3646 9.86718 62.2871 7.52816 61.7989V58.4543H66.2442V61.7989C63.905 62.287 62.1423 64.3646 62.1423 66.8464C62.1423 69.6894 64.4555 72.0025 67.2988 72.0025C70.1421 72.0025 72.4556 69.6892 72.4556 66.8462C72.4556 64.3645 70.6928 62.287 68.3537 61.7989ZM68.1838 28.9864C69.2552 28.9864 70.1267 29.8561 70.1267 30.9252V51.0038H66.245V30.9252C66.245 29.8561 67.1148 28.9864 68.1838 28.9864ZM17.5016 34.6508C18.274 34.9885 18.7638 35.7443 18.7993 36.5509H8.55641V31.8572L17.5016 34.6508ZM8.55641 45.0131V38.6602H19.7074H33.5093V45.0131H8.55641ZM9.52025 66.8462C9.52025 68.5263 8.15338 69.893 6.47319 69.893C4.793 69.893 3.42613 68.5263 3.42613 66.8462C3.42613 65.166 4.793 63.7993 6.47319 63.7993C8.15338 63.7993 9.52025 65.1662 9.52025 66.8462ZM7.52788 56.345V53.1132H66.2442V56.345H7.52788ZM67.299 69.8931C65.6188 69.8931 64.2519 68.5264 64.2519 66.8464C64.2519 65.1662 65.6188 63.7994 67.299 63.7994C68.9792 63.7994 70.346 65.1662 70.346 66.8464C70.346 68.5263 68.9792 69.8931 67.299 69.8931Z" fill="#30378E"/>
</g>
<defs>
<clipPath id="clip0_1_25276">
<rect width="72" height="72" fill="white" transform="translate(0.455566 0.00244141)"/>
</clipPath>
</defs>
</svg>
