<svg width="104" height="101" viewBox="0 0 104 101" fill="none" xmlns="http://www.w3.org/2000/svg">
<path d="M76.551 33.2639C74.0943 30.9238 69.8146 30.8575 67.3076 33.0262C66.3919 33.7835 65.6954 34.8043 65.293 35.9743C64.9157 37.074 64.5906 38.1796 64.2969 39.284L62.135 37.1849C59.3736 34.5039 57.8525 30.9386 57.8525 27.1465V8.64898C57.8525 7.86773 57.1996 7.23389 56.395 7.23389C55.5903 7.23389 54.9374 7.86773 54.9374 8.64898V12.1093H49.7639V8.64898C49.7639 7.86773 49.111 7.23389 48.3063 7.23389C47.5016 7.23389 46.8488 7.86773 46.8488 8.64898V27.1465C46.8488 30.9386 45.3286 34.5039 42.5672 37.1849L40.3836 39.3049C40.0916 38.2035 39.7664 37.093 39.3864 35.9743C38.986 34.8061 38.2885 33.7853 37.3956 33.0465C34.8458 30.8391 30.5833 30.9293 28.135 33.2565C23.3762 37.7284 14.8188 47.0703 10.9633 59.3768C6.46257 73.712 5.67876 84.0838 6.44549 89.0145C6.86017 91.6034 9.15562 93.5031 11.8904 93.5307C12.5357 93.5436 13.1686 93.5491 13.793 93.5491C28.4378 93.5491 37.3908 90.1256 41.885 82.8419C41.9476 82.7387 41.9969 82.63 42.032 82.5158C42.3831 81.366 42.5729 80.2163 42.5957 79.1218L42.924 70.353C43.0986 65.4665 42.9715 60.4492 42.5473 55.4374L42.2995 52.5806C47.9138 47.3979 56.7475 47.3893 62.3803 52.5421L62.1321 55.4392C61.708 60.4492 61.5808 65.4665 61.7554 70.3548L62.0837 79.0978C62.1065 80.2089 62.2963 81.3587 62.6474 82.514C62.6825 82.63 62.7319 82.7387 62.7945 82.8419C67.2886 90.1275 76.2407 93.5491 90.8751 93.5491C91.4985 93.5491 92.1324 93.5436 92.7757 93.5307C95.5238 93.5031 97.8193 91.6034 98.2349 89.009C99.0016 84.082 98.2169 73.7102 93.7171 59.3786C89.8606 47.0703 81.3033 37.7284 76.551 33.2639ZM49.7639 26.6122V22.19H54.9374V26.6122H49.7639ZM54.9374 14.9395V19.3598H49.7639V14.9395H54.9374ZM95.353 88.5797C95.1585 89.7958 94.0615 90.6876 92.7321 90.7005C78.4119 90.9437 69.4749 87.979 65.3926 81.5411C65.1469 80.688 65.015 79.8459 64.9979 79.0186L64.6686 70.2535C64.4978 65.4794 64.6221 60.5726 65.0378 55.6732L65.0833 55.137L67.2449 57.2357C67.5296 57.5121 67.9025 57.6503 68.2755 57.6503C68.6484 57.6503 69.0213 57.5121 69.306 57.2357C69.8754 56.683 69.8754 55.7875 69.306 55.2347L64.7616 50.8217C57.9237 44.1848 46.8004 44.1848 39.9624 50.8217L39.7575 51.0207L35.4171 55.2347C34.8477 55.7875 34.8477 56.683 35.4171 57.2357C35.9864 57.7885 36.9088 57.7885 37.4781 57.2357L39.599 55.1776L39.6417 55.6714C40.0573 60.5726 40.1816 65.4794 40.0108 70.2516L39.6816 79.0407C39.6645 79.8514 39.5326 80.6917 39.2877 81.5411C35.2045 87.9809 26.2344 90.964 11.9341 90.7005C10.6179 90.6876 9.52095 89.7958 9.32737 88.5852C8.6413 84.1778 9.38905 74.1008 13.7522 60.2004C17.416 48.5038 25.6062 39.5728 30.1686 35.2852C31.5597 33.9622 34.0022 33.9033 35.4797 35.1783C35.9931 35.6039 36.3878 36.188 36.6194 36.8643C37.1679 38.4784 37.6214 40.0832 37.9725 41.6457L29.696 49.6812C29.1267 50.234 29.1267 51.1294 29.696 51.6822C29.9807 51.9586 30.3536 52.0968 30.7266 52.0968C31.0995 52.0968 31.4724 51.9586 31.7571 51.6822L44.6283 39.1859C47.375 36.5192 49.0789 33.1182 49.587 29.4424H55.1143C55.6224 33.1182 57.3266 36.5192 60.0739 39.1859L72.9442 51.6822C73.2289 51.9586 73.6018 52.0968 73.9747 52.0968C74.3476 52.0968 74.7206 51.9586 75.0052 51.6822C75.5746 51.1294 75.5746 50.234 75.0052 49.6812L66.7079 41.6236C67.0628 40.0464 67.5154 38.4507 68.0582 36.8698C68.2926 36.188 68.6873 35.6039 69.2225 35.1599C70.6592 33.9198 73.1159 33.9567 74.5175 35.2907C79.0733 39.5728 87.2635 48.5038 90.9282 60.2023C95.2913 74.0989 96.0381 84.1778 95.353 88.5797Z" fill="#2B3990"/>
<path d="M31.2153 62.4688L26.1925 66.4603C26.9316 63.3605 28.3531 60.4064 30.4988 57.8808C31.0112 57.2764 30.923 56.3846 30.3015 55.8871C29.6809 55.3896 28.7614 55.4744 28.2499 56.0787C27.3604 57.1262 26.613 58.2545 25.932 59.414L22.9615 55.408C22.4899 54.776 21.5789 54.6305 20.927 55.0874C20.2732 55.5444 20.1252 56.427 20.5949 57.0627L24.4905 62.3161C22.9187 66.1151 22.3765 70.2494 22.9348 74.3249C22.909 74.3619 22.8702 74.3852 22.8477 74.4252L19.8491 79.7263C19.4609 80.4117 19.7191 81.2722 20.4251 81.6481C20.6471 81.7679 20.8881 81.8231 21.1254 81.8231C21.6397 81.8231 22.1388 81.5578 22.4036 81.0898L23.897 78.4494C24.0065 78.7791 24.0768 79.1162 24.2018 79.4425L25.2209 82.0995C25.4392 82.6689 25.9952 83.0208 26.5864 83.0208C26.7553 83.0208 26.9271 82.9932 27.095 82.9324C27.8494 82.6597 28.2328 81.8434 27.9519 81.1119L26.9337 78.4549C25.9486 75.8841 25.5215 73.1876 25.6097 70.52C25.691 70.4775 25.7767 70.4471 25.851 70.3881L27.0206 69.4587L28.2024 71.0091C28.489 71.3831 28.9293 71.5821 29.3753 71.5821C29.6771 71.5821 29.9807 71.4918 30.2417 71.3039C30.8888 70.8396 31.0245 69.9533 30.5463 69.325L29.2797 67.6634L33.0619 64.6577C33.6844 64.1639 33.7764 63.2721 33.2668 62.6678C32.7563 62.0616 31.8406 61.9731 31.2153 62.4688Z" fill="#009951"/>
<path d="M81.832 74.4252C81.8096 74.3855 81.771 74.3622 81.7453 74.3254C82.3034 70.2497 81.7612 66.1151 80.1893 62.3159L84.0848 57.0627C84.5545 56.427 84.4064 55.5444 83.7526 55.0874C83.1017 54.6305 82.1898 54.776 81.7181 55.408L78.7476 59.414C78.0667 58.2545 77.3193 57.1262 76.4298 56.0787C75.9164 55.4762 74.9998 55.3896 74.3782 55.8871C73.7567 56.3846 73.6684 57.2764 74.1808 57.8808C76.3266 60.4064 77.7481 63.3605 78.4872 66.4603L73.4644 62.4688C72.841 61.9731 71.9233 62.0616 71.4128 62.6678C70.9033 63.2721 70.9953 64.1639 71.6178 64.6577L75.4 67.6634L74.1334 69.325C73.6551 69.9533 73.7908 70.8396 74.438 71.3039C74.6989 71.4918 75.0026 71.5821 75.3044 71.5821C75.7504 71.5821 76.1907 71.3831 76.4772 71.0091L77.6591 69.4587L78.8287 70.3881C78.9029 70.4471 78.9888 70.4776 79.07 70.5201C79.1583 73.1876 78.731 75.8841 77.7459 78.4549L76.7277 81.1119C76.4478 81.8452 76.8312 82.6597 77.5856 82.9324C77.7535 82.9932 77.9253 83.0208 78.0942 83.0208C78.6854 83.0208 79.2414 82.6689 79.4606 82.0995L80.4788 79.4425C80.6039 79.1163 80.674 78.7794 80.7833 78.4498L82.2771 81.0898C82.5418 81.5578 83.0409 81.8231 83.5553 81.8231C83.7925 81.8231 84.0335 81.7679 84.2565 81.6481C84.9616 81.2722 85.2197 80.4117 84.8316 79.7263L81.832 74.4252Z" fill="#009951"/>
</svg>
