<svg width="104" height="101" viewBox="0 0 104 101" fill="none" xmlns="http://www.w3.org/2000/svg">
<path d="M76.5527 33.2639C74.096 30.9238 69.8163 30.8575 67.3093 33.0262C66.3936 33.7835 65.6971 34.8043 65.2947 35.9743C64.9174 37.074 64.5923 38.1796 64.2986 39.284L62.1367 37.1849C59.3753 34.5039 57.8542 30.9386 57.8542 27.1465V8.64898C57.8542 7.86773 57.2013 7.23389 56.3967 7.23389C55.592 7.23389 54.9391 7.86773 54.9391 8.64898V12.1093H49.7656V8.64898C49.7656 7.86773 49.1127 7.23389 48.308 7.23389C47.5033 7.23389 46.8505 7.86773 46.8505 8.64898V27.1465C46.8505 30.9386 45.3303 34.5039 42.5689 37.1849L40.3853 39.3049C40.0933 38.2035 39.7681 37.093 39.3881 35.9743C38.9877 34.8061 38.2902 33.7853 37.3973 33.0465C34.8475 30.8391 30.585 30.9293 28.1368 33.2565C23.3779 37.7284 14.8205 47.0703 10.965 59.3768C6.46428 73.712 5.68047 84.0838 6.4472 89.0145C6.86188 91.6034 9.15733 93.5031 11.8921 93.5307C12.5374 93.5436 13.1703 93.5491 13.7947 93.5491C28.4395 93.5491 37.3926 90.1256 41.8867 82.8419C41.9493 82.7387 41.9986 82.63 42.0337 82.5158C42.3848 81.366 42.5746 80.2163 42.5974 79.1218L42.9257 70.353C43.1003 65.4665 42.9732 60.4492 42.549 55.4374L42.3012 52.5806C47.9155 47.3979 56.7492 47.3893 62.382 52.5421L62.1339 55.4392C61.7097 60.4492 61.5825 65.4665 61.7571 70.3548L62.0855 79.0978C62.1082 80.2089 62.298 81.3587 62.6491 82.514C62.6842 82.63 62.7336 82.7387 62.7962 82.8419C67.2903 90.1275 76.2425 93.5491 90.8768 93.5491C91.5002 93.5491 92.1341 93.5436 92.7775 93.5307C95.5255 93.5031 97.821 91.6034 98.2366 89.009C99.0033 84.082 98.2186 73.7102 93.7188 59.3786C89.8624 47.0703 81.305 37.7284 76.5527 33.2639ZM49.7656 26.6122V22.19H54.9391V26.6122H49.7656ZM54.9391 14.9395V19.3598H49.7656V14.9395H54.9391ZM95.3547 88.5797C95.1602 89.7958 94.0632 90.6876 92.7338 90.7005C78.4136 90.9437 69.4766 87.979 65.3944 81.5411C65.1486 80.688 65.0167 79.8459 64.9996 79.0186L64.6703 70.2535C64.4995 65.4794 64.6238 60.5726 65.0395 55.6732L65.085 55.137L67.2467 57.2357C67.5313 57.5121 67.9043 57.6503 68.2772 57.6503C68.6501 57.6503 69.023 57.5121 69.3077 57.2357C69.8771 56.683 69.8771 55.7875 69.3077 55.2347L64.7633 50.8217C57.9254 44.1848 46.8021 44.1848 39.9641 50.8217L39.7592 51.0207L35.4188 55.2347C34.8494 55.7875 34.8494 56.683 35.4188 57.2357C35.9882 57.7885 36.9105 57.7885 37.4799 57.2357L39.6007 55.1776L39.6434 55.6714C40.059 60.5726 40.1833 65.4794 40.0125 70.2516L39.6833 79.0407C39.6662 79.8514 39.5343 80.6917 39.2895 81.5411C35.2062 87.9809 26.2361 90.964 11.9358 90.7005C10.6196 90.6876 9.52266 89.7958 9.32908 88.5852C8.64301 84.1778 9.39076 74.1008 13.7539 60.2004C17.4177 48.5038 25.6079 39.5728 30.1703 35.2852C31.5614 33.9622 34.004 33.9033 35.4814 35.1783C35.9948 35.6039 36.3895 36.188 36.6211 36.8643C37.1696 38.4784 37.6231 40.0832 37.9742 41.6457L29.6977 49.6812C29.1284 50.234 29.1284 51.1294 29.6977 51.6822C29.9824 51.9586 30.3553 52.0968 30.7283 52.0968C31.1012 52.0968 31.4741 51.9586 31.7588 51.6822L44.63 39.1859C47.3767 36.5192 49.0806 33.1182 49.5887 29.4424H55.116C55.6241 33.1182 57.3283 36.5192 60.0756 39.1859L72.9459 51.6822C73.2306 51.9586 73.6035 52.0968 73.9764 52.0968C74.3493 52.0968 74.7223 51.9586 75.007 51.6822C75.5763 51.1294 75.5763 50.234 75.007 49.6812L66.7096 41.6236C67.0645 40.0464 67.5171 38.4507 68.0599 36.8698C68.2943 36.188 68.689 35.6039 69.2242 35.1599C70.6609 33.9198 73.1176 33.9567 74.5192 35.2907C79.075 39.5728 87.2652 48.5038 90.9299 60.2023C95.2931 74.0989 96.0399 84.1778 95.3547 88.5797Z" fill="#2B3990"/>
<path d="M31.217 62.4688L26.1942 66.4603C26.9333 63.3605 28.3548 60.4064 30.5005 57.8808C31.013 57.2764 30.9247 56.3846 30.3032 55.8871C29.6826 55.3896 28.7631 55.4744 28.2516 56.0787C27.3621 57.1262 26.6147 58.2545 25.9337 59.414L22.9632 55.408C22.4916 54.776 21.5807 54.6305 20.9287 55.0874C20.2749 55.5444 20.1269 56.427 20.5966 57.0627L24.4922 62.3161C22.9204 66.1151 22.3782 70.2494 22.9365 74.3249C22.9107 74.3619 22.8719 74.3852 22.8494 74.4252L19.8508 79.7263C19.4627 80.4117 19.7208 81.2722 20.4268 81.6481C20.6488 81.7679 20.8898 81.8231 21.1271 81.8231C21.6414 81.8231 22.1405 81.5578 22.4053 81.0898L23.8988 78.4494C24.0082 78.7791 24.0785 79.1162 24.2035 79.4425L25.2226 82.0995C25.4409 82.6689 25.9969 83.0208 26.5881 83.0208C26.757 83.0208 26.9288 82.9932 27.0967 82.9324C27.8511 82.6597 28.2345 81.8434 27.9536 81.1119L26.9354 78.4549C25.9503 75.8841 25.5232 73.1876 25.6114 70.52C25.6927 70.4775 25.7785 70.4471 25.8527 70.3881L27.0223 69.4587L28.2041 71.0091C28.4907 71.3831 28.931 71.5821 29.377 71.5821C29.6788 71.5821 29.9824 71.4918 30.2434 71.3039C30.8905 70.8396 31.0262 69.9533 30.548 69.325L29.2814 67.6634L33.0636 64.6577C33.6861 64.1639 33.7781 63.2721 33.2686 62.6678C32.758 62.0616 31.8423 61.9731 31.217 62.4688Z" fill="#009951"/>
<path d="M81.8335 74.4252C81.8111 74.3855 81.7725 74.3622 81.7468 74.3254C82.3049 70.2497 81.7627 66.1151 80.1908 62.3159L84.0862 57.0627C84.5559 56.427 84.4079 55.5444 83.7541 55.0874C83.1031 54.6305 82.1912 54.776 81.7196 55.408L78.7491 59.414C78.0681 58.2545 77.3207 57.1262 76.4312 56.0787C75.9179 55.4762 75.0012 55.3896 74.3797 55.8871C73.7581 56.3846 73.6699 57.2764 74.1823 57.8808C76.3281 60.4064 77.7495 63.3605 78.4886 66.4603L73.4659 62.4688C72.8424 61.9731 71.9248 62.0616 71.4143 62.6678C70.9047 63.2721 70.9968 64.1639 71.6193 64.6577L75.4014 67.6634L74.1349 69.325C73.6566 69.9533 73.7923 70.8396 74.4395 71.3039C74.7004 71.4918 75.0041 71.5821 75.3058 71.5821C75.7518 71.5821 76.1921 71.3831 76.4787 71.0091L77.6606 69.4587L78.8301 70.3881C78.9044 70.4471 78.9903 70.4776 79.0715 70.5201C79.1598 73.1876 78.7325 75.8841 77.7474 78.4549L76.7292 81.1119C76.4493 81.8452 76.8326 82.6597 77.587 82.9324C77.755 82.9932 77.9268 83.0208 78.0957 83.0208C78.6868 83.0208 79.2429 82.6689 79.4621 82.0995L80.4803 79.4425C80.6053 79.1163 80.6754 78.7794 80.7848 78.4498L82.2785 81.0898C82.5433 81.5578 83.0424 81.8231 83.5567 81.8231C83.7939 81.8231 84.035 81.7679 84.258 81.6481C84.963 81.2722 85.2211 80.4117 84.833 79.7263L81.8335 74.4252Z" fill="#009951"/>
</svg>
