<svg width="98" height="96" viewBox="0 0 98 96" fill="none" xmlns="http://www.w3.org/2000/svg">
<path d="M72.0762 92.4229C72.9128 92.4229 73.5918 91.7579 73.5918 90.9385V79.6721L83.8101 71.8287C85.0893 70.8312 86.802 68.8748 87.4719 67.3192L94.6863 50.8931C94.7681 50.709 94.8105 50.5071 94.8105 50.3053V35.9989C94.8105 34.1523 92.6735 32.7896 90.6092 32.5432C88.0509 32.2196 84.8347 33.5823 83.6222 38.3234C82.9978 40.7845 82.8583 42.8656 82.734 44.7003C82.6765 45.5167 83.307 46.2856 84.1436 46.339C84.9802 46.3954 85.6986 45.8343 85.7501 45.0179C85.8744 43.1832 86.0048 41.2446 86.5655 39.0388C86.9475 37.5485 87.7659 35.7168 89.515 35.4882C90.685 35.3249 91.6641 35.9395 91.8248 36.2185L91.7793 49.9995L84.6831 66.1584C84.2406 67.1945 82.8644 68.7709 81.9308 69.5012L71.1395 77.784C70.7727 78.0631 70.5605 78.4935 70.5605 78.9507V90.9385C70.5605 91.7579 71.2395 92.4229 72.0762 92.4229Z" fill="#2B3990"/>
<path d="M26.6074 92.4229C25.7708 92.4229 25.0918 91.7579 25.0918 90.9385V79.6721L14.8735 71.8287C13.5943 70.8312 11.8816 68.8748 11.2117 67.3192L3.99733 50.8931C3.91548 50.709 3.87305 50.5071 3.87305 50.3053V35.9989C3.87305 34.1523 6.01008 32.7896 8.07436 32.5432C10.6327 32.2196 13.8489 33.5823 15.0614 38.3234C15.6858 40.7845 15.8253 42.8656 15.9495 44.7003C16.0071 45.5167 15.3766 46.2856 14.54 46.339C13.7034 46.3954 12.985 45.8343 12.9335 45.0179C12.8092 43.1832 12.6788 41.2446 12.118 39.0388C11.7361 37.5485 10.9177 35.7168 9.16864 35.4882C7.99858 35.3249 7.01948 35.9395 6.85883 36.2185L6.9043 49.9995L14.0005 66.1584C14.443 67.1945 15.8192 68.7709 16.7528 69.5012L27.5441 77.784C27.9109 78.0631 28.123 78.4935 28.123 78.9507V90.9385C28.123 91.7579 27.444 92.4229 26.6074 92.4229Z" fill="#2B3990"/>
<path d="M44.7949 92.4227C43.9583 92.4227 43.2793 91.7577 43.2793 90.9383V74.72C43.2793 68.4649 38.8688 63.0113 32.5517 61.4556C31.7393 61.2567 31.2482 60.4492 31.4513 59.6536C31.6544 58.8609 32.4638 58.3681 33.2913 58.5759C40.9543 60.4641 46.3105 67.1022 46.3105 74.72V90.9383C46.3105 91.7577 45.6315 92.4227 44.7949 92.4227Z" fill="#2B3990"/>
<path d="M27.4016 66.9422C27.0136 66.9422 26.6256 66.7968 26.3285 66.5088L13.0305 53.5057C12.7455 53.2266 12.5879 52.8496 12.5879 52.4547C12.5879 52.0629 12.7485 51.6829 13.0305 51.4038C17.1984 47.3218 22.3364 47.6661 27.1227 52.3538L33.9582 59.0335C34.5493 59.6124 34.5493 60.5535 33.9582 61.1324C33.3671 61.7143 32.4062 61.7113 31.8151 61.1354L24.9796 54.4557C21.8726 51.4127 18.9656 50.7685 16.3375 52.5438L28.4686 64.4069C29.0597 64.9858 29.0597 65.9269 28.4686 66.5088C28.1776 66.7968 27.7896 66.9422 27.4016 66.9422Z" fill="#2B3990"/>
<path d="M53.8887 92.4232C53.052 92.4232 52.373 91.7582 52.373 90.9388V74.7205C52.373 67.1027 57.7293 60.4646 65.3923 58.5764C66.2137 58.3686 67.0261 58.8614 67.2322 59.6541C67.4323 60.4497 66.9412 61.2572 66.1319 61.4561C59.8148 63.0117 55.4043 68.4653 55.4043 74.7205V90.9388C55.4043 91.7582 54.7253 92.4232 53.8887 92.4232Z" fill="#2B3990"/>
<path d="M71.2821 66.9422C70.8941 66.9422 70.5061 66.7968 70.209 66.5088C69.6179 65.9269 69.6179 64.9888 70.209 64.4069L82.3401 52.5438C79.715 50.7715 76.805 51.4157 73.698 54.4557L66.8625 61.1354C66.2714 61.7113 65.3105 61.7143 64.7194 61.1324C64.1283 60.5535 64.1283 59.6124 64.7194 59.0335L71.5549 52.3538C76.3413 47.6661 81.4792 47.3218 85.6472 51.4038C85.9321 51.6829 86.0898 52.0599 86.0898 52.4547C86.0898 52.8496 85.9291 53.2266 85.6472 53.5057L72.3491 66.5088C72.0581 66.7968 71.6701 66.9422 71.2821 66.9422Z" fill="#2B3990"/>
<path d="M71.2821 66.9422C70.8941 66.9422 70.5061 66.7968 70.209 66.5088C69.6179 65.9269 69.6179 64.9888 70.209 64.4069L82.3401 52.5438C79.715 50.7715 76.805 51.4157 73.698 54.4557L66.8625 61.1354C66.2714 61.7113 65.3105 61.7143 64.7194 61.1324C64.1283 60.5535 64.1283 59.6124 64.7194 59.0335L71.5549 52.3538C76.3413 47.6661 81.4792 47.3218 85.6472 51.4038C85.9321 51.6829 86.0898 52.0599 86.0898 52.4547C86.0898 52.8496 85.9291 53.2266 85.6472 53.5057L72.3491 66.5088C72.0581 66.7968 71.6701 66.9422 71.2821 66.9422Z" fill="#2B3990"/>
<path d="M56.0075 37.3495C55.186 37.3495 54.3646 37.2841 53.5431 37.1506C49.6207 36.5123 46.1832 34.4134 43.8643 31.2368C41.5454 28.0602 40.63 24.1949 41.2787 20.3534C41.7364 17.6696 44.3311 15.8438 47.0774 16.2951C49.8177 16.7404 51.6789 19.2906 51.2212 21.9743C51.0393 23.0431 51.2454 24.1504 51.791 25.0856C52.2094 25.798 51.9578 26.7035 51.2303 27.1132C50.5119 27.514 49.5813 27.2765 49.1599 26.564C48.2657 25.0381 47.9353 23.236 48.2263 21.4904C48.4082 20.4187 47.6655 19.4004 46.5743 19.2223C45.4769 19.0531 44.4433 19.7685 44.2614 20.8402C43.7431 23.8981 44.4736 26.9766 46.3227 29.509C48.1717 32.0413 50.912 33.7157 54.0342 34.2234C54.892 34.3599 55.762 34.4134 56.6107 34.3659C57.4625 34.3481 58.1627 34.9537 58.2021 35.7701C58.2476 36.5895 57.605 37.2871 56.7684 37.3316C56.5228 37.3435 56.2652 37.3495 56.0075 37.3495Z" fill="#009951"/>
<path d="M47.1774 57.3916C45.7891 57.3916 44.3129 57.261 42.7367 56.976C38.6384 56.2338 35.2949 53.9241 33.3186 50.4655C31.9575 48.0876 30.8178 44.3677 31.5847 38.9171C31.0239 39.1754 30.4753 39.3357 29.9448 39.4604C27.8441 39.9562 24.8311 39.0893 23.079 37.4921C21.7513 36.2779 21.1724 34.7015 21.4543 33.0538C21.6998 31.6318 22.4152 30.5007 23.5246 29.7793C24.7886 28.9599 26.3073 28.8263 27.3652 28.8887C29.481 23.4143 33.946 20.7335 39.0264 22.0041C41.2665 22.5652 43.0883 23.9219 44.2917 25.9258C46.4833 29.5685 46.2893 34.5204 45.3769 37.9374C45.1677 38.7301 44.3493 39.2021 43.5309 39.0002C42.7185 38.7924 42.2335 37.9819 42.4487 37.1893C43.1671 34.4759 43.4005 30.2959 41.6818 27.434C40.8815 26.1069 39.7357 25.246 38.2747 24.8808C34.4219 23.9101 31.2967 26.1841 29.8629 30.9341C29.6326 31.6882 28.8535 32.1335 28.0594 31.9584C27.5653 31.8485 26.0739 31.6882 25.1948 32.2641C24.9402 32.4334 24.5855 32.748 24.4461 33.5526C24.4037 33.793 24.2763 34.5293 25.1463 35.3249C26.3285 36.4026 28.3655 36.7826 29.2355 36.5777C30.3085 36.3254 31.7363 35.9869 33.2731 32.2434C33.4459 31.7565 33.6278 31.2607 33.8278 30.756C34.1219 30.0019 34.9706 29.6101 35.7557 29.8891C36.5317 30.1623 36.9439 30.9905 36.6833 31.7565C36.4984 32.2879 36.3165 32.7807 36.1285 33.2408C33.8339 39.7573 33.7763 45.1901 35.9649 49.0198C37.4926 51.6916 40.0934 53.4818 43.2914 54.0607C56.7501 56.4891 61.8305 46.2054 64.8587 40.0541C65.8863 37.9641 66.5077 36.7054 67.3868 36.0909C67.6566 35.9038 68.1901 35.6188 68.9145 35.2448C72.5217 33.3893 80.9729 29.0401 81.9277 20.8909C82.731 14.0894 77.7143 7.63538 70.7545 6.50429C67.4565 5.96398 64.11 6.72101 61.3728 8.63585C58.6386 10.5507 56.8289 13.3948 56.2773 16.6426C56.1984 17.2779 55.7013 18.0052 55.0617 18.1299C53.0641 18.5188 51.5576 20.0299 51.2272 21.9744C50.8907 23.9546 51.891 25.9318 53.7189 26.8966C54.4555 27.2855 54.7313 28.1851 54.3342 28.9065C53.9341 29.6279 53.0217 29.898 52.279 29.5121C49.3114 27.9476 47.6837 24.7235 48.2354 21.4876C48.7052 18.7148 50.727 16.4169 53.4097 15.4996C54.2069 11.759 56.3894 8.47257 59.6056 6.22226C62.9975 3.84429 67.1322 2.90616 71.2486 3.57413C79.7755 4.96054 85.9168 12.8812 84.9377 21.2293C83.7949 30.9401 74.007 35.9751 70.321 37.8721C69.7693 38.1571 69.3571 38.359 69.1479 38.5015C68.8539 38.7687 68.1507 40.1966 67.5838 41.3426C64.9284 46.7398 59.6783 57.3916 47.1774 57.3916Z" fill="#009951"/>
</svg>
