<svg width="81" height="81" viewBox="0 0 81 81" fill="none" xmlns="http://www.w3.org/2000/svg">
<g clip-path="url(#clip0_1_25519)">
<path d="M66.5137 7.17676H55.7651C55.2813 5.81285 53.9788 4.83301 52.4512 4.83301H46.4741C45.9296 2.16191 43.562 0.145508 40.7324 0.145508C37.9029 0.145508 35.5352 2.16191 34.9907 4.83301H29.0137C27.486 4.83301 26.1835 5.81285 25.6998 7.17676H14.9512C13.0127 7.17676 11.4355 8.75379 11.4355 10.6924V76.6299C11.4355 78.5685 13.0126 80.1455 14.9512 80.1455H54.7949V77.8018H14.9512C14.3051 77.8018 13.7793 77.2761 13.7793 76.6299V10.6924C13.7793 10.0461 14.3049 9.52051 14.9512 9.52051H25.4982V11.8643H16.123V18.8955H18.4668V14.208H25.6998C26.1835 15.5721 27.486 16.5518 29.0138 16.5518H52.4512C53.9788 16.5518 55.2815 15.5719 55.7651 14.208H62.998V63.7393H53.623V73.1143H18.4668V21.2391H16.123V75.458H55.2804L65.3418 65.3964V11.8643H55.9666V9.52051H66.5137C67.1599 9.52051 67.6855 10.0461 67.6855 10.6924V76.6299C67.6855 77.2761 67.1599 77.8018 66.5137 77.8018H61.8262V80.1455H66.5137C68.4523 80.1455 70.0293 78.5685 70.0293 76.6299V10.6924C70.0293 8.75379 68.4523 7.17676 66.5137 7.17676ZM61.3409 66.083L55.9668 71.4569V66.083H61.3409ZM53.6229 13.0361C53.6229 13.6822 53.0973 14.208 52.451 14.208H29.0137C28.3676 14.208 27.8418 13.6822 27.8418 13.0361V8.34863C27.8418 7.70254 28.3674 7.17676 29.0137 7.17676H37.2168V6.00488C37.2168 4.06629 38.7938 2.48926 40.7324 2.48926C42.671 2.48926 44.248 4.06629 44.248 6.00488V7.17676H52.4512C53.0973 7.17676 53.623 7.70254 53.623 8.34863V13.0361H53.6229Z" fill="white"/>
<path d="M57.1367 77.8018H59.4805V80.1455H57.1367V77.8018Z" fill="white"/>
<path d="M36.0469 20.0674V24.7549H31.3594V34.1299H36.0469V38.8174H45.4219V34.1299H50.1094V24.7549H45.4219V20.0674H36.0469ZM47.7656 27.0985V31.786H43.0781V36.4735H38.3906V31.786H33.7031V27.0985H38.3906V22.411H43.0781V27.0985H47.7656Z" fill="white"/>
<path d="M23.1509 59.9111H30.1821V52.8799H23.1509V59.9111ZM25.4946 55.2236H27.8384V57.5674H25.4946V55.2236Z" fill="white"/>
<path d="M34.873 44.6768H58.3107V47.0205H34.873V44.6768Z" fill="white"/>
<path d="M30.1821 42.333H23.1509V49.3643H30.1821V42.333ZM27.8384 47.0205H25.4946V44.6768H27.8384V47.0205Z" fill="white"/>
<path d="M34.873 65.7705H51.2796V68.1143H34.873V65.7705Z" fill="white"/>
<path d="M34.873 55.2236H58.3107V57.5674H34.873V55.2236Z" fill="white"/>
<path d="M23.1509 70.458H30.1821V63.4268H23.1509V70.458ZM25.4946 65.7705H27.8384V68.1143H25.4946V65.7705Z" fill="white"/>
<path d="M58.3105 22.0381H60.6543V24.3818H58.3105V22.0381Z" fill="white"/>
<path d="M58.3105 17.3506H60.6543V19.6943H58.3105V17.3506Z" fill="white"/>
</g>
<defs>
<clipPath id="clip0_1_25519">
<rect width="80" height="80" fill="white" transform="translate(0.734375 0.145508)"/>
</clipPath>
</defs>
</svg>
