<svg width="73" height="73" viewBox="0 0 73 73" fill="none" xmlns="http://www.w3.org/2000/svg">
<g clip-path="url(#clip0_1_67875)">
<path d="M29.3154 27.1059C30.6411 27.5118 31.9963 27.7129 33.3446 27.7129C35.5559 27.7129 37.7481 27.1718 39.7567 26.1051C46.4299 22.5618 48.9756 14.2494 45.4313 7.57552C43.7144 4.34269 40.8414 1.97218 37.3414 0.900614C33.8416 -0.17123 30.1337 0.18441 26.9002 1.9013L26.9 1.90144C20.2278 5.44646 17.6822 13.7587 21.2255 20.4309C22.9424 23.6639 25.8154 26.0342 29.3154 27.1059ZM27.8899 3.76416L27.8897 3.7643C30.6255 2.31164 33.7629 2.01127 36.7239 2.9176C39.6851 3.82407 42.1158 5.82966 43.5683 8.56496C46.5671 14.2118 44.4133 21.2446 38.7674 24.2424C36.0315 25.6952 32.8944 25.9958 29.9332 25.0892C26.972 24.1826 24.5413 22.177 23.0887 19.4417C20.0907 13.7965 22.2445 6.76355 27.8899 3.76416Z" fill="#14AE5C"/>
<path d="M27.7581 17.4276H29.9083V19.5736C29.9083 20.9112 30.9947 21.9993 32.3302 21.9993H34.3274C35.665 21.9993 36.7533 20.9112 36.7533 19.5736V17.4276H38.8995C40.2373 17.4276 41.3256 16.3395 41.3256 15.0018V13.0048C41.3256 11.6672 40.2373 10.579 38.8995 10.579H36.7533V8.43311C36.7533 7.09548 35.665 6.00732 34.3274 6.00732H32.3302C30.9947 6.00732 29.9083 7.09548 29.9083 8.43311V10.579H27.7581C26.4205 10.579 25.332 11.6672 25.332 13.0048V15.0018C25.332 16.3395 26.4205 17.4276 27.7581 17.4276ZM27.4415 13.0048C27.4415 12.8333 27.5865 12.6883 27.7581 12.6883H30.9631C31.5455 12.6883 32.0178 12.2162 32.0178 11.6336V8.43296C32.0178 8.2614 32.1609 8.11642 32.3302 8.11642H34.3274C34.499 8.11642 34.6439 8.2614 34.6439 8.43296V11.6336C34.6439 12.2161 35.1162 12.6883 35.6986 12.6883H38.8995C39.0711 12.6883 39.2161 12.8333 39.2161 13.0048V15.0018C39.2161 15.1734 39.0711 15.3184 38.8995 15.3184H35.6986C35.1162 15.3184 34.6439 15.7905 34.6439 16.3731V19.5737C34.6439 19.7453 34.499 19.8902 34.3274 19.8902H32.3302C32.1608 19.8902 32.0178 19.7453 32.0178 19.5737V16.3731C32.0178 15.7906 31.5455 15.3184 30.9631 15.3184H27.7581C27.5865 15.3184 27.4415 15.1734 27.4415 15.0018V13.0048Z" fill="#14AE5C"/>
<path d="M67.9137 62.0904V53.4046H70.7416C71.3242 53.4046 71.7964 52.9325 71.7964 52.3499V31.2167C71.7964 28.9847 69.9784 27.1687 67.744 27.1687C65.8765 27.1687 64.3012 28.44 63.8359 30.1621H54.3303C53.7477 30.1621 53.2757 30.6341 53.2757 31.2167C53.2757 31.7994 53.7479 32.2714 54.3303 32.2714H63.6955V51.2955H35.1789V36.5578C35.1789 34.1942 37.102 32.2713 39.4657 32.2713H49.4591C50.0417 32.2713 50.5138 31.7992 50.5138 31.2166C50.5138 30.634 50.0416 30.1619 49.4591 30.1619H39.4657C35.9388 30.1619 33.0694 33.031 33.0694 36.5578V36.8423H20.4678C20.4275 35.1918 19.4237 33.6363 17.8292 32.9765C17.8 32.9644 17.7704 32.9537 17.7403 32.9443L8.11647 29.939V24.5085C8.11647 22.2743 6.29847 20.4565 4.06408 20.4565C1.83166 20.4564 0.015625 22.2741 0.015625 24.5084V34.3776C0.015625 34.96 0.487844 35.4323 1.07031 35.4323C1.65278 35.4323 2.125 34.9602 2.125 34.3776V24.5084C2.125 23.4371 2.99477 22.5656 4.06394 22.5656C5.13522 22.5656 6.00681 23.4371 6.00681 24.5084V46.3591C6.00681 46.9416 6.47903 47.4138 7.0615 47.4138H33.0691V51.2952H2.12514V39.2483C2.12514 38.6658 1.65292 38.1936 1.07045 38.1936C0.487984 38.1936 0.0157656 38.6657 0.0157656 39.2483V52.3499C0.0157656 52.9323 0.487984 53.4046 1.07045 53.4046H4.97856V62.0904C2.63941 62.5785 0.876813 64.6561 0.876813 67.1379C0.876813 69.9809 3.19009 72.294 6.03339 72.294C8.87669 72.294 11.19 69.9809 11.19 67.1379C11.19 64.6561 9.42723 62.5787 7.08822 62.0904V58.7458H65.8042V62.0904C63.4651 62.5785 61.7023 64.6561 61.7023 67.1379C61.7023 69.9809 64.0156 72.294 66.8589 72.294C69.7022 72.294 72.0156 69.9807 72.0156 67.1377C72.0156 64.656 70.2529 62.5785 67.9137 62.0904ZM67.7439 29.2779C68.8153 29.2779 69.6867 30.1476 69.6867 31.2167V51.2953H65.8051V31.2167C65.8051 30.1476 66.6748 29.2779 67.7439 29.2779ZM17.0616 34.9423C17.8341 35.28 18.3239 36.0358 18.3593 36.8424H8.11647V32.1487L17.0616 34.9423ZM8.11647 45.3046V38.9517H19.2675H33.0694V45.3046H8.11647ZM9.08031 67.1377C9.08031 68.8178 7.71344 70.1845 6.03325 70.1845C4.35306 70.1845 2.98619 68.8178 2.98619 67.1377C2.98619 65.4575 4.35306 64.0908 6.03325 64.0908C7.71344 64.0908 9.08031 65.4577 9.08031 67.1377ZM7.08794 56.6365V53.4047H65.8042V56.6365H7.08794ZM66.859 70.1846C65.1789 70.1846 63.812 68.8179 63.812 67.1379C63.812 65.4577 65.1789 64.0909 66.859 64.0909C68.5392 64.0909 69.9061 65.4577 69.9061 67.1379C69.9061 68.8178 68.5392 70.1846 66.859 70.1846Z" fill="#14AE5C"/>
</g>
<defs>
<clipPath id="clip0_1_67875">
<rect width="72" height="72" fill="white" transform="translate(0.015625 0.293945)"/>
</clipPath>
</defs>
</svg>
