<svg width="113" height="110" viewBox="0 0 113 110" fill="none" xmlns="http://www.w3.org/2000/svg">
<rect x="0.839844" y="0.391602" width="112" height="109" stroke="#2B3990"/>
<path d="M25.5149 41.1496C25.4274 39.9681 25.5587 39.0526 25.5587 38.265C25.4712 16.4649 44.5243 10.9724 61.1274 10.3976C83.3196 9.63116 97.2978 25.3106 97.2978 43.7043C97.2978 51.528 94.3665 58.7237 89.4665 64.4079C83.1556 71.7314 83.7353 77.2772 87.6181 86.953" stroke="#2B3990" stroke-width="4" stroke-miterlimit="10"/>
<path d="M23.021 66.8989C23.1194 66.388 23.2179 65.8983 23.2944 65.4938C23.3382 65.2597 23.2288 65.0255 23.021 64.9084C22.7147 64.7381 22.3866 64.6104 22.0476 64.5252L18.471 63.6098C18.0663 63.514 17.6835 63.3224 17.3663 63.0669C17.0491 62.8114 16.7976 62.4814 16.6226 62.1089C16.1741 61.1402 16.3491 60.0013 17.071 59.2029L25.8647 47.2385C25.9413 47.164 25.9741 46.3124 25.9741 45.397" stroke="#2B3990" stroke-width="4" stroke-miterlimit="10"/>
<path d="M22.8133 70.4116C22.879 70.7948 23.0102 71.0929 23.2508 71.21C23.9837 71.5825 25.4493 72.0083 26.4446 72.2744C26.729 72.3489 26.7399 72.7428 26.4555 72.8279L23.5134 73.7327C23.5134 73.7327 21.2165 74.5098 22.9993 77.0112C24.0384 78.4802 22.9446 80.0875 22.529 82.0887C22.0368 84.473 22.3868 88.2625 28.0852 88.7734C33.7946 89.2737 42.5884 85.4417 45.7055 95.2772C46.4274 97.5445 47.018 99.3967 47.4993 100.898" stroke="#2B3990" stroke-width="4" stroke-miterlimit="10"/>
<path d="M64.0805 46.9507C63.8617 46.3546 63.7305 45.716 63.7305 45.0454C63.7305 41.8733 65.8742 38.8928 70.5883 39.1376C73.9461 39.308 76.5164 41.6604 76.7352 45.1731C77.0195 55.0619 68.8055 59.7348 66.7602 59.7348C64.7148 59.7348 63.6977 58.202 64.1352 56.1795" stroke="#2B3990" stroke-width="4" stroke-miterlimit="10"/>
<path d="M67.8428 48.9203C67.8428 48.9203 69.0459 48.5796 69.7569 49.8889C70.1725 50.666 69.735 51.6027 69.1444 52.0285C68.5538 52.4543 67.7444 52.5713 67.4053 52.5713C67.4053 52.5713 66.7491 52.6246 66.8913 52.1775" stroke="#2B3990" stroke-width="2" stroke-miterlimit="10"/>
<path d="M26.2368 59.969C28.0962 57.393 29.6493 54.3699 32.6899 52.9116C35.6978 51.4746 41.1774 49.1009 44.054 51.2192C46.9306 53.3374 47.729 55.6047 50.354 56.5414C52.979 57.4781 56.7306 56.5733 56.7853 65.1741C56.8399 72.3379 63.5446 86.2184 67.1868 94.5637" stroke="#009951" stroke-width="4" stroke-miterlimit="10"/>
<path d="M30.3711 65.0038C32.0883 64.1629 34.6805 63.3432 38.6398 62.7471C47.7289 61.374 49.8617 66.7388 50.3648 68.2291C50.3648 68.2397 51.4695 68.261 51.4695 68.2717" stroke="#009951" stroke-width="4" stroke-miterlimit="10"/>
<path d="M33.0181 72.8066C36.0915 70.9758 41.8774 69.6346 46.0774 71.987C51.5024 75.0207 56.4024 92.3287 57.8353 97.8107" stroke="#009951" stroke-width="4" stroke-miterlimit="10"/>
</svg>
