<svg width="74" height="66" viewBox="0 0 74 66" fill="none" xmlns="http://www.w3.org/2000/svg">
<g clip-path="url(#clip0_1_24916)">
<path d="M20.9207 13.6636H19.7796L19.4751 14.7634L15.1923 30.2327H3.24887C2.57996 27.8104 2.17578 25.249 2.17578 22.6272C2.17578 11.4461 10.9453 2.50586 21.5877 2.50586C27.1635 2.50586 32.2501 5.04104 35.798 8.92931L36.906 10.1437L38.0141 8.92931C41.5583 5.04499 46.7607 2.50586 52.236 2.50586C63.012 2.50586 71.765 11.4511 71.765 22.6272C71.765 25.2531 71.3684 27.8072 70.6944 30.2327H59.6573L55.4864 14.7729L55.1871 13.6636H54.0381H50.0126H48.8714L48.5669 14.7634L44.2841 30.2327H37.8188H37.3111L36.9078 30.541L34.895 32.0797L34.4895 32.3897L34.3572 32.8827L32.8761 38.4042L26.3929 14.7669L26.0903 13.6636H24.9463H20.9207Z" stroke="white" stroke-width="3"/>
<path d="M56.0294 36.1566L56.4327 36.4649H56.9403H67.6788C63.224 44.4703 55.8741 51.2064 49.3197 56.0896C45.771 58.7334 42.4928 60.8069 40.1034 62.2183C38.9094 62.9236 37.9391 63.4625 37.2702 63.8237C37.142 63.8929 37.0249 63.9556 36.9194 64.0116C36.8151 63.9559 36.6994 63.8937 36.5728 63.8251C35.9071 63.4639 34.9414 62.9251 33.7529 62.2198C31.3744 60.8085 28.1108 58.7351 24.5766 56.0913C18.0492 51.2084 10.7247 44.4719 6.27317 36.4649H18.0186H18.5507L18.9638 36.1296L20.8596 34.591L21.2313 34.2893L21.3596 33.828L22.921 28.2101L29.4324 52.0441L29.7342 53.1488H30.8794H34.9049H36.0482L36.3513 52.0465L40.6355 36.4649H46.9817H47.4893L47.8927 36.1566L49.9054 34.618L50.311 34.308L50.4433 33.8149L51.934 28.2576L53.4823 33.828L53.617 34.3126L54.0166 34.618L56.0294 36.1566Z" stroke="white" stroke-width="3"/>
</g>
<defs>
<clipPath id="clip0_1_24916">
<rect width="72.5892" height="65.6333" fill="white" transform="translate(0.675781 0.0698242)"/>
</clipPath>
</defs>
</svg>
