<svg width="86" height="83" viewBox="0 0 86 83" fill="none" xmlns="http://www.w3.org/2000/svg">
<g clip-path="url(#clip0_1_25065)">
<path d="M6.1543 68.7241C3.22528 68.7241 0.841797 71.0235 0.841797 73.8491C0.841797 76.6748 3.22528 78.9741 6.1543 78.9741C9.08331 78.9741 11.4668 76.6748 11.4668 73.8491C11.4668 71.0235 9.08331 68.7241 6.1543 68.7241ZM6.1543 75.5575C5.1768 75.5575 4.38341 74.7921 4.38341 73.8491C4.38341 72.9061 5.1768 72.1407 6.1543 72.1407C7.1318 72.1407 7.92519 72.9061 7.92519 73.8491C7.92519 74.7921 7.1318 75.5575 6.1543 75.5575Z" fill="#2B3990"/>
<path d="M43.3418 75.5577C49.1997 75.5577 53.9668 70.9588 53.9668 65.3077C53.9668 62.5025 52.7449 59.8137 50.5952 57.8628C39.9205 31.0932 53.648 3.1209 53.7897 2.84063C54.1899 2.04113 53.8924 1.08099 53.099 0.626631C52.3093 0.182518 51.2893 0.383995 50.7544 1.10502C50.0178 2.09927 32.7168 25.9203 32.7168 65.3077C32.7168 70.9588 37.4839 75.5577 43.3418 75.5577ZM44.2059 21.6768C42.2756 32.3299 41.9322 45.9454 47.4465 59.4924C47.5528 59.7486 47.7193 59.9775 47.9388 60.1586C49.5184 61.4706 50.425 63.3497 50.425 65.3075C50.425 69.0761 47.2481 72.1409 43.3416 72.1409C39.4351 72.1409 36.2582 69.0761 36.2582 65.3075C36.2584 47.1959 40.1224 32.3299 44.2059 21.6768Z" fill="#2B3990"/>
<path d="M80.5293 65.3074C81.5068 65.3074 82.3002 64.542 82.3002 63.599C82.3002 62.656 81.5068 61.8906 80.5293 61.8906H59.1022C58.5993 61.8906 58.1175 62.0956 57.7812 62.4577C57.4447 62.8198 57.2818 63.3051 57.3384 63.7869L57.4128 64.3301C57.4588 64.6512 57.5084 64.9725 57.5084 65.3072C57.5084 72.8444 51.1547 78.9738 43.3418 78.9738C35.5289 78.9738 29.1752 72.8444 29.1752 65.3072C29.1752 64.9826 29.2248 64.6717 29.2673 64.3609L29.3382 63.8245C29.356 63.6913 29.3454 63.5204 29.3276 63.3871C29.2179 62.533 28.4635 61.8906 27.571 61.8906H2.61269C1.63519 61.8906 0.841797 62.656 0.841797 63.599C0.841797 64.542 1.63519 65.3074 2.61269 65.3074H25.6336C25.6336 74.7271 33.5776 82.3908 43.342 82.3908C53.1063 82.3908 61.0504 74.7271 61.0504 65.3074H80.5293Z" fill="#009951"/>
<path d="M80.5293 72.1406C77.6003 72.1406 75.2168 74.44 75.2168 77.2656C75.2168 80.0913 77.6003 82.3906 80.5293 82.3906C83.4583 82.3906 85.8418 80.0913 85.8418 77.2656C85.8418 74.4401 83.4583 72.1406 80.5293 72.1406ZM80.5293 78.974C79.5518 78.974 78.7584 78.2086 78.7584 77.2656C78.7584 76.3226 79.5518 75.5572 80.5293 75.5572C81.5068 75.5572 82.3002 76.3226 82.3002 77.2656C82.3002 78.2086 81.5068 78.974 80.5293 78.974Z" fill="#2B3990"/>
<path d="M20.3208 72.1406C17.3918 72.1406 15.0083 74.44 15.0083 77.2656C15.0083 80.0913 17.3918 82.3906 20.3208 82.3906C23.2498 82.3906 25.6333 80.0913 25.6333 77.2656C25.6333 74.4401 23.2498 72.1406 20.3208 72.1406ZM20.3208 78.974C19.3433 78.974 18.5499 78.2086 18.5499 77.2656C18.5499 76.3226 19.3433 75.5572 20.3208 75.5572C21.2983 75.5572 22.0917 76.3226 22.0917 77.2656C22.0917 78.2086 21.2983 78.974 20.3208 78.974Z" fill="#2B3990"/>
<path d="M66.3628 68.7241C63.4338 68.7241 61.0503 71.0235 61.0503 73.8491C61.0503 76.6748 63.4338 78.9741 66.3628 78.9741C69.2918 78.9741 71.6753 76.6748 71.6753 73.8491C71.6753 71.0235 69.2916 68.7241 66.3628 68.7241ZM66.3628 75.5575C65.3853 75.5575 64.5919 74.7921 64.5919 73.8491C64.5919 72.9061 65.3853 72.1407 66.3628 72.1407C67.3403 72.1407 68.1337 72.9061 68.1337 73.8491C68.1337 74.7921 67.3403 75.5575 66.3628 75.5575Z" fill="#2B3990"/>
</g>
<defs>
<clipPath id="clip0_1_25065">
<rect width="85" height="82" fill="white" transform="translate(0.841797 0.391602)"/>
</clipPath>
</defs>
</svg>
