<svg width="91" height="89" viewBox="0 0 91 89" fill="none" xmlns="http://www.w3.org/2000/svg">
<g clip-path="url(#clip0_1_24991)">
<path d="M19.5207 50.1689L12.4445 54.1245C11.2114 52.9657 9.53852 52.251 7.69722 52.251C3.916 52.251 0.839844 55.2588 0.839844 58.956C0.839844 62.6532 3.916 65.661 7.69722 65.661C11.4784 65.661 14.5546 62.6532 14.5546 58.956C14.5546 58.4222 14.4885 57.9035 14.3674 57.4052L21.4401 53.4516L19.5207 50.1689ZM7.69722 61.8798C6.0484 61.8798 4.70702 60.5682 4.70702 58.956C4.70702 57.3438 6.0484 56.0323 7.69722 56.0323C9.34604 56.0323 10.6874 57.3438 10.6874 58.956C10.6874 60.5682 9.34604 61.8798 7.69722 61.8798Z" fill="#009951"/>
<path d="M36.0989 67.0015V59.5361H32.2317V67.0015C29.3895 67.82 27.3081 70.3926 27.3081 73.4332C27.3081 77.1304 30.3843 80.1382 34.1653 80.1382C37.9465 80.1382 41.0227 77.1304 41.0227 73.4332C41.0227 70.3926 38.9413 67.8198 36.0989 67.0015ZM34.1653 76.3568C32.5167 76.3568 31.1753 75.0452 31.1753 73.433C31.1753 71.821 32.5167 70.5094 34.1653 70.5094C35.8141 70.5094 37.1555 71.821 37.1555 73.433C37.1555 75.0452 35.8141 76.3568 34.1653 76.3568Z" fill="#009951"/>
<path d="M61.5356 8.64551C57.7544 8.64551 54.6782 11.6533 54.6782 15.3505C54.6782 18.3911 56.7596 20.9637 59.602 21.7822V28.6338H63.4692V21.7822C66.3116 20.9637 68.393 18.3911 68.393 15.3505C68.393 11.6533 65.3168 8.64551 61.5356 8.64551ZM61.5356 18.2741C59.8868 18.2741 58.5454 16.9625 58.5454 15.3505C58.5454 13.7383 59.8868 12.4267 61.5356 12.4267C63.1844 12.4267 64.5258 13.7383 64.5258 15.3505C64.5258 16.9625 63.1844 18.2741 61.5356 18.2741Z" fill="#009951"/>
<path d="M76.1873 34.722L62.5021 26.9965C61.9037 26.6587 61.1665 26.6587 60.5685 26.9965L47.8502 34.1762L35.1318 26.9965C34.5336 26.6587 33.7964 26.6589 33.1982 26.9965L19.5132 34.722C18.915 35.0598 18.5464 35.684 18.5464 36.3593V51.8103C18.5464 52.4858 18.915 53.11 19.5132 53.4476L33.1982 61.1732C33.4974 61.3419 33.8312 61.4265 34.165 61.4265C34.4988 61.4265 34.8326 61.3421 35.1318 61.1732L48.817 53.4476C49.4152 53.1098 49.7838 52.4858 49.7838 51.8103V37.4509L61.5353 30.8169L73.2869 37.4509V45.9575H77.1541V36.3593C77.1541 35.6839 76.7856 35.0596 76.1873 34.722ZM45.9168 50.7187L34.1652 57.3527L22.4137 50.7187V37.4509L34.1652 30.8169L45.9168 37.4509V50.7187Z" fill="#2B3990"/>
<path d="M89.8725 57.8984L81.3433 53.0835L79.4097 56.3582L87.9389 61.1731C88.2433 61.345 88.5757 61.4268 88.9038 61.4268C89.5721 61.4268 90.2221 61.0877 90.5802 60.4811C91.114 59.5767 90.7973 58.4205 89.8725 57.8984Z" fill="#2B3990"/>
<path d="M75.2205 59.3293C70.9803 59.3293 67.5308 55.9563 67.5308 51.8103C67.5308 47.6644 70.9803 44.2915 75.2205 44.2915C79.4606 44.2915 82.9103 47.6645 82.9103 51.8103C82.9105 55.9564 79.4608 59.3293 75.2205 59.3293ZM75.2205 48.0729C73.1127 48.0729 71.3979 49.7495 71.3979 51.8105C71.3979 53.8714 73.1127 55.5482 75.2205 55.5482C77.3282 55.5482 79.0432 53.8716 79.0432 51.8105C79.0433 49.7495 77.3284 48.0729 75.2205 48.0729Z" fill="#009951"/>
</g>
<defs>
<clipPath id="clip0_1_24991">
<rect width="90" height="88" fill="white" transform="translate(0.839844 0.391602)"/>
</clipPath>
</defs>
</svg>
