<svg width="77" height="75" viewBox="0 0 77 75" fill="none" xmlns="http://www.w3.org/2000/svg">
<g clip-path="url(#clip0_1_25030)">
<path d="M31.8748 24.3296C31.8748 23.1323 32.8454 22.1616 34.0427 22.1616H34.1599C35.3572 22.1616 36.3279 23.1323 36.3279 24.3296C36.3279 25.5269 35.3572 26.4976 34.1599 26.4976H34.0427C32.8454 26.4976 31.8748 25.5269 31.8748 24.3296Z" fill="#F1F4FF"/>
<path d="M64.9821 22.1525C64.9821 21.5448 64.9064 20.9542 64.7673 20.3872L67.0765 19.0891L64.85 15.3341L62.5367 16.6346C61.6585 15.8251 60.5888 15.2116 59.4005 14.8667V12.2705H54.9474V14.8664C53.7591 15.2113 52.6894 15.8248 51.8112 16.6343L49.4978 15.3338L47.2712 19.0889L49.5805 20.3871C49.4414 20.9539 49.3657 21.5446 49.3657 22.1524C49.3657 22.7601 49.4414 23.3507 49.5805 23.9177L47.2712 25.2159L49.4978 28.9709L51.8112 27.6705C52.6894 28.48 53.759 29.0935 54.9474 29.4384V32.0343H59.4005V29.4384C60.5888 29.0935 61.6585 28.48 62.5367 27.6705L64.85 28.9709L67.0765 25.216L64.7673 23.9178C64.9064 23.3508 64.9821 22.7603 64.9821 22.1525ZM57.174 25.4192C55.324 25.4192 53.819 23.9538 53.819 22.1525C53.819 20.3512 55.324 18.8858 57.174 18.8858C59.0239 18.8858 60.5289 20.3512 60.5289 22.1525C60.5289 23.9537 59.0239 25.4192 57.174 25.4192Z" fill="#009951"/>
<path d="M75.0514 22.1527C75.0514 12.5543 67.0316 4.74561 57.1739 4.74561C56.1639 4.74561 55.1737 4.82886 54.209 4.98639C54.1241 3.83506 54.1363 1.61304 54.1378 0.391602H14.0645C14.3877 10.4523 11.7451 16.0016 8.65933 22.1021C5.69637 28.0253 2.63232 34.1501 2.63232 44.4608C2.81668 56.5825 6.84661 72.0113 7.3798 74.3916H28.8839L32.685 51.6249C33.1481 51.7048 33.6216 51.7477 34.1014 51.7477H34.1193C34.5927 51.7467 35.0597 51.7034 35.5172 51.624L39.3182 74.3916H60.8225C61.4192 71.7556 65.367 56.6156 65.57 44.4608C65.57 42.1071 65.4095 39.8994 65.0868 37.7586C70.9857 34.9113 75.0514 28.986 75.0514 22.1527ZM61.1167 44.4608C61.1167 52.5964 58.3363 65.4938 57.2909 70.0557H43.1059L39.6841 49.5601C40.6988 48.6231 41.866 46.6656 42.7579 45.5927L39.2115 42.9702C38.5658 43.7981 37.8965 44.7147 37.1049 45.8552C36.4301 46.8273 35.3102 47.4092 34.1094 47.4118C34.1067 47.4118 34.104 47.4118 34.1014 47.4118C32.8968 47.4118 31.7777 46.8353 31.1068 45.8685C30.3113 44.7221 29.6389 43.8011 28.9907 42.9702L25.4443 45.5927C26.2999 46.5942 27.2743 48.3436 28.5176 49.563L25.0963 70.0557H10.9113C9.86583 65.4954 7.08545 52.6021 7.08545 44.4608C7.08545 35.1499 9.79458 29.7342 12.6627 24.0006C15.3212 18.6862 18.0631 13.2055 18.4667 4.72739H34.1016H49.7364C57.2909 4.72739 49.7967 5.76657 49.84 6.2785C43.6293 9.00957 39.2965 15.0975 39.2965 22.1525C39.2965 24.1978 39.6568 26.1953 40.3684 28.0991L38.9882 39.9062L50.7203 38.3894C52.7773 39.1663 54.9453 39.5596 57.1739 39.5596C58.4136 39.5596 59.6243 39.4359 60.7937 39.2007C61.0086 40.8813 61.1167 42.6189 61.1167 44.4608ZM57.1739 35.2236C55.3012 35.2459 53.1138 34.7522 51.3271 33.9372L44.0578 34.8769L44.9176 27.5208C44.2178 25.98 43.741 23.9842 43.7494 22.1525C43.7494 14.945 49.7715 9.0814 57.1737 9.0814C64.576 9.0814 70.5981 14.945 70.5981 22.1525C70.5981 29.36 64.5762 35.2236 57.1739 35.2236Z" fill="#2B3990"/>
</g>
<defs>
<clipPath id="clip0_1_25030">
<rect width="76" height="74" fill="white" transform="translate(0.841797 0.391602)"/>
</clipPath>
</defs>
</svg>
