<svg width="237" height="82" viewBox="0 0 237 82" fill="none" xmlns="http://www.w3.org/2000/svg">
<g clip-path="url(#clip0_73_13813)">
<path d="M122.948 11.7975H115.019C113.449 8.87969 110.592 7.35626 106.949 7.35626C100.796 7.35626 96.5102 11.7458 96.5102 18.6142C96.5102 25.4825 100.848 29.9753 107.245 29.9753C112.561 29.9753 115.959 26.9156 116.989 22.0225H105.173V16.7421H123.785V22.7713C122.408 29.7817 116.152 36.1982 107.001 36.1982C97.0122 36.1982 89.418 28.9425 89.418 18.6142C89.418 8.28582 96.9993 0.978516 106.949 0.978516C114.633 0.978516 120.734 4.87746 122.948 11.7975Z" fill="#39B54A"/>
<path d="M135.795 20.5373V35.9007H128.896V1.41699H135.795V16.8708L148.293 1.41699H156.608L142.424 18.4975L156.994 35.8749H148.28L135.769 20.5115L135.795 20.5373Z" fill="#39B54A"/>
<path d="M190.936 1.37891V35.9014H184.049L168.449 12.2495V35.9014H161.55V1.37891H168.449L184.049 25.0824V1.37891H190.936Z" fill="#39B54A"/>
<path d="M197.719 1.41699H205.545L216.473 27.0442L227.413 1.41699H235.188V35.8878H228.302V13.4753L219.098 35.9007H213.885L204.631 13.4753V35.9007H197.732V1.41699H197.719Z" fill="#39B54A"/>
<path d="M66.1591 27.9747C66.2621 39.0777 59.5045 50.4905 46.8518 54.738C43.6339 55.8096 40.3387 56.2614 36.9664 56.0807C30.7623 55.7579 25.1374 53.7697 20.3621 49.7417C15.8828 45.9589 12.5877 41.3112 11.0302 35.566C7.97965 24.2823 12.4203 11.9658 21.9453 5.36855C25.6008 2.8381 29.6296 1.21139 34.0446 0.617511C35.4733 0.436765 36.902 0.243109 38.305 0.26893C45.8092 0.436765 52.3479 3.04467 57.7797 8.29921C61.9758 12.3531 64.5115 17.3107 65.6957 22.9913C66.0432 24.6825 66.2234 26.3996 66.172 27.9618L66.1591 27.9747ZM38.2922 0.940271C37.8159 0.966092 37.3268 0.991913 36.8506 1.01773C33.2594 1.15975 29.8356 1.98602 26.5662 3.50945C14.8402 8.94473 8.0054 22.2683 11.854 35.8113C13.7204 42.3827 17.7878 47.3532 23.374 51.1231C27.081 53.6148 31.2128 54.9446 35.6664 55.3319C38.9229 55.6159 42.1279 55.3835 45.2814 54.5444C50.4944 53.15 54.9093 50.3872 58.5005 46.385C64.0095 40.2396 66.2106 32.971 65.3096 24.7858C64.9363 21.4162 63.8293 18.2661 62.2204 15.2708C57.0718 5.75586 47.4438 0.979003 38.2922 0.940271Z" fill="#30378E"/>
<path d="M56.2481 59.7346C56.055 60.4834 55.6302 60.9999 55.0768 61.4259C54.2916 62.0327 53.3777 62.3167 52.4124 62.4587C51.0866 62.6524 49.7608 62.6008 48.435 62.5104C46.4528 62.3684 44.4577 62.278 42.4626 62.2005C41.6775 62.1747 40.9181 62.3425 40.1715 62.7944C40.3002 62.9106 40.3903 63.0268 40.5062 63.1043C41.5616 63.8143 42.7458 64.15 43.9944 64.2533C45.1528 64.3566 46.3112 64.3566 47.4954 64.4082C47.7014 65.2732 47.2122 66.2931 46.3756 66.6934C46.0924 66.8225 45.8479 66.7321 45.5904 66.6417C43.3765 65.8154 41.1626 65.015 38.9616 64.1629C38.3566 63.9305 37.8289 63.9434 37.2368 64.1629C35.0615 65.0021 32.8605 65.7896 30.6852 66.6288C30.2347 66.7966 29.9 66.7321 29.5525 66.4481C28.9346 65.9446 28.6643 65.2861 28.7544 64.3178C31.2901 64.4599 33.813 64.3824 36.1298 62.8719C35.7437 62.4846 35.3318 62.3684 34.9199 62.2909C33.71 62.0714 32.5001 62.1489 31.2901 62.2264C29.2049 62.3555 27.1326 62.6524 25.0474 62.562C24.0821 62.5233 23.1296 62.3813 22.2286 61.994C21.2117 61.555 20.4008 60.8837 20.0146 59.7217C20.5939 59.8121 21.0959 59.9154 21.6107 59.967C23.2454 60.0961 24.8544 59.8767 26.4633 59.6184C27.4415 59.4635 28.4198 59.3344 29.398 59.2828C31.3674 59.1795 33.2209 59.6701 34.9457 60.6125C35.8467 61.1031 36.7348 61.6325 37.5972 62.2005C37.9962 62.4587 38.2536 62.4329 38.6398 62.2005C39.7982 61.5034 40.9567 60.7933 42.1795 60.2123C43.9944 59.3473 45.938 59.0891 47.9459 59.3731C49.2331 59.5539 50.5331 59.7605 51.8203 59.9025C53.1846 60.0445 54.5619 60.0961 55.9263 59.7605C56.0035 59.7346 56.0936 59.7346 56.2352 59.7088L56.2481 59.7346Z" fill="#30378E"/>
<path d="M18.2772 55.7452C17.6465 53.6795 17.698 51.4589 16.797 49.3545C18.0326 49.5869 18.9594 50.142 19.5772 51.0974C20.0792 51.8849 20.4782 52.737 20.8644 53.602C21.1862 54.3379 21.405 55.1125 21.7139 55.8613C21.9971 56.5327 22.3317 57.1782 22.6793 57.9141C22.1901 57.9787 21.6881 58.0303 21.2119 58.1207C20.0921 58.3401 18.9722 58.6113 17.8524 58.8178C16.694 59.0244 15.5355 59.0631 14.3771 58.7404C13.1157 58.3918 12.1246 57.6817 11.4424 56.5198C12.6008 56.4294 13.7206 56.3907 14.8405 56.2616C15.9732 56.1325 17.093 55.9259 18.2514 55.7581L18.2772 55.7452Z" fill="#30378E"/>
<path d="M59.5046 49.3156C58.5779 51.4846 58.6937 53.731 57.9343 55.8354C60.2898 55.8354 62.4908 56.765 64.975 56.3389C64.6919 56.7391 64.5245 57.0361 64.3057 57.2685C63.3918 58.2626 62.2077 58.7273 60.8948 58.8564C59.8135 58.9726 58.7452 58.8823 57.6897 58.6628C56.3253 58.3788 54.961 58.1076 53.5837 57.8365C53.5837 57.8365 53.558 57.772 53.5837 57.7462C54.3817 56.7004 54.7293 55.461 55.154 54.2474C55.4243 53.4857 55.6946 52.7369 56.0422 52.0139C56.7115 50.5938 57.9214 49.8321 59.5046 49.3027V49.3156Z" fill="#30378E"/>
<path d="M13.8366 46.8887C14.8406 47.5858 15.3812 48.5412 15.6258 49.6773C15.7288 50.1163 15.7545 50.5811 15.7803 51.0458C15.8704 52.324 15.9476 53.6021 16.0248 54.919C15.5743 54.8544 15.0852 54.7769 14.5832 54.7253C13.3347 54.5833 12.0861 54.48 10.8376 54.2993C10.1554 54.2089 9.5118 53.9636 8.94545 53.5246C8.26326 52.9953 7.88999 52.3111 7.72266 51.4331C8.35336 51.5881 8.91971 51.7688 9.49893 51.8592C9.92369 51.9237 10.3613 51.885 10.799 51.885C11.597 51.885 12.395 51.885 13.296 51.885C13.4634 50.297 13.6436 48.6316 13.8238 46.8887H13.8366Z" fill="#30378E"/>
<path d="M62.9668 51.9882C63.8678 51.7687 64.7044 51.8462 65.554 51.9236C66.3134 52.0011 67.0599 51.8849 67.7807 51.6525C67.9996 51.588 68.2055 51.4976 68.4887 51.3943C68.4758 51.588 68.4887 51.7429 68.4501 51.8849C68.0124 53.318 66.9312 54.0151 65.554 54.3121C64.9104 54.4412 64.2411 54.5186 63.5846 54.5832C62.4648 54.6994 61.3578 54.7898 60.1865 54.893C60.1865 54.7898 60.2123 54.6477 60.238 54.5057C60.3024 53.7569 60.3796 52.9952 60.444 52.2464C60.5212 51.3814 60.5341 50.5035 60.6885 49.6514C60.9073 48.4507 61.5638 47.5212 62.4777 46.9531C62.5549 47.8052 62.6321 48.6444 62.7094 49.4707C62.7866 50.2969 62.8767 51.1103 62.9668 52.014V51.9882Z" fill="#30378E"/>
<path d="M4.62012 45.6875C6.13896 46.6687 7.85088 46.7462 9.36972 47.4304C9.61428 46.6816 9.85884 45.9457 10.0777 45.2228C10.2965 44.4998 10.5024 43.7768 10.7341 42.9893C11.4292 43.5186 11.8282 44.2416 12.047 45.0678C12.2272 45.765 12.1757 46.4751 12.0985 47.1851C11.9698 48.2954 11.9183 49.4187 11.8411 50.5806C10.1806 50.0254 8.37861 49.7672 6.7568 48.9151C5.66271 48.3342 4.92903 47.4692 4.68447 46.2427C4.65873 46.1136 4.65873 45.9716 4.63299 45.6875H4.62012Z" fill="#30378E"/>
<path d="M65.516 42.9893C65.9665 44.4869 66.4041 45.8941 66.8675 47.3917C68.4121 46.7978 70.124 46.6687 71.6557 45.6746C71.5785 46.8882 71.1409 47.8178 70.2399 48.4504C69.622 48.8764 68.9398 49.225 68.2319 49.4703C66.9834 49.8963 65.6962 50.232 64.3704 50.6193C64.3704 50.4257 64.3704 50.2836 64.3704 50.1287C64.3061 49.0313 64.2546 47.9339 64.1516 46.8366C64.01 45.4293 64.319 44.1899 65.3229 43.17C65.3873 43.1055 65.4516 43.0538 65.5289 42.9893H65.516Z" fill="#30378E"/>
<path d="M67.6136 37.9026C68.1156 39.4905 68.5919 40.9882 69.081 42.5374C70.5355 41.6724 72.1573 41.2334 73.4702 40.0586C73.4959 40.2652 73.5474 40.4072 73.5474 40.5492C73.483 41.9693 72.8781 43.1055 71.7068 43.9188C71.2563 44.2287 70.78 44.5127 70.2909 44.7451C69.3899 45.1969 68.4889 45.5972 67.5493 46.0361C67.4205 45.2873 67.3047 44.5772 67.1631 43.8672C66.9958 43.0409 66.7641 42.2146 66.6354 41.3755C66.4552 40.1232 66.8156 38.987 67.6136 37.8896V37.9026Z" fill="#30378E"/>
<path d="M2.76703 40.0327C4.07993 41.2463 5.74036 41.6336 7.18198 42.5889C7.6711 41.0268 8.13447 39.5034 8.62359 37.9541C8.71369 38.0445 8.81667 38.1348 8.89389 38.251C9.69193 39.4775 9.80777 40.8202 9.49886 42.2275C9.21568 43.5056 8.94538 44.7708 8.66221 46.0748C7.34931 45.3905 5.94631 44.7321 4.63341 43.9445C3.20467 43.0795 2.61257 41.7369 2.76703 40.0456V40.0327Z" fill="#30378E"/>
<path d="M6.38323 40.485C5.43073 39.904 4.5426 39.3876 3.6802 38.8325C3.16534 38.4968 2.65048 38.1224 2.22572 37.6963C1.29896 36.7797 0.951432 35.6565 1.19599 34.2751C1.63362 34.6495 1.99403 35.011 2.39305 35.3079C2.79206 35.6048 3.24257 35.8372 3.66733 36.1084C4.10496 36.3924 4.5426 36.6764 5.00597 36.9733C5.58519 35.6178 6.15154 34.2751 6.76937 32.8291C6.91096 33.0744 7.03968 33.2551 7.14265 33.4617C7.56741 34.3784 7.54167 35.3466 7.34859 36.302C7.05255 37.6963 6.70502 39.0648 6.38323 40.485Z" fill="#30378E"/>
<path d="M71.2816 36.9993C72.5302 36.0697 73.9332 35.5017 75.0272 34.3268C75.0787 34.5334 75.1431 34.6625 75.1431 34.8045C75.1946 36.0181 74.7955 37.0638 73.8817 37.8772C73.4955 38.2258 73.0579 38.5356 72.6074 38.8197C71.7321 39.3619 70.844 39.8654 69.8915 40.4335C69.8143 40.0332 69.7499 39.6717 69.6598 39.2973C69.3895 38.2516 69.0806 37.2188 68.8618 36.173C68.6172 35.0369 68.8231 33.9524 69.5053 32.8809C70.1103 34.2881 70.6895 35.6179 71.2816 37.0122V36.9993Z" fill="#30378E"/>
<path d="M72.093 35.334C71.6039 34.4432 71.1534 33.6169 70.7029 32.7906C70.291 32.0418 69.9306 31.2801 69.8148 30.4151C69.7375 29.86 69.8148 29.3306 70.0078 28.7368C70.8573 29.8471 71.6554 30.8928 72.492 31.9902C73.3544 30.867 74.5386 30.0924 75.1436 28.7109C75.6327 29.563 75.6842 30.3764 75.4139 31.1768C75.2208 31.7449 74.9119 32.3259 74.5257 32.7906C73.7663 33.6815 72.9168 34.4819 72.093 35.334Z" fill="#30378E"/>
<path d="M3.77079 32.0028C4.59456 30.9312 5.3926 29.8726 6.22925 28.7881C6.56391 29.5111 6.53817 30.247 6.3451 30.9699C6.19064 31.538 5.93321 32.0932 5.6629 32.6225C5.19953 33.5133 4.69754 34.3912 4.19555 35.3078C4.11832 35.2433 4.00247 35.1529 3.8995 35.0496C3.28167 34.4041 2.65096 33.7715 2.046 33.1131C1.51826 32.5321 1.06776 31.8995 0.861814 31.112C0.655869 30.3373 0.694483 29.5756 1.02914 28.8397C1.94302 29.8855 2.83116 30.9183 3.77079 32.0028Z" fill="#30378E"/>
<path d="M1.96877 23.7529C2.56086 24.8761 3.11434 25.9219 3.7193 27.0451C4.71041 26.335 5.57281 25.5087 6.55105 24.6825C6.65402 25.6895 6.38372 26.4899 5.8946 27.2258C5.68865 27.5357 5.45696 27.8068 5.2124 28.0908C4.63318 28.7622 4.02822 29.4206 3.449 30.0661C3.01137 29.3819 2.54799 28.6718 2.11036 27.9488C1.63411 27.1742 1.28658 26.3608 1.33807 25.4313C1.37668 24.7987 1.5955 24.2435 1.96877 23.7529Z" fill="#30378E"/>
<path d="M69.7246 24.6952C70.7028 25.5085 71.6039 26.2702 72.5564 27.0707C73.1484 25.9604 73.7148 24.8759 74.3069 23.7656C74.5901 23.9593 74.7059 24.3466 74.8346 24.721C75.0792 25.4569 75.0019 26.1799 74.7188 26.877C74.5386 27.316 74.294 27.742 74.0495 28.1552C73.6633 28.8007 73.2643 29.4462 72.8781 30.0659C72.1959 29.3042 71.5009 28.5554 70.8316 27.7808C70.085 26.9158 69.6603 25.9217 69.7375 24.6823L69.7246 24.6952Z" fill="#30378E"/>
<path d="M72.3113 25.3538C71.5648 24.7212 70.8182 24.1144 70.0974 23.4947C69.338 22.8363 68.7588 22.0487 68.6172 21.0159C68.6172 20.9384 68.6172 20.8481 68.6172 20.7448C69.6212 21.3516 70.5865 21.9454 71.5905 22.5651C71.9895 21.4032 72.3499 20.3058 72.7232 19.1826C73.5985 19.996 73.7529 21.0417 73.5212 22.1778C73.444 22.5522 73.3024 22.9266 73.1608 23.2881C72.8905 23.9853 72.5945 24.6695 72.3113 25.3538Z" fill="#30378E"/>
<path d="M3.56519 19.2082C3.93846 20.3185 4.31174 21.3901 4.71076 22.552C5.70187 21.9452 6.65436 21.3514 7.6326 20.7446C7.7227 21.2481 7.56824 21.6741 7.33656 22.0227C7.01477 22.5262 6.65436 23.0039 6.2296 23.4041C5.52167 24.0755 4.7365 24.6822 3.93846 25.3665C3.53945 24.2691 3.07607 23.1975 2.75428 22.0872C2.43249 20.9253 2.75428 19.9828 3.55232 19.1953L3.56519 19.2082Z" fill="#30378E"/>
<path d="M7.95433 14.9873C8.41771 17.0142 7.3365 18.9895 5.54735 19.506C5.04536 17.9438 6.19093 15.7878 7.95433 14.9873Z" fill="#30378E"/>
<path d="M70.7671 19.4797C68.9779 19.0666 67.7938 16.9105 68.3086 15.0127C69.9819 15.6066 71.1146 17.6722 70.7671 19.4797Z" fill="#30378E"/>
<path d="M38.4727 50.4778C29.2953 50.155 22.5763 46.127 18.2386 38.2645C16.3336 34.8045 15.6257 31.0218 15.8188 27.0841C16.3465 16.3297 24.3655 8.05414 33.8518 6.40161C42.4371 4.89109 49.6838 7.40862 55.3602 14.0704C58.1533 17.3496 59.8781 21.2228 60.3157 25.5478C61.0365 32.5323 59.0028 38.626 54.0859 43.6998C50.7136 47.1727 46.5947 49.2513 41.8708 50.1292C40.6866 50.3487 39.4638 50.3874 38.4598 50.4778H38.4727ZM59.8266 27.8329C59.7108 26.8646 59.6593 25.4574 59.3761 24.0889C57.7929 16.6912 53.4938 11.4496 46.6333 8.35108C42.2956 6.40161 37.7648 6.19504 33.1696 7.2537C21.1476 10.0036 14.4672 22.0232 17.0673 33.152C19.3327 42.8606 28.922 51.02 40.7252 49.6128C44.6382 49.148 48.165 47.715 51.2799 45.2749C56.8018 40.9628 59.6464 35.2951 59.8395 27.8458L59.8266 27.8329Z" fill="#30378E"/>
<path d="M45.7453 3.08312C46.0027 3.14767 46.2601 3.22513 46.5819 3.3026C46.2859 4.39998 46.0027 5.45864 45.7067 6.58184C45.5007 6.54311 45.3205 6.50438 45.076 6.46565C45.269 5.71685 45.4492 5.03259 45.6166 4.36125L45.5265 4.2967C45.2948 4.63237 45.0502 4.95513 44.8185 5.2908C44.6641 5.51028 44.5354 5.76849 44.3423 5.96214C44.2393 6.06543 44.0334 6.1558 43.8918 6.12998C43.7888 6.11707 43.6601 5.92341 43.6344 5.79431C43.5829 5.407 43.5829 5.01968 43.5442 4.63237C43.5185 4.36125 43.4799 4.10304 43.3254 3.83192C43.1452 4.49036 42.965 5.13588 42.772 5.84595C42.5531 5.79431 42.3858 5.75558 42.167 5.69103C42.463 4.58073 42.7462 3.50916 43.0551 2.37305C43.3641 2.45051 43.6215 2.52797 43.9047 2.59252C43.9819 3.45752 44.0462 4.28379 44.1235 5.12297C44.1621 5.13588 44.2136 5.1617 44.2522 5.17461C44.7413 4.49036 45.2176 3.81901 45.7324 3.09603L45.7453 3.08312Z" fill="#30378E"/>
<path d="M35.8336 4.11675C35.9365 3.53578 36.0524 2.95481 36.1425 2.37384C36.1811 2.08981 36.2969 1.94779 36.6702 2.03817C36.889 2.67078 37.1207 3.34212 37.3395 4.01346C37.391 4.01346 37.4425 4.00055 37.4811 3.98764C37.597 3.3163 37.7257 2.65787 37.8544 1.92197C38.0217 1.89615 38.2019 1.88324 38.3821 1.85742C38.4208 1.94779 38.4594 1.98653 38.4594 2.02526C38.2534 3.00645 38.0346 4.00055 37.8158 4.98174C37.7772 5.18831 37.7514 5.40779 37.4683 5.39488C37.1851 5.39488 37.1722 5.16249 37.1079 4.96883C36.9534 4.47824 36.7861 4.00055 36.6316 3.50996C36.5801 3.50996 36.5286 3.50996 36.4643 3.52287C36.3484 4.14257 36.2326 4.74936 36.1039 5.38197C35.8336 5.53689 35.6019 5.60144 35.4603 5.21413C35.0999 4.22003 34.7395 3.22593 34.3662 2.19309C34.585 2.15436 34.7524 2.12854 34.9712 2.08981C35.2029 2.77406 35.4346 3.4454 35.6534 4.10384C35.7049 4.10384 35.7563 4.10384 35.8078 4.10384L35.8336 4.11675Z" fill="#30378E"/>
<path d="M17.324 16.3163C17.0924 16.7036 16.8864 17.0522 16.6547 17.4395C16.5131 17.375 16.3587 17.3104 16.1399 17.2071C16.4874 16.5487 16.8092 15.929 17.131 15.3093C18.0062 15.645 18.3538 16.4325 18.0706 17.3879C17.7617 18.3691 16.8478 18.9113 15.8696 18.6918C15.02 18.4982 14.4408 17.5428 14.5953 16.6003C14.7626 15.5933 15.4319 15.0382 16.3973 15.1027C16.3329 15.4642 16.1785 15.7224 15.8052 15.8644C15.4062 16.0194 15.2002 16.3421 15.1487 16.7682C15.0844 17.2717 15.3032 17.7106 15.728 17.9172C16.2042 18.1496 16.8607 18.0334 17.2597 17.6332C17.6072 17.2846 17.633 16.9489 17.324 16.3292V16.3163Z" fill="#30378E"/>
<path d="M52.0258 5.89746C52.6823 6.28477 52.6694 6.28477 52.5922 6.89156C52.5149 7.55 52.4634 8.20843 52.3991 8.94432C52.7981 8.69902 52.9397 8.33753 53.1714 8.04059C53.3902 7.75656 53.5961 7.44671 53.8278 7.12395C54.0209 7.25306 54.1625 7.35634 54.3427 7.48544C53.6862 8.4279 53.0427 9.34454 52.412 10.2483C51.8842 10.145 51.7812 9.82223 51.8199 9.38328C51.8842 8.69902 51.9357 8.02768 52.0001 7.17559C51.3694 7.8082 51.0476 8.45373 50.5842 9.0476C50.4169 8.93141 50.2753 8.84104 50.0693 8.69902C50.7258 7.75656 51.3565 6.83992 52.0129 5.89746H52.0258Z" fill="#30378E"/>
<path d="M56.2354 14.2377C57.2007 13.5405 58.0889 12.9079 59.0156 12.2236C59.273 12.5851 59.5433 12.895 59.7493 13.2436C60.2127 14.0311 59.981 14.9606 59.2344 15.49C58.5136 16.0064 57.574 15.9289 56.9948 15.2834C56.7245 14.9736 56.5057 14.6121 56.2354 14.2247V14.2377ZM58.8998 13.1274C58.3077 13.5405 57.6641 13.902 57.1621 14.4442C57.7671 15.2189 58.3463 15.3867 58.874 14.9736C59.4275 14.5475 59.4661 13.7729 58.9126 13.1274H58.8998Z" fill="#30378E"/>
<path d="M41.7801 5.54952H41.1237C41.0078 5.25258 40.892 4.98146 40.7633 4.64579C40.5444 4.63288 40.287 4.64579 40.0425 4.59415C39.6692 4.54251 39.4246 4.68452 39.2959 5.0331C39.1543 5.4075 38.9226 5.5237 38.5107 5.31713C38.5494 5.20094 38.5622 5.07183 38.6137 4.95564C39.0385 4.09064 39.4761 3.22564 39.9009 2.37355C39.991 2.19281 40.0553 1.97333 40.3256 1.99915C40.5831 2.02497 40.6345 2.21863 40.7118 2.4252C41.0593 3.44512 41.4068 4.46504 41.7801 5.53661V5.54952ZM40.3514 3.18691C40.3514 3.18691 40.2484 3.16109 40.1969 3.16109C40.0939 3.39348 39.9781 3.63878 39.8494 3.93572H40.5573C40.4801 3.65169 40.4286 3.43221 40.3642 3.19982L40.3514 3.18691Z" fill="#30378E"/>
<path d="M54.9997 11.4877C54.7036 11.2166 54.4205 10.9584 54.163 10.7131C53.6868 10.7131 53.1977 11.3715 52.8115 10.5711C52.9274 10.5065 53.0303 10.4291 53.1462 10.3774C54.0215 9.97721 54.8838 9.58989 55.7591 9.18967C55.9393 9.11221 56.1195 8.9831 56.3255 9.18967C56.5314 9.38333 56.4284 9.57698 56.3641 9.75773C56.0037 10.7647 55.6304 11.7718 55.2571 12.7788C54.8796 12.598 54.7937 12.172 54.9997 11.5006V11.4877ZM55.6047 10.0676C55.6047 10.0676 55.5274 10.003 55.4888 9.9643C55.27 10.0805 55.0383 10.2096 54.6908 10.3903C54.8838 10.5969 55.0126 10.726 55.2056 10.9455C55.3858 10.5453 55.4888 10.3 55.5918 10.0676H55.6047Z" fill="#30378E"/>
<path d="M61.1006 15.4131C61.2036 15.5938 61.2679 15.7229 61.3838 15.9295C60.8432 16.2135 60.3155 16.4847 59.8006 16.7687C59.5818 16.8849 59.3501 17.0011 59.157 17.156C58.9382 17.3367 58.8867 17.6208 59.0669 17.8273C59.1699 17.9435 59.4402 18.0081 59.6075 17.9694C59.9293 17.879 60.2382 17.7111 60.5471 17.5691C60.9719 17.3626 61.3967 17.1302 61.86 16.8849C61.963 17.0527 62.066 17.1947 62.1947 17.4013C61.4868 17.7886 60.8046 18.1759 60.1224 18.5374C59.7877 18.7052 59.4273 18.7311 59.0669 18.5632C58.2303 18.1888 58.0758 17.1818 58.7966 16.6008C59.0026 16.433 59.26 16.3039 59.5045 16.1877C60.0065 15.9295 60.5214 15.6842 61.1006 15.4131Z" fill="#30378E"/>
<path d="M30.0931 3.21254C30.3505 3.13508 30.5307 3.09635 30.6852 3.05762C30.8911 3.54821 31.0842 4.01299 31.2644 4.49067C31.3673 4.7747 31.4703 5.05873 31.5218 5.34276C31.6505 6.00119 31.3159 6.51761 30.6852 6.72418C30.0673 6.91783 29.5911 6.69836 29.2693 6.07866C29.1921 5.91082 29.1148 5.74299 29.0633 5.56224C28.896 4.96836 28.7415 4.37448 28.5742 3.74187C28.7415 3.67732 28.8831 3.61277 29.1148 3.50948C29.3079 4.09045 29.4752 4.65851 29.6683 5.21366C29.7455 5.43313 29.8099 5.65261 29.9129 5.85918C30.0416 6.11739 30.2733 6.22067 30.5436 6.14321C30.8267 6.06575 30.8654 5.82045 30.8267 5.58806C30.7753 5.25239 30.7109 4.90381 30.6079 4.58105C30.4663 4.14209 30.299 3.72896 30.1059 3.21254H30.0931Z" fill="#30378E"/>
<path d="M20.4004 8.84136C20.5548 8.68643 20.6707 8.58315 20.8509 8.42823C21.0955 8.71226 21.3271 8.98337 21.5588 9.25449C21.7648 9.49979 21.945 9.758 22.1509 10.0033C22.5371 10.4552 22.8331 10.5455 23.1292 10.3131C23.4381 10.0808 23.4252 9.758 23.0519 9.29322C22.7945 8.97046 22.4985 8.67352 22.2282 8.36367C22.048 8.15711 21.8806 7.95054 21.6875 7.71815C21.8549 7.58905 21.9965 7.47285 22.1509 7.34375C22.6787 7.92472 23.2193 8.46696 23.6826 9.04793C24.1203 9.59016 24.0945 10.0808 23.7341 10.5584C23.2707 11.1652 22.4856 11.2427 21.945 10.6746C21.3915 10.0937 20.9153 9.44815 20.4004 8.81554V8.84136Z" fill="#30378E"/>
<path d="M19.5122 11.5144C19.4607 11.14 19.435 10.7656 19.3449 10.4041C19.2419 10.0167 19.3063 9.73272 19.731 9.53906C20.0271 10.1329 19.937 10.8172 20.1429 11.4885C20.8122 11.5918 21.4815 11.6822 22.2024 11.7984C21.9964 12.2115 21.7647 12.3923 21.3271 12.2761C20.9409 12.1728 20.5291 12.1599 19.9756 12.0824C20.3746 12.4955 20.6706 12.7925 21.031 13.1669C20.8895 13.3347 20.7607 13.4509 20.6192 13.6188C19.731 12.7667 18.9458 12.005 18.1221 11.2174C18.225 11.0496 18.328 10.8817 18.4825 10.6494C18.83 10.985 19.1261 11.282 19.4221 11.5789C19.4607 11.566 19.4865 11.5531 19.5251 11.5402L19.5122 11.5144Z" fill="#30378E"/>
<path d="M33.7097 3.29001C33.3751 3.21255 33.1434 3.13508 32.9117 3.13508C32.7572 3.13508 32.5255 3.18672 32.4483 3.29001C32.3067 3.50949 32.4869 3.67732 32.6929 3.75478C32.9503 3.84516 33.2206 3.88389 33.4909 3.96135C33.9028 4.07754 34.1731 4.33575 34.2246 4.77471C34.2761 5.21366 34.0573 5.52351 33.7097 5.7559C33.0147 6.22067 32.3968 6.03993 32.0107 5.21366C32.2552 5.21366 32.4612 5.20075 32.6543 5.21366C32.8087 5.22657 32.9503 5.32985 33.1048 5.34277C33.3365 5.36859 33.5038 5.27821 33.5424 5.02C33.5681 4.78762 33.4909 4.59396 33.2721 4.52941C33.0275 4.45195 32.783 4.42613 32.5384 4.37448C31.9463 4.23247 31.6889 3.93553 31.7146 3.44493C31.7533 2.95434 32.1909 2.51538 32.7058 2.43792C33.1563 2.37337 33.4394 2.57993 33.7097 3.29001Z" fill="#30378E"/>
<path d="M25.627 5.14947C26.0517 4.73634 26.5151 4.60723 26.9913 4.52977C27.5191 4.4394 27.9696 4.6976 28.124 5.09783C28.3171 5.60133 28.1498 6.13066 27.7121 6.4276C27.5577 6.53088 27.4032 6.60835 27.1973 6.73745C27.2874 6.93111 27.3646 7.09894 27.4547 7.27969C27.5448 7.46044 27.622 7.65409 27.725 7.87357C27.5577 7.96394 27.4032 8.05432 27.1844 8.18342C26.6567 7.1635 26.1547 6.16939 25.627 5.14947ZM26.8498 6.13066C27.4676 5.89827 27.6349 5.70462 27.5319 5.40768C27.4161 5.09783 27.0557 5.08492 26.5022 5.39477C26.6181 5.62716 26.721 5.85954 26.8498 6.13066Z" fill="#30378E"/>
<path d="M24.8416 8.17065C25.0476 8.51923 25.2406 8.84199 25.4466 9.21639C25.2793 9.33259 25.1377 9.42296 24.9446 9.56497C24.3268 8.58378 23.7347 7.64132 23.1426 6.69886C23.5802 6.15662 24.1466 5.97588 24.7387 5.93714C25.1248 5.91132 25.4723 6.07916 25.6268 6.46647C25.7941 6.90543 25.7555 7.33147 25.4208 7.69296C25.2535 7.87371 25.0347 8.01572 24.8288 8.18356L24.8416 8.17065ZM24.4941 7.57677C25.009 7.26692 25.1505 6.95707 24.9189 6.69886C24.8545 6.6214 24.7129 6.54393 24.6228 6.55685C24.4169 6.59558 24.2238 6.67304 23.9664 6.76341C24.1852 7.09908 24.3396 7.33147 24.4941 7.56386V7.57677Z" fill="#30378E"/>
<path d="M29.591 50.0002C30.1059 50.4004 29.4495 50.9943 29.7712 51.4849C29.9514 51.1622 30.1059 50.8781 30.2861 50.5812C30.4277 50.3488 30.4277 50.3488 30.9039 50.4134C30.8653 50.8781 30.8267 51.3429 30.7881 51.8077L30.8782 51.8464C31.0713 51.5236 31.2643 51.188 31.4445 50.8523C31.5861 50.607 31.7406 50.5941 31.9594 50.8136C31.5604 51.4978 31.1614 52.1821 30.7366 52.918C30.5693 52.8663 30.4406 52.8147 30.2861 52.763C30.3247 52.3112 30.3633 51.8851 30.3891 51.4462C30.3505 51.4333 30.299 51.4075 30.2604 51.3945C30.1059 51.6786 29.9386 51.9626 29.7841 52.2466C29.694 52.4145 29.6039 52.5694 29.3594 52.5048C29.1019 52.4403 29.1405 52.2337 29.1534 52.0659C29.2178 51.3816 29.3079 50.7103 29.3722 50.026C29.4366 50.0131 29.5138 50.0002 29.5782 49.9873L29.591 50.0002Z" fill="#30378E"/>
<path d="M43.6469 51.8075C43.6469 52.4531 43.6469 52.9308 43.6469 53.4213C43.6469 53.4343 43.531 53.4472 43.3637 53.4859C43.2736 52.6855 43.1964 51.8979 43.1191 51.1362C43.4409 50.8909 43.6469 50.9426 43.8142 51.2524C43.9944 51.5881 44.2003 51.9108 44.3934 52.2336C44.4449 52.2336 44.4835 52.2078 44.535 52.1949C44.5479 51.7946 44.5736 51.3944 44.5865 50.9942C44.5865 50.6198 44.7796 50.5165 45.1657 50.6069C45.436 51.2911 45.7192 51.9883 46.0152 52.7242C45.8737 52.7887 45.7707 52.8404 45.6291 52.9049C45.436 52.4402 45.2687 52.0012 45.0756 51.5235C44.7924 52.0916 45.2043 52.7629 44.5736 53.2535C44.2647 52.7629 44.0073 52.324 43.6726 51.7817L43.6469 51.8075Z" fill="#30378E"/>
<path d="M47.6367 7.47297C47.3792 7.34386 47.2248 7.2664 47.0703 7.17603C47.6495 6.24648 47.6367 5.29111 47.4307 4.30992C47.3921 4.11626 47.4307 3.90969 47.4307 3.70312C48.0485 3.83223 48.0485 3.83223 48.0743 4.30992C48.0872 4.68432 48.1 5.07163 48.1129 5.58805C48.5377 5.23947 48.8466 4.98126 49.1555 4.72305C49.4258 4.47775 49.6704 4.49066 49.9793 4.81342C49.1555 5.61387 47.9585 6.11737 47.6495 7.47297H47.6367Z" fill="#30378E"/>
<path d="M51.769 48.6443C51.8462 48.7734 51.8977 48.8638 51.9749 48.98C51.6531 49.1994 51.3571 49.406 51.0224 49.6384C51.0997 49.7804 51.1769 49.9095 51.2799 50.0774C51.6403 49.8708 51.9749 49.69 52.3353 49.4835C52.4126 49.5997 52.4898 49.703 52.5928 49.8579C52.0779 50.1677 51.6016 50.4647 51.061 50.7874C50.6363 50.0774 50.2373 49.4189 49.8125 48.7088C50.3274 48.3861 50.8036 48.1021 51.3185 47.7793C51.4086 47.9342 51.4729 48.0375 51.5502 48.1666C51.2026 48.399 50.8808 48.6185 50.5333 48.8509C50.6234 48.9929 50.6878 49.0962 50.765 49.2124C51.0997 49.0187 51.4214 48.838 51.7561 48.6443H51.769Z" fill="#30378E"/>
<path d="M23.8119 48.3987C24.3267 47.8565 24.6957 47.6198 24.9188 47.6887C24.5069 48.3858 24.005 48.9926 23.5544 49.6381C23.297 49.509 23.1983 48.9453 23.2584 47.9469C22.8723 48.1792 22.7564 48.6182 22.4346 48.8893C22.3445 48.8377 22.2287 48.7731 22.0742 48.6957C22.5633 48.0114 23.0267 47.3788 23.5287 46.6816C24.2109 47.211 23.5544 47.8565 23.8248 48.3987H23.8119Z" fill="#30378E"/>
<path d="M55.1409 45.0422C55.2568 45.1842 55.334 45.2875 55.4241 45.3908C55.1023 45.6619 54.8191 45.9072 54.4974 46.1783C54.6132 46.4107 54.7033 46.5786 54.9607 46.3849C55.1409 46.2558 55.3083 46.075 55.5142 45.9718C55.6043 45.9201 55.7588 45.9718 55.8875 45.9976C55.9003 46.0492 55.9132 46.1009 55.939 46.1525C55.6558 46.3978 55.3726 46.656 55.0766 46.9271C55.1924 47.0691 55.2825 47.1853 55.3984 47.3144C55.733 47.0691 56.0419 46.8368 56.3766 46.5915C56.4796 46.7206 56.5568 46.8109 56.6598 46.953C56.1964 47.3144 55.7459 47.663 55.2568 48.0374C54.7419 47.379 54.2657 46.7851 53.7637 46.1396C54.2399 45.7523 54.6904 45.4037 55.1538 45.0293L55.1409 45.0422Z" fill="#30378E"/>
<path d="M47.7396 49.6389C48.5505 49.3033 48.8208 50.1812 49.4515 50.2328C49.2971 49.8455 49.1426 49.4711 48.9882 49.1225C49.2327 48.8514 49.3743 48.903 49.503 49.1871C49.7733 49.7938 50.0565 50.3877 50.3268 50.9816C50.1466 51.3044 49.9406 51.2785 49.6961 51.0978C49.3872 50.8783 49.0783 50.6588 48.7693 50.4523C48.7307 50.4781 48.6921 50.5039 48.6535 50.5427C48.7822 50.8267 48.9109 51.0978 49.0396 51.3818C49.1555 51.64 49.0654 51.7691 48.7307 51.8079C48.4089 51.1236 48.0871 50.4265 47.7139 49.6518L47.7396 49.6389Z" fill="#30378E"/>
<path d="M22.8201 46.7853C22.4983 46.5271 22.2023 46.2947 21.8934 46.0365C21.7904 46.1527 21.7261 46.2301 21.6102 46.3592C21.8419 46.5787 22.0478 46.7724 22.2538 46.9789C22.4469 47.1726 22.3568 47.3017 22.1251 47.4308C21.8548 47.2242 21.5845 47.0047 21.2627 46.7465C21.1468 46.8885 21.0567 46.9918 20.928 47.1597C21.2241 47.4179 21.4944 47.6632 21.7904 47.9343C21.7003 48.0634 21.6231 48.1667 21.5072 48.3216C21.0696 47.9343 20.6706 47.5857 20.1943 47.1726C20.7349 46.5529 21.2498 45.959 21.8162 45.3135C22.2152 45.6621 22.5884 45.9719 22.9617 46.3076C23.1548 46.4883 23.0647 46.6303 22.8201 46.7853Z" fill="#30378E"/>
<path d="M35.383 51.3557C35.6833 51.3901 35.8506 51.6957 35.8849 52.2723C36.0652 52.3111 36.2582 52.3498 36.4899 52.4014C36.58 52.0787 36.6572 51.7688 36.7473 51.4461C36.9018 51.4848 37.0305 51.5106 37.1978 51.5493C37.0949 52.3369 37.0048 53.0986 36.9147 53.8732H36.4513V52.892C36.2325 52.8533 36.0265 52.8146 35.782 52.7629C35.7047 53.1244 35.6404 53.4214 35.5632 53.757C35.4087 53.7441 35.28 53.7312 35.0869 53.7183C35.1899 52.9049 35.2929 52.1303 35.383 51.3428V51.3557Z" fill="#30378E"/>
<path d="M53.6483 47.8436C53.4295 47.4821 53.2107 47.1336 53.0176 46.7979C53.185 46.5655 53.3394 46.488 53.5196 46.7462C53.8929 47.3143 54.2662 47.8953 54.6395 48.4633C54.3563 48.9281 54.0731 48.657 53.8157 48.5408C53.5454 48.4117 53.2751 48.2826 52.9147 48.218C53.1077 48.5537 53.3137 48.8894 53.5325 49.2509C53.4295 49.3412 53.3394 49.4187 53.1978 49.5349C52.7473 48.8377 52.3226 48.1922 51.8721 47.4951C52.6057 47.0045 53.0176 47.8953 53.6612 47.8307L53.6483 47.8436Z" fill="#30378E"/>
<path d="M26.9398 48.8379C27.4289 49.0703 27.8408 49.2639 28.2527 49.4705C28.4586 49.5738 28.4458 49.5867 28.3299 49.9998C27.9695 49.8578 27.622 49.7029 27.2616 49.5609C27.0685 49.7287 26.9269 49.8965 27.2616 50.0773C27.5061 50.2064 27.7378 50.3226 27.9824 50.4388C27.8622 50.6712 27.4761 50.6626 26.8239 50.413C26.7467 50.5421 26.6566 50.6841 26.5536 50.8519C26.8626 51.0068 27.12 51.1489 27.3903 51.278C27.6735 51.4071 27.6477 51.562 27.3903 51.8073C26.914 51.5749 26.4121 51.3425 25.8457 51.0843C26.2061 50.3355 26.5408 49.6383 26.914 48.8508L26.9398 48.8379Z" fill="#30378E"/>
<path d="M38.9485 52.3497H39.6822V51.4847C39.9654 51.3814 40.1842 51.3556 40.21 51.6912C40.2486 52.3109 40.2743 52.9306 40.2872 53.5503C40.2872 53.8344 40.1199 53.8989 39.8109 53.8214C39.7852 53.5374 39.7466 53.2276 39.708 52.8661C39.4763 52.879 39.2575 52.8919 39.0129 52.9048V53.8473C38.8584 53.8731 38.7297 53.8989 38.5109 53.9376C38.4594 53.1372 38.4079 52.3626 38.3564 51.5621C38.5366 51.5363 38.6782 51.5105 38.8713 51.4847C38.8971 51.7816 38.9357 52.0269 38.9614 52.3368L38.9485 52.3497Z" fill="#30378E"/>
<path d="M41.9216 51.239C42.1919 51.1357 42.3978 51.097 42.4364 51.3939C42.5137 51.8716 42.5909 52.3493 42.6166 52.827C42.6295 53.3563 42.3463 53.6791 41.883 53.7436C41.4324 53.8211 41.0849 53.5887 40.9433 53.0594C40.8146 52.5558 40.7503 52.0265 40.6602 51.4714C40.8532 51.4326 40.9948 51.4068 41.175 51.3681C41.2522 51.7941 41.3037 52.1685 41.381 52.5429C41.4067 52.6979 41.4196 52.8786 41.5097 52.9948C41.5869 53.0981 41.7542 53.1885 41.883 53.2014C41.9602 53.2014 42.0889 53.0206 42.1018 52.9173C42.1018 52.6462 42.076 52.3751 42.0503 52.104C42.0245 51.82 41.9859 51.523 41.9473 51.239H41.9216Z" fill="#30378E"/>
<path d="M48.2677 51.949C47.8558 52.2976 47.7014 51.9748 47.4954 51.8328C47.1222 51.9232 46.7618 51.9749 46.7618 52.4913C46.7618 52.5558 46.5558 52.6204 46.3499 52.7366C46.3113 51.9103 46.2726 51.1615 46.2598 50.4127C46.2598 50.2965 46.4142 50.1287 46.5301 50.0899C46.6459 50.0512 46.8647 50.0899 46.942 50.1932C47.3925 50.7613 47.8172 51.3552 48.2677 51.9619V51.949ZM47.3152 51.4713C47.0964 51.1486 46.9548 50.9162 46.8004 50.6967C46.7618 50.7096 46.7231 50.7354 46.6845 50.7484C46.7103 51.0324 46.7231 51.3035 46.7489 51.6263C46.9548 51.5746 47.0707 51.5359 47.3152 51.4713Z" fill="#30378E"/>
<path d="M25.6651 50.4005C25.5879 50.6717 25.4205 50.7491 25.1502 50.6846C24.5453 50.5167 24.2106 49.9745 24.3779 49.3677C24.5195 48.89 24.7769 48.4898 25.2532 48.2703C25.6522 48.0896 26.1542 48.2187 26.4245 48.5544C26.579 48.748 26.579 48.9158 26.4245 49.0579C26.1285 48.9417 25.8453 48.7738 25.575 48.7609C25.4077 48.7609 25.176 48.9804 25.0601 49.1482C24.6997 49.6776 24.8671 50.0003 25.678 50.4005H25.6651Z" fill="#30378E"/>
<path d="M55.8234 13.6703C55.6689 13.5541 55.5659 13.5025 55.4887 13.425C55.4501 13.3863 55.4244 13.3088 55.3857 13.2313C56.2224 12.4954 57.059 11.7725 57.9343 11.0107C58.063 11.1398 58.1917 11.256 58.3848 11.4368C57.5224 12.1856 56.6858 12.9215 55.8105 13.6832L55.8234 13.6703Z" fill="#30378E"/>
<path d="M20.324 44.6292C20.118 44.2806 19.9893 43.932 19.5645 43.9708C19.2556 43.9966 18.8566 44.3581 18.7794 44.655C18.6635 45.1327 18.9724 45.3522 19.32 45.6749C19.1655 45.7137 19.0111 45.7653 18.8566 45.7653C18.7794 45.7653 18.6893 45.7008 18.6249 45.6362C18.2645 45.378 18.1229 44.9778 18.2388 44.5517C18.419 43.9449 18.8437 43.5964 19.4358 43.4414C19.8477 43.3252 20.2467 43.5318 20.4784 43.9191C20.6457 44.1773 20.6457 44.1902 20.324 44.6292Z" fill="#30378E"/>
<path d="M57.9347 44.8744C58.0119 44.8098 58.0505 44.784 58.0891 44.7582C58.2951 44.6549 58.5782 44.5774 58.4495 44.2805C58.3208 43.9706 58.0763 44.1385 57.8574 44.203C57.7931 44.2289 57.7287 44.2418 57.6644 44.2547C57.201 44.345 56.8663 44.1643 56.7505 43.7641C56.6604 43.4284 56.8663 43.054 57.2525 42.8991C57.3426 42.8603 57.4713 42.8733 57.5614 42.8604C57.6901 43.1056 57.6 43.2218 57.4069 43.3122C57.3168 43.3509 57.2911 43.5188 57.2396 43.635C57.3812 43.6737 57.5099 43.7641 57.6515 43.7512C57.8317 43.7383 57.999 43.6221 58.1792 43.5962C58.5139 43.5446 58.7456 43.7383 58.9129 44.0094C59.0802 44.2805 59.0288 44.5516 58.8486 44.784C58.6555 45.0164 58.4238 45.21 58.0891 45.0939C58.0376 45.0809 58.0248 44.9906 57.9604 44.8873L57.9347 44.8744Z" fill="#30378E"/>
<path d="M17.196 43.0287C17.2989 43.2482 17.3375 43.416 17.4276 43.5322C17.4791 43.6097 17.6336 43.6872 17.6979 43.6613C17.8009 43.6097 17.9168 43.4806 17.9296 43.3773C17.9425 43.1836 17.8653 42.9771 17.8781 42.7705C17.8781 42.3832 18.1871 42.0733 18.5603 42.0475C18.9079 42.0217 19.2811 42.3057 19.3198 42.693C19.3198 42.7963 19.2297 42.9125 19.1782 43.0287C19.0881 42.9771 18.9851 42.9513 18.9079 42.8867C18.8435 42.8221 18.8435 42.706 18.792 42.6543C18.7405 42.6027 18.6247 42.5639 18.5603 42.5898C18.496 42.6156 18.4059 42.706 18.393 42.7705C18.393 43.0029 18.4188 43.2224 18.4188 43.4548C18.4059 43.8937 18.0326 44.2165 17.6078 44.1777C17.1702 44.139 16.8227 43.6613 16.9385 43.2353C16.9514 43.1707 17.0672 43.132 17.2088 43.0416L17.196 43.0287Z" fill="#30378E"/>
<path d="M56.4413 44.1253C56.57 44.3964 56.4284 44.461 56.2353 44.5513C56.1452 44.5901 56.1066 44.7579 56.0423 44.8612C56.171 44.9128 56.3126 45.0161 56.4413 45.0032C56.6472 45.0032 56.8403 44.8999 57.0462 44.887C57.3552 44.8612 57.5611 45.0419 57.6898 45.313C57.8185 45.5971 57.7799 45.8553 57.5868 46.0748C57.3809 46.2942 57.1492 46.4879 56.8145 46.3717C56.7631 46.3588 56.7502 46.2684 56.6858 46.1522C56.8532 46.0489 57.0334 45.9715 57.175 45.8424C57.2393 45.7907 57.2651 45.6229 57.2264 45.5454C57.1878 45.468 57.0591 45.3776 56.969 45.3776C56.8145 45.3776 56.6601 45.4421 56.5056 45.4809C56.1967 45.5583 55.9135 45.5196 55.7076 45.2485C55.5274 45.0032 55.5016 44.7321 55.6561 44.4739C55.8363 44.1898 56.0809 44.0091 56.4413 44.1124V44.1253Z" fill="#30378E"/>
<path d="M34.8941 51.291C34.9971 51.9236 34.5079 51.6008 34.2505 51.8074C34.1475 52.3367 34.0317 52.9564 33.9159 53.589C33.5554 53.6536 33.401 53.5632 33.4653 53.2017C33.5554 52.6853 33.6327 52.1689 33.7099 51.6783C33.4782 51.4846 32.9634 51.6525 33.2079 51.0586C33.7614 51.1361 34.3277 51.2135 34.907 51.3039L34.8941 51.291Z" fill="#30378E"/>
<path d="M32.2814 53.2791C32.0883 53.2403 31.9596 53.2145 31.8309 53.1887C31.8309 53.0983 31.818 53.0338 31.8309 52.9692C31.9854 52.3753 32.1527 51.7685 32.3072 51.1747C32.3844 50.8777 32.5389 50.8003 32.8864 50.9939C32.6933 51.7427 32.4874 52.5044 32.2814 53.2791Z" fill="#30378E"/>
<path d="M19.4741 46.5275C19.4741 46.5275 19.4227 46.4501 19.2939 46.2822C19.8217 45.7529 20.3365 45.2236 20.8771 44.7201C20.9544 44.6555 21.1603 44.7459 21.3663 44.7717C20.7098 45.3785 20.1306 45.9207 19.4741 46.5275Z" fill="#30378E"/>
<path d="M19.0231 15.6325C18.7228 15.4259 18.6756 15.1591 18.8815 14.832C19.036 14.9482 19.1904 15.0515 19.3706 15.1935C19.2419 15.3614 19.1261 15.5034 19.0231 15.6325Z" fill="#30378E"/>
<path d="M21.5207 28.1557C21.5336 20.7064 26.8238 13.6314 34.5467 12.0693C37.8547 11.3979 41.1241 11.4238 44.2648 12.7794C49.452 15.0387 52.9917 18.8343 54.3046 24.4116C55.669 30.2213 54.1501 35.3339 50.057 39.6589C47.4698 42.3959 44.2776 43.9193 40.5835 44.539C32.7576 45.8559 25.7297 41.0144 23.1039 35.2822C22.0613 33.0229 21.5079 30.6474 21.5207 28.1428V28.1557ZM38.1637 44.0484C46.5302 44.2162 53.8669 37.1284 54.0858 28.6592C54.3046 19.7639 47.0836 12.6502 38.8587 12.3533C29.4754 12.0176 22.4346 19.3378 22.2029 27.9104C21.9712 36.2892 29.0377 44.0871 38.1637 44.0484Z" fill="#30378E"/>
<path d="M19.5258 22.9659C20.1822 23.1983 20.8387 23.4307 21.5337 23.6889C21.4694 23.8825 21.405 24.0375 21.3278 24.2698C20.2337 23.8954 19.1782 23.5339 18.0713 23.1595C18.1614 22.8626 18.2515 22.6173 18.3416 22.3204H21.0317C20.4139 21.5587 19.6416 21.1972 19.0109 20.5387C19.0753 20.3322 19.1396 20.074 19.2426 19.7383C20.3624 20.1127 21.4308 20.4742 22.5377 20.8486C22.4605 21.0551 22.3961 21.223 22.3189 21.4295C21.6238 21.2101 20.9545 20.9906 20.2852 20.784C20.2595 20.8228 20.2337 20.8615 20.2208 20.8873C20.4783 21.0939 20.7357 21.2875 20.9931 21.4941C21.2119 21.6619 21.4308 21.8298 21.6367 21.9976C21.8298 22.1525 22.0743 22.2816 21.9456 22.6044C21.8298 22.9013 21.5852 22.8239 21.3664 22.8368C20.7743 22.8368 20.1822 22.8368 19.5901 22.8368C19.5773 22.8755 19.5644 22.9272 19.5515 22.9659H19.5258Z" fill="#30378E"/>
<path d="M22.9624 16.3426C23.4773 16.7945 23.9921 17.2464 24.5456 17.7241C24.4298 17.879 24.3268 18.021 24.1723 18.2405C23.2842 17.4658 22.4218 16.717 21.5723 15.9812C22.0743 15.3098 22.0743 15.3098 22.7307 15.5551C23.3228 15.7746 23.902 16.0199 24.5971 16.149C24.1852 15.4002 23.7862 14.6514 23.3614 13.8768C23.5416 13.6702 23.6961 13.4894 23.9149 13.2441C24.7902 13.9929 25.6397 14.7159 26.5278 15.4776C26.3862 15.6455 26.2704 15.7875 26.1159 15.9682C25.5367 15.4776 25.009 15.0129 24.4812 14.561C24.4426 14.5868 24.404 14.6126 24.3654 14.6385C24.61 15.0774 24.8674 15.5164 25.1119 15.9553C25.202 16.1103 25.3308 16.2652 25.3822 16.433C25.4209 16.5621 25.4209 16.7687 25.3436 16.8591C25.2664 16.9494 25.0605 17.0011 24.9446 16.9623C24.4297 16.7816 23.9149 16.575 23.4129 16.3685C23.2842 16.3168 23.1683 16.2781 23.0396 16.2394C23.0139 16.2781 22.9881 16.3168 22.9624 16.3556V16.3426Z" fill="#30378E"/>
<path d="M32.4224 47.8827C32.2165 47.831 32.0749 47.8052 31.8818 47.7536C32.1135 46.7724 32.3323 45.817 32.5769 44.7842C32.8601 44.8616 33.0918 44.9133 33.3363 44.9778C33.4264 45.7396 33.5165 46.4625 33.6066 47.2888C34.2373 46.7078 34.4948 45.959 34.9968 45.3393C35.2156 45.391 35.4344 45.4555 35.7176 45.5201C35.4859 46.5271 35.2671 47.4954 35.0354 48.5024C34.8423 48.4378 34.6878 48.3991 34.5076 48.3475C34.6363 47.7148 34.7651 47.121 34.8938 46.5271C34.868 46.5142 34.8294 46.5013 34.8037 46.4884C34.5591 46.8628 34.3146 47.2501 34.07 47.6245C33.9928 47.7407 33.9413 47.8827 33.8383 47.9601C33.7353 48.0505 33.568 48.1538 33.4522 48.1151C33.3363 48.0893 33.1947 47.9214 33.1819 47.7923C33.1046 47.2243 33.066 46.6562 32.8858 46.0752C32.7314 46.6691 32.5898 47.2501 32.4224 47.8698V47.8827Z" fill="#30378E"/>
<path d="M46.4272 13.0506C45.3588 13.0506 44.5994 12.3663 44.5865 11.3593C44.5608 10.3007 45.3588 9.4873 46.44 9.4873C47.4569 9.4873 48.2678 10.3007 48.2549 11.3206C48.2549 12.3276 47.4955 13.0377 46.44 13.0506H46.4272ZM46.4787 10.1328C45.7579 10.1328 45.2559 10.5847 45.2559 11.2431C45.2559 11.9016 45.7836 12.4954 46.3757 12.4825C47.0064 12.4825 47.547 11.8886 47.547 11.1915C47.547 10.546 47.1222 10.1328 46.4658 10.1328H46.4787Z" fill="#30378E"/>
<path d="M27.4154 10.9718C28.4451 10.9718 29.2174 11.7336 29.2303 12.7277C29.2303 13.7218 28.355 14.5609 27.2995 14.548C26.2827 14.548 25.5361 13.7734 25.549 12.7406C25.549 11.7077 26.347 10.9589 27.4154 10.9718ZM27.4411 13.9025C28.149 13.8896 28.5995 13.4248 28.5738 12.7148C28.5481 12.0305 28.0461 11.5528 27.3768 11.5657C26.6946 11.5786 26.2183 12.0821 26.2312 12.7664C26.2441 13.4636 26.7203 13.9025 27.4282 13.8896L27.4411 13.9025Z" fill="#30378E"/>
<path d="M28.9219 9.7715C29.3595 9.57785 29.6942 9.41001 30.0674 9.28091C30.5051 9.12598 30.9298 9.11307 31.2645 9.50038C31.612 9.8877 31.6635 10.4299 31.4061 10.9076C31.3546 10.998 31.2774 11.0884 31.1873 11.2175C31.5734 11.4628 31.9467 11.6822 32.32 11.9146C31.8823 12.3278 31.8566 12.3278 31.4061 12.0825C31.1229 11.9275 30.8526 11.7468 30.4278 11.4886C30.6209 11.9534 30.7496 12.2761 30.8912 12.6376C30.7239 12.728 30.5694 12.8184 30.3506 12.9475C29.8744 11.9017 29.4239 10.8818 28.9219 9.7715ZM30.1962 11.0238C30.5308 10.8172 30.9556 10.8043 30.9427 10.3525C30.9427 10.2105 30.8011 9.99098 30.6724 9.93934C30.3764 9.81023 30.0546 9.81023 29.81 10.133C29.9259 10.4041 30.0546 10.6752 30.209 11.0367L30.1962 11.0238Z" fill="#30378E"/>
<path d="M41.8057 8.00238C42.0374 8.05403 42.2047 8.07985 42.3978 8.11858C42.3205 8.55753 42.2433 8.95776 42.1532 9.42253C42.5007 9.52581 42.8483 9.61619 43.273 9.73238C43.4017 9.29343 43.5433 8.86738 43.6721 8.40261C43.8523 8.44134 44.0196 8.48007 44.2513 8.53171C43.9938 9.65492 43.7493 10.7265 43.4918 11.8497C43.273 11.811 43.1057 11.7722 42.8869 11.7335C42.977 11.2687 43.0671 10.8298 43.1572 10.3133C42.7582 10.2359 42.3978 10.1584 41.9859 10.0681C41.8572 10.5457 41.7413 10.9589 41.6255 11.4107C41.4195 11.372 41.2522 11.3462 41.0205 11.3075C41.2779 10.1842 41.5354 9.09977 41.7928 7.97656L41.8057 8.00238Z" fill="#30378E"/>
<path d="M33.877 11.4881C34.0057 10.9975 34.1086 10.5973 34.2116 10.21C34.4047 9.5257 34.5849 8.84145 34.7908 8.1701C34.8294 8.041 34.9839 7.88608 35.0998 7.87316C35.2156 7.86025 35.4087 7.96354 35.473 8.07973C36.0522 9.0351 36.6057 10.0034 37.1721 10.9846C36.7945 11.1223 36.4126 10.9243 36.0265 10.3907C35.872 10.3907 35.6918 10.4294 35.5116 10.4165C35.0225 10.3907 34.7136 10.5585 34.6492 11.0749C34.5978 11.501 34.3017 11.4752 33.877 11.501V11.4881ZM34.9968 9.84846C35.3057 9.78391 35.473 9.73227 35.7047 9.68062C35.5631 9.39659 35.4473 9.16421 35.2542 8.77689C35.1512 9.20294 35.0997 9.46115 35.0096 9.83555L34.9968 9.84846Z" fill="#30378E"/>
<path d="M54.4842 22.6166C54.3426 22.3584 54.2783 22.2164 54.2139 22.0873C54.3941 21.7645 54.703 21.4676 54.7159 21.1577C54.7159 20.835 54.4585 20.4993 54.304 20.1894H53.3258C53.2614 20.0216 53.1842 19.8409 53.0684 19.5568C54.2783 19.5052 55.411 19.4536 56.5566 19.4277C56.9298 19.4277 57.0585 19.7376 56.8011 20.0345C56.0674 20.8866 55.308 21.7129 54.4842 22.6295V22.6166ZM55.2951 20.7704C55.5397 20.4864 55.707 20.2927 55.9516 20.0087C55.5783 20.0474 55.308 20.0733 54.9733 20.112C55.0763 20.3315 55.1536 20.4864 55.2823 20.7704H55.2951Z" fill="#30378E"/>
<path d="M28.3557 42.835C29.2696 42.835 29.9261 43.5579 29.9003 44.5004C29.8746 45.417 29.2053 46.0497 28.3043 46.0367C27.429 46.0238 26.7211 45.3008 26.7082 44.3842C26.6953 43.4934 27.3904 42.835 28.3686 42.835H28.3557ZM28.3686 43.403C27.6993 43.403 27.2488 43.8032 27.2359 44.4229C27.223 44.991 27.5835 45.417 28.1241 45.43C28.7934 45.4558 29.4112 44.9394 29.3983 44.3584C29.3855 43.8032 28.9478 43.403 28.3686 43.403Z" fill="#30378E"/>
<path d="M46.1824 47.0043C45.2813 47.0043 44.5605 46.2297 44.5734 45.3001C44.5863 44.4222 45.2556 43.8154 46.1952 43.8154C47.1091 43.8154 47.7269 44.4868 47.7269 45.468C47.7269 46.3975 47.0962 47.0172 46.1824 47.0043ZM47.1863 45.4292C47.1863 44.7966 46.7744 44.3706 46.1824 44.3706C45.5774 44.3706 45.1655 44.7579 45.1655 45.326C45.1655 45.9457 45.6546 46.4621 46.221 46.4621C46.7744 46.4621 47.1863 46.0231 47.1863 45.4292Z" fill="#30378E"/>
<path d="M22.0872 17.7363C22.2288 17.8267 22.3833 17.9171 22.5635 18.0333C22.3833 18.356 22.2159 18.653 22.0357 18.9886C22.2288 19.1307 22.409 19.2468 22.6536 19.4276C22.8853 19.0919 23.0912 18.7692 23.3229 18.4206C23.4902 18.511 23.6318 18.6013 23.8378 18.7175C23.5288 19.2339 23.2328 19.7245 22.8981 20.2797C21.907 19.6987 20.9545 19.1307 19.9248 18.5239C20.2337 17.9945 20.5298 17.5039 20.8516 16.9746C21.0446 17.065 21.1862 17.1295 21.3793 17.2199C21.1862 17.5814 21.0189 17.9042 20.8258 18.2657C21.0189 18.4077 21.1733 18.5239 21.4179 18.6917C21.6496 18.3689 21.8684 18.072 22.113 17.7363H22.0872Z" fill="#30378E"/>
<path d="M37.9965 47.0049C38.0994 47.1469 38.2024 47.2502 38.2668 47.3793C38.5499 47.9731 38.3054 48.4896 37.6618 48.6316C37.5331 48.6574 37.3915 48.6703 37.2499 48.6703C36.9796 48.6703 36.7093 48.6703 36.4004 48.6703V45.6493C37.0182 45.3911 37.5073 45.5718 37.945 45.8946C38.3054 46.1528 38.3054 46.411 37.9965 47.0049ZM36.9796 48.0893C37.2757 48.1539 37.5331 48.2055 37.6747 47.9344C37.739 47.8182 37.7262 47.6116 37.6489 47.5084C37.4945 47.3018 37.2628 47.2372 36.9667 47.3663V48.0893H36.9796ZM36.9667 46.2044C36.9925 46.4497 37.0182 46.6175 37.044 46.7983C37.3529 46.7983 37.6489 46.7983 37.6361 46.4626C37.6232 46.0882 37.3014 46.2044 36.9667 46.2173V46.2044Z" fill="#30378E"/>
<path d="M52.0523 13.0891C52.3483 13.3602 52.6444 13.5797 52.8889 13.8379C53.3395 14.3285 53.3137 14.9482 52.8761 15.3742C52.4384 15.8003 51.8464 15.8003 51.3444 15.3484C51.2285 15.2451 51.0998 15.1548 50.9453 15.0256C50.6622 15.2968 50.3919 15.5421 50.0829 15.839C49.9285 15.7486 49.7612 15.6453 49.5166 15.5033C50.3919 14.6642 51.2156 13.8766 52.0523 13.0762V13.0891ZM51.383 14.548C51.9107 15.0644 52.2068 15.1548 52.4256 14.9095C52.6186 14.69 52.5157 14.3801 52.0909 13.9799C51.8721 14.1477 51.6533 14.3285 51.383 14.548Z" fill="#30378E"/>
<path d="M47.5215 42.9636C47.7918 42.7312 47.972 42.5505 48.1651 42.3956C48.6413 42.0212 49.0789 41.9953 49.4908 42.2923C49.8641 42.5634 49.9671 42.9507 49.8126 43.5188C49.7998 43.5833 49.7869 43.6479 49.7611 43.7899C50.1344 43.919 50.4948 44.0481 50.8938 44.1901C50.6879 44.5387 50.4433 44.6162 50.1215 44.5C49.8512 44.3967 49.5809 44.3063 49.2463 44.3321C49.4007 44.5516 49.5423 44.784 49.7225 45.0551C49.6067 45.1584 49.4908 45.2746 49.3106 45.4295C48.7057 44.5903 48.1264 43.8028 47.5215 42.9765V42.9636ZM48.7829 43.7124C49.1433 43.5833 49.4136 43.4542 49.3621 43.0798C49.3364 42.9507 49.2077 42.7829 49.0918 42.7442C48.77 42.6538 48.4869 42.7183 48.3195 43.0669C48.474 43.2864 48.6284 43.48 48.7958 43.6995L48.7829 43.7124Z" fill="#30378E"/>
<path d="M47.9589 13.1406C48.2935 13.218 48.4609 13.3472 48.4866 13.7086C48.5123 14.0572 48.8599 14.238 49.1302 14.1347C49.3747 14.0443 49.4648 13.7474 49.3104 13.4246C49.2332 13.2568 49.1173 13.1148 49.0143 12.9598C48.7183 12.4563 48.7569 12.0303 49.1173 11.7204C49.4648 11.4235 50.0955 11.4235 50.4688 11.7075C50.8421 11.9916 50.8936 12.3789 50.5847 13.0115C50.4302 12.8049 50.3144 12.6371 50.1985 12.4692C50.1213 12.366 50.0698 12.2239 49.9668 12.1465C49.7094 11.9786 49.4134 12.1465 49.4648 12.4563C49.5035 12.6758 49.6322 12.8695 49.748 13.0631C50.1084 13.6441 50.1213 14.0701 49.7738 14.4445C49.452 14.7931 48.7826 14.8448 48.3064 14.5478C47.8044 14.238 47.7014 13.8765 47.9203 13.1406H47.9589Z" fill="#30378E"/>
<path d="M42.2568 48.231C41.8835 48.4376 41.6518 48.4118 41.5231 48.1148C41.3429 47.6888 41.034 47.663 40.635 47.7146C40.2617 47.7663 40.0558 47.947 40.0043 48.3085C39.9528 48.6958 39.6954 48.6958 39.335 48.6442C39.4379 48.2439 39.528 47.8566 39.6181 47.4693C39.7597 46.9142 39.8884 46.359 40.0558 45.8168C40.0944 45.6877 40.2231 45.5198 40.3389 45.5069C40.4548 45.4811 40.6479 45.5844 40.7122 45.7006C41.2271 46.5268 41.7162 47.366 42.2439 48.2439L42.2568 48.231ZM40.3003 47.1595C40.5063 47.1465 40.6607 47.1336 40.9182 47.1207C40.7637 46.8367 40.6479 46.6301 40.4805 46.3074C40.4033 46.6689 40.3647 46.8883 40.3003 47.1595Z" fill="#30378E"/>
<path d="M25.858 43.7385C24.9184 44.0226 24.1719 43.4933 23.9144 42.9768C23.6184 42.3571 23.7471 41.5696 24.2362 41.1306C24.7511 40.6659 25.6006 40.5626 26.2313 40.8983C26.862 41.2339 27.0422 41.7245 26.8878 42.6153C26.5788 42.5637 26.5145 42.3442 26.4501 42.086C26.257 41.3372 25.7679 41.0661 25.0729 41.3114C24.6095 41.4663 24.3521 41.7762 24.3263 42.2022C24.3006 42.6799 24.5837 43.093 25.0342 43.2738C25.3174 43.3771 25.6778 43.3512 25.858 43.7644V43.7385Z" fill="#30378E"/>
<path d="M49.7354 41.1438C50.1215 40.8082 50.4948 40.4854 50.9839 40.0723C51.0997 40.1755 51.2027 40.2788 51.3958 40.4725C51.0225 40.7307 50.7779 40.8985 50.5076 41.0793C50.675 41.3633 50.7779 41.557 50.9453 41.8281C51.2285 41.5441 51.4601 41.3117 51.7176 41.0535C51.8463 41.1826 51.9621 41.2858 52.1295 41.4279C51.872 41.6602 51.6532 41.8539 51.3572 42.125C51.5374 42.2929 51.7047 42.4349 51.8077 42.5252C52.2839 42.5898 52.4126 41.6732 53.0433 42.2799C52.6443 42.6544 52.271 43.0029 51.8463 43.3902C51.177 42.6802 50.4948 41.9443 49.7354 41.1438Z" fill="#30378E"/>
<path d="M55.9777 17.8915C55.7975 18.0077 55.6945 18.0851 55.4757 18.2401C55.3856 18.0593 55.2955 17.8786 55.1925 17.672C54.3173 18.2271 53.5579 18.7177 52.7469 19.2213C52.6182 19.0405 52.5281 18.8985 52.3994 18.7177C53.1975 18.2013 53.9569 17.6978 54.7292 17.1814C54.6391 16.9877 54.5618 16.8328 54.4717 16.6263C54.6133 16.5359 54.7549 16.4455 54.9609 16.3164C55.3084 16.8586 55.643 17.3751 55.9777 17.8915Z" fill="#30378E"/>
<path d="M39.2962 10.5582V11.0746H37.7902C37.6229 10.584 37.61 8.85399 37.7645 7.70496C37.8417 7.69205 37.9189 7.66623 38.009 7.65332C38.0991 7.65332 38.1892 7.67914 38.318 7.69205V10.4291C38.6655 10.4678 38.9615 10.5065 39.2962 10.5453V10.5582Z" fill="#30378E"/>
<path d="M57.8308 22.0879C57.908 22.3074 57.9595 22.4623 58.0239 22.6689C57.11 22.94 56.2219 23.2111 55.308 23.4822C55.3852 23.8179 55.4624 24.1019 55.5397 24.4376C55.3852 24.515 55.2436 24.5796 54.9991 24.6958C54.8317 24.1406 54.6773 23.6242 54.4971 23.0433C55.6298 22.7205 56.711 22.4236 57.8308 22.1008V22.0879Z" fill="#30378E"/>
<path d="M42.6174 45.6104C42.2827 45.6879 41.9609 45.7654 41.9609 45.2231C42.36 45.094 42.7847 44.9391 43.2223 44.8358C43.3382 44.81 43.557 44.8745 43.6214 44.9649C43.763 45.1715 43.6214 45.2877 43.4026 45.3522C43.3382 45.3651 43.2867 45.4168 43.1966 45.4684C43.4283 46.2301 43.6471 46.9919 43.8917 47.8052C43.7115 47.8827 43.5699 47.9343 43.3768 48.0118C43.1194 47.2242 42.8877 46.4625 42.6174 45.6234V45.6104Z" fill="#30378E"/>
<path d="M54.1111 15.2197C54.2656 15.4263 54.3686 15.5683 54.4844 15.7361C53.6091 16.4462 52.7596 17.1305 51.7685 17.9309C51.6398 17.7889 51.5111 17.6469 51.3438 17.4532C52.3091 16.6657 53.1844 15.9685 54.1111 15.2197Z" fill="#30378E"/>
<path d="M33.504 11.708C33.2981 11.7596 33.1307 11.8112 32.8991 11.8629C32.603 10.7526 32.307 9.68102 31.998 8.55782C32.204 8.50617 32.3584 8.48035 32.5515 8.42871C33.0278 9.47446 33.1694 10.5848 33.504 11.695V11.708Z" fill="#30378E"/>
<path d="M31.2385 44.1904C31.4316 44.2679 31.5603 44.3195 31.7534 44.397C31.3801 45.3265 31.0197 46.2432 30.6336 47.1986C30.4405 47.1469 30.286 47.0953 30.0801 47.0307C30.4662 46.0754 30.8395 45.1716 31.2385 44.1904Z" fill="#30378E"/>
<path d="M29.05 23.1978C29.3332 23.1591 29.4747 23.0946 29.5906 23.1333C30.1183 23.2624 30.6461 23.4044 31.1609 23.5722C31.8045 23.7788 32.4352 24.0241 33.0659 24.2565C33.1689 24.2952 33.2976 24.3081 33.3877 24.3598C33.8768 24.6438 34.3531 24.9537 34.8422 25.2248C35.2798 25.4572 35.7174 25.6766 36.1808 25.8574C36.9402 26.1543 37.262 26.7095 37.1076 27.5358C37.0818 27.6649 37.0561 27.8069 37.0303 27.936C36.9274 28.504 37.0303 28.6977 37.6482 29.0334C37.7125 28.504 37.8541 28.0134 37.4809 27.5358C37.2749 27.2775 37.2878 26.9677 37.5195 26.7095C37.6997 26.5158 38.0729 26.5287 38.3432 26.7095C38.6264 26.9031 38.7423 27.1613 38.5363 27.4841C38.2145 28.0005 38.3947 28.5428 38.369 29.085C39.1284 28.8784 39.3215 28.6073 39.2185 27.9231C39.2185 27.8585 39.1928 27.781 39.1799 27.7165C38.9868 26.6062 39.1799 26.3609 40.1581 25.8187C41.0334 25.341 41.973 24.9924 42.7839 24.3856C43.0928 24.1532 43.5305 24.0758 43.9166 23.9596C44.8048 23.6755 45.6929 23.4044 46.5939 23.1333C46.7355 23.0946 46.9028 23.1462 47.0959 23.1591C47.186 23.7788 47.0187 24.3081 46.8127 24.8504C46.7355 25.057 46.6969 25.2764 46.6197 25.483C46.5424 25.6896 46.4395 25.8832 46.3365 26.0898C45.9246 26.9548 45.3711 27.7294 44.7018 28.3878C44.1354 28.9559 43.3632 29.3174 42.6938 29.7693C42.6166 29.8209 42.5136 29.8338 42.4621 29.8984C41.8829 30.4793 41.1492 30.4922 40.4027 30.4664C39.7462 30.4406 39.0769 30.3631 38.3561 30.2986V33.2551C38.6007 33.1518 38.8324 33.1001 39.0126 32.9839C39.373 32.7645 39.4373 32.3901 39.1799 32.0415C39.0383 31.8349 38.8066 31.68 38.7165 31.4476C38.6393 31.2669 38.6135 30.9828 38.7036 30.815C38.7551 30.7246 39.0898 30.6988 39.2571 30.7634C39.7849 30.9699 40.0809 31.4089 40.1839 31.964C40.2868 32.4675 40.068 32.8678 39.6819 33.1647C39.4116 33.3713 39.1027 33.5133 38.768 33.7069C39.4759 34.7269 39.4373 35.721 38.4848 36.6634C38.8839 37.1024 39.167 37.593 39.2314 38.1869C39.2957 38.8195 39.0641 39.3101 38.4591 39.6328C38.7036 40.0589 38.974 40.472 38.768 40.9755C38.7036 41.1433 38.6393 41.3241 38.5363 41.4661C38.1244 42.0342 38.0987 42.0729 38.0215 42.5118C37.9828 42.5118 37.9056 42.4989 37.9056 42.486C37.8799 42.0342 37.6611 41.6985 37.4036 41.337C37.0432 40.7948 37.1076 40.2138 37.5967 39.6715C37.0175 39.3488 36.6185 38.884 36.7858 38.2256C36.9145 37.6833 37.1848 37.1798 37.4165 36.6118C36.6699 35.7726 36.5284 34.7656 37.2363 33.7328C36.966 33.5778 36.6828 33.4358 36.4254 33.2551C35.5372 32.5966 35.666 31.3056 36.6442 30.815C36.8759 30.6988 37.1333 30.6084 37.3393 30.8279C37.5452 31.0603 37.4294 31.3056 37.262 31.5122C37.1462 31.6542 37.0175 31.7833 36.9016 31.9253C36.5026 32.4288 36.5798 32.7903 37.1591 33.0743C37.3006 33.1389 37.4551 33.1776 37.5967 33.2292C37.8026 32.7516 37.8413 31.3701 37.6868 30.3244C37.1462 30.3631 36.6056 30.4277 36.065 30.4535C35.2283 30.5051 34.4818 30.4019 33.7224 29.8984C33.0916 29.4723 32.3837 29.1366 31.8174 28.6073C31.5084 28.3104 31.1738 28.0393 30.9292 27.7036C30.4916 27.0968 30.1183 26.4513 29.7193 25.8316C29.6678 25.7541 29.6421 25.6637 29.6163 25.5734C29.4233 24.8117 29.2431 24.0499 29.0371 23.1849L29.05 23.1978ZM38.2145 37.2444C38.2403 37.9157 38.1244 38.4967 38.2918 39.1035C38.9225 38.458 38.9096 37.8899 38.2145 37.2444ZM37.7769 37.296C37.1076 37.9545 37.1333 38.6129 37.7769 39.0648V37.296ZM38.3304 34.3654C38.1759 34.856 38.2403 35.3078 38.266 35.8242C38.7165 35.2433 38.7294 34.9463 38.3304 34.3654ZM37.764 34.3137C37.2749 34.8818 37.2878 35.282 37.764 35.8242V34.3137ZM38.2017 41.4532C38.6264 40.7431 38.6135 40.4462 38.2017 40.1492V41.4532ZM37.8155 40.1621C37.8155 40.1621 37.7125 40.1621 37.6611 40.1621C37.4422 40.5365 37.4422 40.9109 37.8155 41.4015V40.1621Z" fill="#30378E"/>
<path d="M39.4768 16.7425C39.7986 16.2003 39.3352 15.7355 39.361 15.2062C40.1719 15.813 40.1976 17.0911 39.3867 17.7237C39.2194 17.5946 39.0392 17.4655 38.8461 17.3364C38.9233 18.2659 39.0778 19.1826 39.0392 20.0992C39.0006 21.0288 38.7689 21.9454 38.6144 22.9395C38.9491 22.9653 39.2322 23.0041 39.5283 23.0299C39.3996 23.7141 38.9233 24.0756 38.151 24.0756C37.3916 24.0756 36.9025 23.727 36.748 23.0299C37.0441 23.0041 37.3272 22.9782 37.6748 22.9395C37.5203 21.9712 37.2886 21.0546 37.2371 20.125C37.1985 19.2213 37.3401 18.3047 37.4045 17.3364C37.2243 17.4655 37.0698 17.5817 36.8381 17.7495C36.6965 17.6075 36.4906 17.4655 36.4134 17.2847C36.1044 16.5488 36.2975 15.8646 36.7738 15.1287C37.0055 15.7484 36.3104 16.2648 36.748 16.8329C37.0827 16.3035 36.954 15.4644 37.8807 15.4127C37.5718 14.7672 37.5332 14.1862 38.1124 13.7344C38.7302 14.1862 38.7817 14.6639 38.4342 15.3224C39.1164 15.5289 39.258 16.1486 39.4897 16.7425H39.4768Z" fill="#30378E"/>
<path d="M31.947 72.2704H31.0588C30.8786 71.9477 30.5568 71.7669 30.1578 71.7669C29.4756 71.7669 28.9865 72.2575 28.9865 73.0322C28.9865 73.8068 29.4756 74.2974 30.1836 74.2974C30.7757 74.2974 31.1618 73.9488 31.2776 73.4066H29.9519V72.8127H32.0371V73.484C31.8826 74.2716 31.1876 74.9816 30.1578 74.9816C29.038 74.9816 28.1885 74.1683 28.1885 73.0192C28.1885 71.8702 29.038 71.0439 30.145 71.0439C31.0073 71.0439 31.6895 71.4829 31.9341 72.2575L31.947 72.2704Z" fill="#30378E"/>
<path d="M33.3758 73.2515V74.9686H32.6035V71.1084H33.3758V72.8384L34.7788 71.1084H35.7056L34.1224 73.0191L35.757 74.9686H34.7788L33.3758 73.2515Z" fill="#30378E"/>
<path d="M39.5539 71.1084V74.9686H38.7816L37.0311 72.322V74.9686H36.2588V71.1084H37.0311L38.7816 73.755V71.1084H39.5539Z" fill="#30378E"/>
<path d="M40.3135 71.1084H41.1887L42.4115 73.9745L43.6343 71.1084H44.5096V74.9686H43.7373V72.464L42.7076 74.9686H42.1284L41.0986 72.464V74.9686H40.3263V71.1084H40.3135Z" fill="#30378E"/>
<path d="M47.6757 73.329H46.0282V74.9686H45.2559V71.1084H46.0282V72.6964H47.6757V71.1084H48.448V74.9686H47.6757V73.329Z" fill="#30378E"/>
<path d="M27.5832 78.0027H26.1287V78.971H27.4288V79.5778H26.1287V80.5977H27.5832V81.2303H25.3564V77.3701H27.5832V78.0027Z" fill="#30378E"/>
<path d="M29.6172 81.2687C28.8192 81.2687 28.2013 80.8427 28.1885 80.1197H29.0123C29.038 80.4296 29.2439 80.6361 29.5915 80.6361C29.939 80.6361 30.1707 80.4425 30.1707 80.1713C30.1707 79.3322 28.1885 79.8357 28.1885 78.4414C28.1885 77.7442 28.7548 77.3311 29.54 77.3311C30.3252 77.3311 30.8658 77.7313 30.9172 78.4284H30.0677C30.0549 78.1702 29.8489 77.9766 29.5142 77.9637C29.2182 77.9637 28.9865 78.1057 28.9865 78.4155C28.9865 79.1902 30.9559 78.7641 30.9559 80.1197C30.9559 80.7265 30.4667 81.2687 29.5915 81.2687H29.6172Z" fill="#30378E"/>
<path d="M31.4318 77.3701H34.2507V77.9898H33.221V81.2174H32.4487V77.9898H31.4189V77.3701H31.4318Z" fill="#30378E"/>
<path d="M38.1896 79.3067C38.1896 80.4686 37.3915 81.2303 36.1687 81.2303H34.8301V77.3701H36.1687C37.3915 77.3701 38.1896 78.1318 38.1896 79.3067ZM36.1301 80.5719C36.941 80.5719 37.3915 80.1071 37.3915 79.3067C37.3915 78.5062 36.9281 78.0285 36.1301 78.0285H35.5895V80.5719H36.1301Z" fill="#30378E"/>
<path d="M40.4293 77.9122H39.8887V77.2021H41.2144V81.2302H40.4164V77.9122H40.4293Z" fill="#30378E"/>
<path d="M42.8746 80.0939C42.9389 80.4166 43.1449 80.5974 43.4924 80.5974C43.9429 80.5974 44.1488 80.2617 44.1488 79.358C43.9815 79.5903 43.6469 79.7324 43.2993 79.7324C42.6043 79.7324 42.0508 79.2934 42.0508 78.4413C42.0508 77.6409 42.5528 77.0986 43.4023 77.0986C44.4964 77.0986 44.831 77.8345 44.831 79.1127C44.831 80.4812 44.5221 81.2171 43.4667 81.2171C42.6171 81.2171 42.2052 80.6748 42.1666 80.0809H42.8874L42.8746 80.0939ZM44.0845 78.4542C44.0845 78.0153 43.8271 77.77 43.4409 77.77C43.0548 77.77 42.7973 78.0411 42.7973 78.4413C42.7973 78.8028 43.0033 79.0998 43.4667 79.0998C43.8528 79.0998 44.0845 78.8415 44.0845 78.4542Z" fill="#30378E"/>
<path d="M48.1259 77.1895V77.8737H46.3367V78.8162C46.4912 78.6354 46.7872 78.4934 47.1219 78.4934C48.0615 78.4934 48.3833 79.2035 48.3833 79.8232C48.3833 80.6494 47.9071 81.2304 46.9932 81.2304C46.1308 81.2304 45.6288 80.7527 45.5645 80.0943H46.311C46.3754 80.3783 46.607 80.5849 46.9803 80.5849C47.4308 80.5849 47.6368 80.2621 47.6368 79.8361C47.6368 79.3842 47.4051 79.1389 46.9803 79.1389C46.6585 79.1389 46.4526 79.3197 46.3754 79.565H45.6417V77.2024H48.1259V77.1895Z" fill="#30378E"/>
<path d="M48.9375 80.5981C49.8514 79.8235 50.8039 79.1134 50.8039 78.3775C50.8039 78.016 50.6494 77.7707 50.2633 77.7707C49.8771 77.7707 49.684 78.0419 49.684 78.455H48.9375C48.9632 77.5383 49.5553 77.1123 50.2761 77.1123C51.1385 77.1123 51.5762 77.6287 51.5762 78.3259C51.5762 79.2554 50.6752 79.9913 50.0445 80.5336H51.6663V81.1791H48.9504V80.611L48.9375 80.5981Z" fill="#30378E"/>
<path d="M109.846 45.6094V66.1369H107.169V56.8285H96.7427V66.1369H94.0654V45.6094H96.7427V54.6208H107.169V45.6094H109.846Z" fill="#30378E"/>
<path d="M120.233 65.0008C118.663 64.11 117.428 62.8577 116.526 61.2568C115.613 59.6559 115.162 57.8613 115.162 55.8602C115.162 53.8591 115.613 52.0516 116.526 50.4637C117.44 48.8628 118.676 47.6234 120.233 46.7196C121.804 45.8288 123.529 45.377 125.434 45.377C127.339 45.377 129.089 45.8288 130.659 46.7196C132.23 47.6105 133.453 48.8499 134.354 50.4378C135.255 52.0258 135.705 53.8333 135.705 55.8602C135.705 57.8872 135.255 59.6817 134.354 61.2826C133.453 62.8706 132.217 64.11 130.659 65.0008C129.089 65.8916 127.351 66.3435 125.434 66.3435C123.516 66.3435 121.804 65.8916 120.233 65.0008ZM129.295 63.0126C130.441 62.3412 131.342 61.3988 131.998 60.1594C132.655 58.92 132.976 57.4869 132.976 55.8602C132.976 54.2335 132.642 52.7746 131.998 51.5481C131.342 50.3216 130.441 49.3792 129.308 48.7078C128.175 48.0365 126.875 47.7008 125.434 47.7008C123.992 47.7008 122.692 48.0365 121.559 48.7078C120.427 49.3792 119.526 50.3216 118.869 51.5481C118.213 52.7746 117.891 54.2077 117.891 55.8602C117.891 57.5128 118.213 58.92 118.869 60.1594C119.526 61.3988 120.427 62.3542 121.572 63.0126C122.718 63.6839 124.005 64.0196 125.434 64.0196C126.862 64.0196 128.15 63.6839 129.295 63.0126Z" fill="#30378E"/>
<path d="M143.853 65.6209C142.785 65.1432 141.948 64.4719 141.343 63.6198C140.738 62.7677 140.429 61.7736 140.403 60.6633H143.248C143.351 61.6187 143.737 62.4321 144.432 63.0905C145.127 63.7489 146.144 64.0717 147.47 64.0717C148.796 64.0717 149.748 63.7489 150.482 63.1163C151.215 62.4837 151.589 61.6574 151.589 60.6633C151.589 59.8758 151.37 59.2432 150.945 58.7526C150.52 58.262 149.98 57.8876 149.336 57.6294C148.693 57.3712 147.817 57.1001 146.723 56.8031C145.372 56.4545 144.291 56.093 143.48 55.7445C142.669 55.3959 141.974 54.8407 141.394 54.079C140.815 53.3173 140.532 52.3103 140.532 51.0322C140.532 49.9089 140.815 48.9278 141.382 48.0628C141.948 47.1978 142.746 46.5264 143.776 46.0616C144.805 45.5969 145.977 45.3516 147.315 45.3516C149.233 45.3516 150.804 45.8293 152.026 46.7975C153.249 47.7658 153.944 49.031 154.099 50.619H151.164C151.061 49.8315 150.649 49.1472 149.928 48.5404C149.207 47.9466 148.242 47.6367 147.058 47.6367C145.938 47.6367 145.037 47.9207 144.329 48.5017C143.621 49.0827 143.274 49.896 143.274 50.9289C143.274 51.6777 143.48 52.2845 143.904 52.7492C144.329 53.214 144.844 53.5755 145.462 53.8208C146.08 54.0661 146.942 54.3501 148.062 54.66C149.413 55.0344 150.495 55.3959 151.318 55.7703C152.142 56.1318 152.85 56.6869 153.429 57.4486C154.021 58.2103 154.305 59.2303 154.305 60.5213C154.305 61.5154 154.034 62.4579 153.507 63.3487C152.979 64.2266 152.194 64.9496 151.164 65.4918C150.121 66.047 148.899 66.3181 147.496 66.3181C146.093 66.3181 144.934 66.0728 143.866 65.5951L143.853 65.6209Z" fill="#30378E"/>
<path d="M171.913 55.8732C170.754 56.9964 168.978 57.5644 166.584 57.5644H162.645V66.1369H159.968V45.6094H166.571C168.875 45.6094 170.638 46.1645 171.835 47.2877C173.045 48.4109 173.637 49.844 173.637 51.6127C173.637 53.3815 173.058 54.737 171.887 55.8732H171.913ZM169.866 54.3885C170.574 53.7429 170.921 52.8134 170.921 51.6256C170.921 49.0952 169.467 47.83 166.571 47.83H162.632V55.3697H166.571C168.064 55.3697 169.158 55.0469 169.853 54.4014L169.866 54.3885Z" fill="#30378E"/>
<path d="M181.412 45.6094V66.1369H178.734V45.6094H181.412Z" fill="#30378E"/>
<path d="M200.307 45.6094V47.7912H194.734V66.1369H192.056V47.7912H186.444V45.6094H200.294H200.307Z" fill="#30378E"/>
<path d="M217.452 61.5667H208.532L206.884 66.1241H204.065L211.467 45.7256H214.543L221.905 66.1241H219.087L217.439 61.5667H217.452ZM216.692 59.3977L212.998 49.0307L209.304 59.3977H216.705H216.692Z" fill="#30378E"/>
<path d="M229.578 63.9551H236.734V66.1369H226.9V45.6094H229.578V63.9551Z" fill="#30378E"/>
<path d="M102.998 73.0322V73.2259C102.805 73.2259 102.664 73.2646 102.548 73.3292C102.432 73.3937 102.316 73.5228 102.213 73.7036C102.136 73.8327 102.033 74.1296 101.878 74.5944L99.8704 80.4299H99.6516L98.004 75.808L96.3693 80.4299H96.1763L94.0396 74.4265C93.8851 73.9747 93.7821 73.7165 93.7307 73.6261C93.6534 73.497 93.5633 73.3937 93.4346 73.3292C93.3188 73.2646 93.1514 73.2259 92.9326 73.2259V73.0322H95.597V73.2259H95.4683C95.2752 73.2259 95.1337 73.2646 95.0436 73.355C94.9406 73.4454 94.8891 73.5486 94.8891 73.6648C94.8891 73.781 94.9663 74.078 95.1208 74.5298L96.5367 78.5837L97.7337 75.1366L97.5149 74.5298L97.3476 74.0392C97.2703 73.8585 97.1931 73.7036 97.103 73.5745C97.0515 73.5099 97 73.4454 96.9357 73.4066C96.8456 73.3421 96.7555 73.2904 96.6654 73.2646C96.601 73.2388 96.498 73.2388 96.3436 73.2388V73.0451H99.1496V73.2388H98.9565C98.7634 73.2388 98.609 73.2775 98.5189 73.3679C98.4288 73.4583 98.3773 73.5745 98.3773 73.7165C98.3773 73.8972 98.4545 74.22 98.6219 74.6719L99.9991 78.5966L101.376 74.6073C101.531 74.1683 101.608 73.8585 101.608 73.6907C101.608 73.6132 101.582 73.5357 101.531 73.4583C101.479 73.3808 101.415 73.3421 101.338 73.3033C101.209 73.2517 101.029 73.2259 100.81 73.2259V73.0322H102.96H102.998Z" fill="#30378E"/>
<path d="M105.109 77.2148C105.109 77.9377 105.276 78.5058 105.637 78.9189C105.997 79.3321 106.409 79.5386 106.885 79.5386C107.207 79.5386 107.477 79.4483 107.722 79.2804C107.954 79.0997 108.16 78.8027 108.314 78.3767L108.481 78.48C108.404 78.9706 108.185 79.4095 107.838 79.8098C107.477 80.21 107.027 80.4036 106.486 80.4036C105.907 80.4036 105.405 80.1713 104.98 79.7194C104.556 79.2675 104.35 78.6478 104.35 77.8732C104.35 77.034 104.568 76.3885 104.993 75.9237C105.418 75.4589 105.959 75.2266 106.602 75.2266C107.143 75.2266 107.593 75.4073 107.954 75.7688C108.301 76.1303 108.481 76.608 108.481 77.2148H105.109ZM105.109 76.9049H107.362C107.349 76.5951 107.31 76.3756 107.246 76.2465C107.156 76.0528 107.027 75.885 106.847 75.7817C106.666 75.6655 106.486 75.6139 106.293 75.6139C105.997 75.6139 105.74 75.7301 105.508 75.9625C105.276 76.1948 105.135 76.5047 105.096 76.9178L105.109 76.9049Z" fill="#30378E"/>
<path d="M119.474 78.4162C119.345 79.0617 119.088 79.5523 118.702 79.9009C118.316 80.2495 117.891 80.4173 117.428 80.4173C116.874 80.4173 116.398 80.1849 115.986 79.7202C115.574 79.2554 115.368 78.6228 115.368 77.8352C115.368 77.0477 115.6 76.4409 116.05 75.9632C116.501 75.4855 117.054 75.2402 117.685 75.2402C118.161 75.2402 118.56 75.3693 118.869 75.6275C119.178 75.8858 119.333 76.144 119.333 76.4151C119.333 76.5442 119.294 76.6604 119.204 76.7378C119.114 76.8153 118.998 76.867 118.843 76.867C118.638 76.867 118.483 76.8024 118.367 76.6604C118.303 76.5829 118.264 76.4409 118.251 76.2343C118.226 76.0278 118.161 75.8599 118.033 75.7567C117.904 75.6534 117.737 75.6017 117.518 75.6017C117.157 75.6017 116.874 75.7308 116.668 76.0019C116.385 76.3505 116.243 76.8153 116.243 77.3834C116.243 77.9514 116.385 78.4808 116.668 78.9326C116.951 79.3845 117.338 79.604 117.827 79.604C118.174 79.604 118.483 79.4878 118.766 79.2425C118.959 79.0746 119.152 78.7777 119.333 78.3516L119.487 78.4291L119.474 78.4162Z" fill="#30378E"/>
<path d="M124.661 79.5647C124.159 79.952 123.85 80.1715 123.721 80.236C123.528 80.3264 123.322 80.3651 123.116 80.3651C122.782 80.3651 122.499 80.2489 122.28 80.0165C122.061 79.7842 121.958 79.4872 121.958 79.0999C121.958 78.8675 122.009 78.661 122.112 78.4802C122.254 78.2349 122.511 78.0154 122.872 77.796C123.232 77.5765 123.824 77.3183 124.661 77.0213V76.8277C124.661 76.3371 124.584 76.0014 124.429 75.8207C124.275 75.6399 124.056 75.5495 123.76 75.5495C123.541 75.5495 123.361 75.6141 123.232 75.7303C123.104 75.8465 123.026 75.9885 123.026 76.1434V76.4533C123.026 76.6211 123.001 76.7373 122.911 76.8277C122.833 76.918 122.717 76.9568 122.589 76.9568C122.46 76.9568 122.344 76.9051 122.267 76.8148C122.19 76.7244 122.138 76.5953 122.138 76.4404C122.138 76.1305 122.293 75.8594 122.602 75.6012C122.911 75.343 123.348 75.2139 123.914 75.2139C124.352 75.2139 124.7 75.2913 124.983 75.4333C125.189 75.5495 125.343 75.7174 125.446 75.9498C125.511 76.1047 125.536 76.4145 125.536 76.8922V78.5448C125.536 79.0095 125.536 79.2936 125.562 79.3968C125.575 79.5001 125.614 79.5776 125.652 79.6034C125.691 79.6421 125.742 79.6551 125.794 79.6551C125.845 79.6551 125.897 79.6551 125.948 79.6163C126.025 79.5647 126.167 79.4356 126.373 79.229V79.5259C125.974 80.0553 125.601 80.3264 125.24 80.3264C125.073 80.3264 124.931 80.2618 124.828 80.1456C124.725 80.0295 124.674 79.8229 124.674 79.5259L124.661 79.5647ZM124.661 79.2161V77.357C124.12 77.5765 123.786 77.7185 123.618 77.8089C123.335 77.9638 123.142 78.1316 123.013 78.2995C122.898 78.4673 122.833 78.6609 122.833 78.8546C122.833 79.1128 122.911 79.3194 123.065 79.4872C123.219 79.6551 123.387 79.7454 123.593 79.7454C123.863 79.7454 124.211 79.5647 124.661 79.2161Z" fill="#30378E"/>
<path d="M129.912 75.2402V76.3376C130.324 75.6017 130.736 75.2402 131.161 75.2402C131.354 75.2402 131.521 75.3048 131.65 75.421C131.778 75.5372 131.843 75.6792 131.843 75.8341C131.843 75.9761 131.791 76.0923 131.701 76.1827C131.611 76.2731 131.495 76.3247 131.367 76.3247C131.238 76.3247 131.109 76.2602 130.955 76.144C130.8 76.0149 130.684 75.9632 130.607 75.9632C130.543 75.9632 130.478 76.0019 130.401 76.0665C130.247 76.2085 130.079 76.4538 129.912 76.7895V79.1263C129.912 79.3974 129.951 79.604 130.015 79.746C130.067 79.8363 130.144 79.9267 130.26 79.9913C130.375 80.0558 130.543 80.0816 130.762 80.0816V80.2753H128.265V80.0816C128.509 80.0816 128.702 80.0429 128.818 79.9654C128.908 79.9138 128.972 79.8234 128.998 79.6943C129.011 79.6298 129.024 79.4619 129.024 79.1779V77.2801C129.024 76.712 129.024 76.3764 128.985 76.2602C128.96 76.1569 128.921 76.0665 128.857 76.0278C128.792 75.9761 128.715 75.9503 128.625 75.9503C128.509 75.9503 128.393 75.9761 128.252 76.0278L128.2 75.8341L129.668 75.2402H129.886H129.912Z" fill="#30378E"/>
<path d="M134.675 77.2148C134.675 77.9377 134.843 78.5058 135.203 78.9189C135.564 79.3321 135.975 79.5386 136.452 79.5386C136.774 79.5386 137.044 79.4483 137.288 79.2804C137.52 79.0997 137.726 78.8027 137.88 78.3767L138.048 78.48C137.971 78.9706 137.752 79.4095 137.404 79.8098C137.044 80.21 136.593 80.4036 136.053 80.4036C135.473 80.4036 134.971 80.1713 134.547 79.7194C134.135 79.2675 133.916 78.6478 133.916 77.8732C133.916 77.034 134.135 76.3885 134.56 75.9237C134.984 75.4589 135.525 75.2266 136.169 75.2266C136.709 75.2266 137.16 75.4073 137.52 75.7688C137.868 76.1303 138.048 76.608 138.048 77.2148H134.675ZM134.675 76.9049H136.928C136.915 76.5951 136.876 76.3756 136.812 76.2465C136.722 76.0528 136.593 75.885 136.413 75.7817C136.233 75.6655 136.053 75.6139 135.86 75.6139C135.564 75.6139 135.306 75.7301 135.074 75.9625C134.843 76.1948 134.701 76.5047 134.663 76.9178L134.675 76.9049Z" fill="#30378E"/>
<path d="M141.445 79.2287C141.613 79.2287 141.754 79.2933 141.87 79.3966C141.986 79.5128 142.037 79.6548 142.037 79.8097C142.037 79.9646 141.986 80.1066 141.87 80.2228C141.754 80.339 141.613 80.3907 141.458 80.3907C141.304 80.3907 141.162 80.339 141.046 80.2228C140.93 80.1066 140.879 79.9646 140.879 79.8097C140.879 79.6548 140.93 79.4998 141.046 79.3837C141.162 79.2675 141.304 79.2158 141.458 79.2158L141.445 79.2287Z" fill="#30378E"/>
<path d="M153.403 77.8475H150.61L150.121 78.9836C150.005 79.2676 149.94 79.4742 149.94 79.6162C149.94 79.7324 149.992 79.8228 150.095 79.9131C150.198 79.9906 150.43 80.0551 150.777 80.081V80.2746H148.512V80.081C148.808 80.0293 149.014 79.9519 149.091 79.8744C149.271 79.7066 149.477 79.358 149.696 78.8287L152.232 72.877H152.412L154.922 78.8932C155.128 79.3709 155.308 79.6937 155.475 79.8357C155.643 79.9777 155.874 80.0551 156.157 80.081V80.2746H153.313V80.081C153.596 80.0681 153.789 80.0164 153.892 79.939C153.995 79.8615 154.046 79.7582 154.046 79.642C154.046 79.4871 153.969 79.2418 153.828 78.9061L153.39 77.8604L153.403 77.8475ZM153.248 77.4472L152.026 74.5295L150.777 77.4472H153.261H153.248Z" fill="#30378E"/>
<path d="M159.787 76.2731C160.354 75.5888 160.907 75.2402 161.422 75.2402C161.692 75.2402 161.911 75.3048 162.104 75.4339C162.297 75.563 162.452 75.7825 162.568 76.0923C162.645 76.3118 162.683 76.6346 162.683 77.0735V79.165C162.683 79.4749 162.709 79.6814 162.761 79.7976C162.799 79.888 162.864 79.9525 162.954 80.0042C163.044 80.0558 163.198 80.0816 163.43 80.0816V80.2753H161.023V80.0816H161.126C161.358 80.0816 161.512 80.0429 161.602 79.9784C161.692 79.9138 161.757 79.8105 161.795 79.6685C161.808 79.6169 161.821 79.449 161.821 79.165V77.1639C161.821 76.7249 161.77 76.4022 161.654 76.1956C161.538 75.989 161.345 75.8987 161.075 75.8987C160.65 75.8987 160.238 76.1311 159.813 76.5958V79.1779C159.813 79.5136 159.826 79.7072 159.877 79.7976C159.929 79.9009 159.993 79.9784 160.083 80.03C160.174 80.0816 160.341 80.1075 160.611 80.1075V80.3011H158.204V80.1075H158.307C158.552 80.1075 158.719 80.0429 158.809 79.9138C158.899 79.7847 158.938 79.5523 158.938 79.1908V77.3834C158.938 76.8024 158.925 76.4409 158.899 76.3118C158.874 76.1827 158.835 76.0923 158.783 76.0536C158.732 76.002 158.655 75.989 158.565 75.989C158.462 75.989 158.346 76.0149 158.204 76.0665L158.127 75.8728L159.594 75.279H159.826V76.3118L159.787 76.2731Z" fill="#30378E"/>
<path d="M168.991 79.7193C168.759 79.9646 168.515 80.1454 168.296 80.2616C168.064 80.3649 167.82 80.4294 167.562 80.4294C167.035 80.4294 166.571 80.2099 166.172 79.7581C165.773 79.3062 165.58 78.7382 165.58 78.041C165.58 77.3438 165.799 76.6983 166.237 76.1173C166.674 75.5364 167.24 75.2394 167.936 75.2394C168.36 75.2394 168.721 75.3814 169.004 75.6526V74.7488C169.004 74.1937 168.991 73.8451 168.965 73.716C168.94 73.5869 168.901 73.4965 168.837 73.4578C168.772 73.4191 168.708 73.3932 168.618 73.3932C168.528 73.3932 168.399 73.4191 168.257 73.4836L168.193 73.3029L169.647 72.709H169.892V78.3508C169.892 78.9189 169.905 79.2675 169.931 79.3966C169.956 79.5257 169.995 79.6161 170.059 79.6548C170.124 79.7064 170.188 79.7323 170.265 79.7323C170.355 79.7323 170.484 79.7064 170.651 79.6419L170.716 79.8226L169.274 80.4294H169.03V79.7323L168.991 79.7193ZM168.991 79.3449V76.8274C168.965 76.5821 168.901 76.3626 168.798 76.169C168.695 75.9753 168.553 75.8204 168.373 75.7171C168.193 75.6138 168.026 75.5622 167.858 75.5622C167.549 75.5622 167.266 75.7042 167.022 75.9882C166.7 76.3626 166.533 76.892 166.533 77.6149C166.533 78.3379 166.687 78.8802 166.996 79.2675C167.305 79.6548 167.652 79.8355 168.039 79.8355C168.36 79.8355 168.669 79.6677 168.978 79.3449H168.991Z" fill="#30378E"/>
<path d="M178.889 75.2399V79.1646C178.889 79.4745 178.914 79.6681 178.953 79.7714C178.992 79.8747 179.069 79.9522 179.146 80.0038C179.236 80.0554 179.391 80.0813 179.622 80.0813V80.2749H177.254V80.0813C177.486 80.0813 177.653 80.0554 177.73 80.0167C177.807 79.9651 177.872 79.8876 177.923 79.7843C177.975 79.681 178.001 79.4745 178.001 79.1646V77.2797C178.001 76.7504 177.988 76.4018 177.949 76.2469C177.923 76.1307 177.885 76.0532 177.833 76.0145C177.782 75.9757 177.704 75.9499 177.614 75.9499C177.511 75.9499 177.396 75.9758 177.254 76.0274L177.177 75.8337L178.644 75.2399H178.876H178.889ZM178.438 72.6836C178.593 72.6836 178.708 72.7352 178.824 72.8385C178.94 72.9418 178.979 73.0709 178.979 73.2258C178.979 73.3808 178.927 73.5099 178.824 73.6131C178.721 73.7164 178.593 73.7681 178.438 73.7681C178.284 73.7681 178.168 73.7164 178.052 73.6131C177.949 73.5099 177.898 73.3808 177.898 73.2258C177.898 73.0709 177.949 72.9547 178.052 72.8385C178.155 72.7223 178.284 72.6836 178.438 72.6836Z" fill="#30378E"/>
<path d="M183.381 73.7812V75.3821H184.514V75.7565H183.381V78.9196C183.381 79.2424 183.433 79.4489 183.523 79.5651C183.613 79.6813 183.729 79.733 183.87 79.733C183.986 79.733 184.102 79.6942 184.205 79.6297C184.321 79.5522 184.398 79.4489 184.462 79.3069H184.668C184.54 79.6555 184.372 79.9137 184.141 80.0945C183.909 80.2752 183.677 80.3527 183.433 80.3527C183.265 80.3527 183.111 80.301 182.956 80.2106C182.802 80.1203 182.686 79.9912 182.609 79.8233C182.532 79.6555 182.493 79.3973 182.493 79.0358V75.7565H181.721V75.5758C181.914 75.4983 182.12 75.3692 182.313 75.1756C182.519 74.9948 182.699 74.7624 182.853 74.5171C182.931 74.388 183.046 74.1298 183.188 73.7812H183.355H183.381Z" fill="#30378E"/>
<path d="M194.347 75.2402V76.9057H194.167C194.038 76.3893 193.858 76.0278 193.652 75.8341C193.446 75.6405 193.176 75.5501 192.841 75.5501C192.597 75.5501 192.391 75.6146 192.236 75.7437C192.082 75.8728 192.005 76.0149 192.005 76.1827C192.005 76.3764 192.056 76.5571 192.172 76.6991C192.288 76.8411 192.507 76.9961 192.841 77.1639L193.614 77.5383C194.334 77.8869 194.695 78.3516 194.695 78.9326C194.695 79.3716 194.528 79.7331 194.193 80.0042C193.858 80.2753 193.485 80.4173 193.073 80.4173C192.777 80.4173 192.429 80.3657 192.056 80.2624C191.94 80.2237 191.837 80.2107 191.773 80.2107C191.696 80.2107 191.631 80.2624 191.58 80.3528H191.4V78.6099H191.58C191.683 79.1134 191.863 79.4878 192.146 79.7331C192.429 79.9913 192.738 80.1075 193.086 80.1075C193.331 80.1075 193.536 80.03 193.678 79.888C193.832 79.746 193.91 79.5652 193.91 79.3716C193.91 79.1263 193.82 78.9197 193.652 78.7519C193.485 78.584 193.137 78.3775 192.623 78.1193C192.108 77.861 191.773 77.6287 191.619 77.4221C191.464 77.2155 191.374 76.9573 191.374 76.6604C191.374 76.2602 191.516 75.9245 191.786 75.6534C192.056 75.3822 192.417 75.2531 192.854 75.2531C193.047 75.2531 193.279 75.2919 193.549 75.3822C193.73 75.4339 193.845 75.4597 193.91 75.4597C193.961 75.4597 194.013 75.4597 194.038 75.421C194.064 75.3952 194.103 75.3435 194.154 75.2531H194.334L194.347 75.2402Z" fill="#30378E"/>
<path d="M198.621 72.6836V76.2598C199.02 75.8208 199.329 75.5497 199.561 75.4206C199.792 75.2915 200.024 75.2399 200.256 75.2399C200.526 75.2399 200.77 75.3173 200.964 75.4722C201.157 75.6272 201.311 75.8596 201.401 76.1952C201.466 76.4276 201.504 76.8407 201.504 77.4475V79.1775C201.504 79.4874 201.53 79.694 201.581 79.8101C201.62 79.9005 201.671 79.9651 201.762 80.0167C201.852 80.0684 202.006 80.0942 202.225 80.0942V80.2878H199.831V80.0942H199.947C200.178 80.0942 200.333 80.0554 200.423 79.9909C200.513 79.9263 200.577 79.8231 200.603 79.681C200.603 79.6294 200.616 79.4616 200.616 79.1775V77.4475C200.616 76.9182 200.59 76.5696 200.539 76.4018C200.487 76.234 200.397 76.1049 200.281 76.0274C200.166 75.9499 200.011 75.8983 199.844 75.8983C199.676 75.8983 199.483 75.9499 199.303 76.0403C199.11 76.1307 198.891 76.3243 198.634 76.5955V79.1775C198.634 79.5132 198.647 79.7198 198.685 79.7972C198.724 79.8747 198.788 79.9522 198.891 80.0038C198.994 80.0554 199.162 80.0813 199.419 80.0813V80.2749H196.999V80.0813C197.218 80.0813 197.385 80.0425 197.514 79.978C197.591 79.9393 197.643 79.8747 197.681 79.7714C197.72 79.6681 197.746 79.4745 197.746 79.1646V74.7493C197.746 74.1941 197.733 73.8455 197.707 73.7164C197.681 73.5873 197.643 73.4969 197.578 73.4582C197.514 73.4195 197.45 73.3937 197.36 73.3937C197.282 73.3937 197.166 73.4195 196.999 73.484L196.922 73.3033L198.376 72.7094H198.621V72.6836Z" fill="#30378E"/>
<path d="M206.756 75.2395C207.49 75.2395 208.082 75.5235 208.532 76.0787C208.905 76.5563 209.099 77.1115 209.099 77.7312C209.099 78.1701 208.996 78.6091 208.79 79.061C208.584 79.5128 208.288 79.8485 207.927 80.068C207.554 80.3004 207.155 80.4036 206.704 80.4036C205.971 80.4036 205.392 80.1067 204.954 79.5257C204.593 79.0351 204.4 78.48 204.4 77.8603C204.4 77.4084 204.516 76.9695 204.735 76.5305C204.954 76.0916 205.25 75.7559 205.61 75.5493C205.971 75.3428 206.357 75.2266 206.756 75.2266V75.2395ZM206.589 75.5881C206.395 75.5881 206.215 75.6397 206.022 75.7559C205.829 75.8721 205.675 76.0657 205.559 76.3498C205.443 76.6338 205.379 76.9953 205.379 77.4342C205.379 78.1443 205.52 78.764 205.803 79.2804C206.087 79.7969 206.46 80.0551 206.923 80.0551C207.271 80.0551 207.554 79.913 207.773 79.629C207.992 79.345 208.107 78.8544 208.107 78.1572C208.107 77.2922 207.927 76.608 207.554 76.1045C207.296 75.7688 206.988 75.5881 206.589 75.5881Z" fill="#30378E"/>
<path d="M211.286 75.3818H213.333V75.5755C213.14 75.5884 213.024 75.6271 212.959 75.6788C212.895 75.7304 212.869 75.8079 212.869 75.9112C212.869 76.0274 212.895 76.1565 212.959 76.3114L214.002 79.1259L215.045 76.8407L214.774 76.1177C214.684 75.8983 214.581 75.7562 214.44 75.6788C214.362 75.6271 214.221 75.6013 214.002 75.5884V75.3947H216.319V75.5884C216.061 75.5884 215.881 75.64 215.778 75.7304C215.701 75.7821 215.675 75.8724 215.675 76.0015C215.675 76.079 215.688 76.1436 215.714 76.221L216.821 79.0226L217.851 76.3243C217.928 76.1306 217.954 75.9757 217.954 75.8595C217.954 75.795 217.915 75.7304 217.851 75.6788C217.786 75.6271 217.645 75.6013 217.439 75.5884V75.3947H218.97V75.5884C218.662 75.64 218.43 75.8466 218.288 76.221L216.666 80.4298H216.448L215.225 77.3055L213.809 80.4298H213.616L212.058 76.3243C211.955 76.0661 211.852 75.8853 211.75 75.795C211.647 75.7046 211.492 75.64 211.286 75.5884V75.3947V75.3818Z" fill="#30378E"/>
<path d="M224.312 75.2402V76.9057H224.132C224.003 76.3893 223.823 76.0278 223.617 75.8341C223.411 75.6405 223.141 75.5501 222.806 75.5501C222.562 75.5501 222.356 75.6146 222.201 75.7437C222.047 75.8728 221.97 76.0149 221.97 76.1827C221.97 76.3764 222.021 76.5571 222.137 76.6991C222.253 76.8411 222.472 76.9961 222.806 77.1639L223.579 77.5383C224.299 77.8869 224.66 78.3516 224.66 78.9326C224.66 79.3716 224.492 79.7331 224.158 80.0042C223.823 80.2753 223.45 80.4173 223.038 80.4173C222.742 80.4173 222.394 80.3657 222.021 80.2624C221.905 80.2237 221.802 80.2107 221.738 80.2107C221.661 80.2107 221.596 80.2624 221.545 80.3528H221.365V78.6099H221.545C221.648 79.1134 221.828 79.4878 222.111 79.7331C222.394 79.9913 222.703 80.1075 223.051 80.1075C223.295 80.1075 223.501 80.03 223.643 79.888C223.797 79.746 223.875 79.5652 223.875 79.3716C223.875 79.1263 223.784 78.9197 223.617 78.7519C223.45 78.584 223.102 78.3775 222.587 78.1193C222.073 77.861 221.738 77.6287 221.583 77.4221C221.429 77.2155 221.339 76.9573 221.339 76.6604C221.339 76.2602 221.48 75.9245 221.751 75.6534C222.021 75.3822 222.381 75.2531 222.819 75.2531C223.012 75.2531 223.244 75.2919 223.514 75.3822C223.694 75.4339 223.81 75.4597 223.875 75.4597C223.926 75.4597 223.978 75.4597 224.003 75.421C224.029 75.3952 224.068 75.3435 224.119 75.2531H224.299L224.312 75.2402Z" fill="#30378E"/>
<path d="M228.174 79.2287C228.341 79.2287 228.483 79.2933 228.599 79.3966C228.714 79.5128 228.766 79.6548 228.766 79.8097C228.766 79.9646 228.714 80.1066 228.599 80.2228C228.483 80.339 228.341 80.3907 228.187 80.3907C228.032 80.3907 227.878 80.339 227.775 80.2228C227.672 80.1066 227.607 79.9646 227.607 79.8097C227.607 79.6548 227.659 79.4998 227.775 79.3837C227.891 79.2675 228.032 79.2158 228.187 79.2158L228.174 79.2287Z" fill="#30378E"/>
<path d="M231.328 79.2287C231.495 79.2287 231.637 79.2933 231.753 79.3966C231.869 79.5128 231.92 79.6548 231.92 79.8097C231.92 79.9646 231.869 80.1066 231.753 80.2228C231.637 80.339 231.495 80.3907 231.341 80.3907C231.186 80.3907 231.032 80.339 230.929 80.2228C230.813 80.1066 230.762 79.9646 230.762 79.8097C230.762 79.6548 230.813 79.4998 230.929 79.3837C231.045 79.2675 231.186 79.2158 231.341 79.2158L231.328 79.2287Z" fill="#30378E"/>
<path d="M234.481 79.2287C234.649 79.2287 234.79 79.2933 234.906 79.3966C235.022 79.5128 235.073 79.6548 235.073 79.8097C235.073 79.9646 235.022 80.1066 234.906 80.2228C234.79 80.339 234.649 80.3907 234.494 80.3907C234.34 80.3907 234.185 80.339 234.082 80.2228C233.967 80.1066 233.915 79.9646 233.915 79.8097C233.915 79.6548 233.967 79.4998 234.082 79.3837C234.198 79.2675 234.34 79.2158 234.494 79.2158L234.481 79.2287Z" fill="#30378E"/>
</g>
<defs>
<clipPath id="clip0_73_13813">
<rect width="236" height="81" fill="white" transform="translate(0.733398 0.268555)"/>
</clipPath>
</defs>
</svg>
