<svg width="98" height="98" viewBox="0 0 98 98" fill="none" xmlns="http://www.w3.org/2000/svg">
<path d="M51.9906 68.1645H14.3746C13.1691 68.1632 12.0134 67.6838 11.1611 66.8314C10.3087 65.979 9.82926 64.8233 9.82794 63.6179V34.3321H79.7543V41.1276C79.7605 41.5255 79.9229 41.9049 80.2065 42.1841C80.49 42.4633 80.872 42.6198 81.2699 42.6198C81.6678 42.6198 82.0498 42.4633 82.3333 42.1841C82.6169 41.9049 82.7793 41.5254 82.7854 41.1275V23.6382C82.783 21.6292 81.9839 19.7032 80.5633 18.2826C79.1427 16.862 77.2167 16.0629 75.2076 16.0605H14.3746C12.3656 16.0629 10.4395 16.862 9.01894 18.2826C7.59836 19.7032 6.79924 21.6292 6.79688 23.6382V63.6179C6.79923 65.6269 7.59835 67.553 9.01893 68.9735C10.4395 70.3941 12.3656 71.1932 14.3746 71.1956H51.9906C52.3877 71.1883 52.7661 71.0254 53.0444 70.742C53.3226 70.4585 53.4785 70.0772 53.4785 69.6801C53.4785 69.2829 53.3226 68.9016 53.0444 68.6181C52.7661 68.3347 52.3877 68.1718 51.9906 68.1645ZM9.82794 23.6382C9.82926 22.4328 10.3087 21.2771 11.1611 20.4248C12.0134 19.5724 13.1691 19.0929 14.3746 19.0916H75.2076C76.4131 19.0929 77.5688 19.5724 78.4211 20.4248C79.2735 21.2771 79.7529 22.4328 79.7543 23.6382V25.8967H9.82794V23.6382ZM9.82794 28.9278H79.7543V31.301H9.82794V28.9278Z" fill="white"/>
<path d="M17.7697 58.3193C17.3728 58.3271 16.9949 58.4902 16.717 58.7736C16.4391 59.0569 16.2834 59.438 16.2834 59.8349C16.2835 60.2318 16.4391 60.6129 16.7171 60.8963C16.995 61.1796 17.3729 61.3427 17.7698 61.3504H28.5768C28.9736 61.3427 29.3515 61.1796 29.6294 60.8962C29.9073 60.6128 30.063 60.2317 30.063 59.8348C30.063 59.4379 29.9073 59.0569 29.6294 58.7735C29.3515 58.4901 28.9735 58.3271 28.5767 58.3193H17.7697Z" fill="white"/>
<path d="M91.0437 50.9298C90.8613 50.0629 90.7706 48.9303 89.7665 48.6395L73.2776 43.3329C72.9753 43.2367 72.6505 43.2367 72.3482 43.3329L55.8608 48.6394C54.859 48.9331 54.768 50.0577 54.582 50.9268C52.1548 63.0637 56.8879 73.9322 66.6383 78.6157L72.1572 81.2664C72.3618 81.3649 72.5859 81.416 72.8129 81.416C73.0399 81.416 73.264 81.3649 73.4685 81.2664L78.989 78.6157C88.7393 73.933 93.4709 63.0645 91.0437 50.9298ZM77.6777 75.8836L72.8129 78.2191L67.9495 75.8836C59.4105 71.8085 55.3349 62.01 57.6087 51.2621L72.8129 46.3677L88.0185 51.2613C90.2875 62.0134 86.2164 71.8085 77.6777 75.8836Z" fill="white"/>
<path d="M80.1449 57.1544L72.1158 64.3088L68.5771 60.7709C68.2911 60.4955 67.9085 60.3434 67.5115 60.3471C67.1145 60.3509 66.7349 60.5103 66.4541 60.791C66.1734 61.0718 66.0141 61.4514 66.0103 61.8484C66.0066 62.2454 66.1587 62.628 66.4341 62.914L70.9836 67.4635C71.257 67.7371 71.6247 67.8958 72.0114 67.9069C72.398 67.918 72.7743 67.7809 73.063 67.5235L82.1607 59.4174C82.4513 59.1476 82.6246 58.7746 82.6434 58.3785C82.6622 57.9824 82.525 57.5947 82.2612 57.2985C81.9974 57.0024 81.6281 56.8215 81.2325 56.7945C80.8368 56.7676 80.4464 56.8968 80.1449 57.1544Z" fill="white"/>
</svg>
