<svg width="85" height="83" viewBox="0 0 85 83" fill="none" xmlns="http://www.w3.org/2000/svg">
<g clip-path="url(#clip0_1_25018)">
<path d="M52.3049 45.756C53.389 45.4785 54.3706 44.9537 55.1802 44.2447C56.1215 43.4204 57.5232 43.4204 58.4646 44.2447C59.6962 45.3233 61.3239 45.9793 63.1089 45.9793C64.8938 45.9793 66.5216 45.3231 67.7533 44.2447C68.6947 43.4204 70.0962 43.4204 71.0377 44.2447C72.2695 45.3233 73.8971 45.9793 75.6822 45.9793C77.4333 45.9793 79.0326 45.3467 80.2558 44.3043C75.7119 55.4144 62.0013 70.0789 46.9757 70.0789C31.2792 70.0789 26.2215 64.5457 23.6926 62.5027C22.3386 61.4088 19.81 61.6326 17.7526 62.0767C15.5201 62.5585 13.9655 64.576 14.1675 66.7992L9.90527 61.9397L18.1491 53.5808L41.4316 51.3645L52.3049 45.756Z" fill="#009951"/>
<path d="M52.3048 45.7558C51.7398 45.9004 51.1474 45.9792 50.5358 45.9792C47.7968 45.9792 45.4292 44.4339 44.2932 42.1885C35.6844 50.9607 15.7169 43.6434 7.73418 53.8197C-1.55537 65.6619 4.46124 76.0751 12.5315 80.8882C13.4115 81.413 14.5535 81.2287 15.2278 80.467L18.5844 76.6755C19.3875 75.7682 19.2296 74.3948 18.2528 73.6675C16.6096 72.4441 14.4779 70.2233 14.1668 66.7991C13.2612 59.6524 19.9121 55.0481 30.0836 54.7425C38.7192 54.4832 48.4176 51.8247 52.3048 45.7558Z" fill="#009951"/>
<path d="M40.0078 61.94C42.5222 61.94 44.5606 59.9502 44.5606 57.4956C44.5606 55.0411 42.5222 53.0513 40.0078 53.0513C37.4934 53.0513 35.4551 55.0411 35.4551 57.4956C35.4551 59.9502 37.4934 61.94 40.0078 61.94Z" fill="#009951"/>
<path d="M59.9709 56.2342C59.9709 53.8831 58.0114 51.9702 55.6029 51.9702C53.1944 51.9702 51.2349 53.8831 51.2349 56.2342C51.2349 58.5854 53.1944 60.4982 55.6029 60.4982C58.0114 60.4982 59.9709 58.5854 59.9709 56.2342ZM53.6957 56.2342C53.6957 55.2077 54.5513 54.3725 55.6029 54.3725C56.6545 54.3725 57.51 55.2077 57.51 56.2342C57.51 57.2608 56.6545 58.096 55.6029 58.096C54.5513 58.096 53.6957 57.261 53.6957 56.2342Z" fill="white"/>
<path d="M68.7072 34.9393C68.7072 32.5881 66.7477 30.6753 64.3392 30.6753C61.9307 30.6753 59.9712 32.5881 59.9712 34.9393C59.9712 37.2905 61.9307 39.2033 64.3392 39.2033C66.7477 39.2033 68.7072 37.2905 68.7072 34.9393ZM62.432 34.9393C62.432 33.9127 63.2876 33.0776 64.3392 33.0776C65.3908 33.0776 66.2464 33.9127 66.2464 34.9393C66.2464 35.9659 65.3908 36.8011 64.3392 36.8011C63.2876 36.8011 62.432 35.966 62.432 34.9393Z" fill="#2B3990"/>
<path d="M39.9969 51.8501C36.8081 51.8501 34.2139 54.3826 34.2139 57.4954C34.2139 60.6084 36.8081 63.1409 39.9969 63.1409C43.1856 63.1409 45.78 60.6084 45.78 57.4954C45.78 54.3827 43.1858 51.8501 39.9969 51.8501ZM39.9969 60.7386C38.165 60.7386 36.6747 59.2836 36.6747 57.4954C36.6747 55.7072 38.165 54.2524 39.9969 54.2524C41.8287 54.2524 43.3192 55.7072 43.3192 57.4954C43.3192 59.2836 41.8287 60.7386 39.9969 60.7386Z" fill="white"/>
<path d="M69.7245 12.3816C69.7139 12.3794 69.7031 12.3771 69.6922 12.3752C69.2698 12.2969 59.2715 10.5455 52.5129 18.1992C51.909 18.8831 50.7927 18.6177 50.5877 17.7401C50.4745 17.2556 50.417 16.7569 50.417 16.2576V12.2559C50.417 11.5925 49.8663 11.0548 49.1866 11.0548C48.5069 11.0548 47.9562 11.5925 47.9562 12.2559V16.2576C47.9562 16.9364 48.0344 17.6152 48.1885 18.2745C48.8423 21.0717 52.4595 21.9386 54.3769 19.7677C60.0974 13.2897 68.857 14.6718 69.2219 14.7333C81.8239 17.4297 83.7581 32.1953 79.2133 43.5781C77.0356 45.2535 73.9267 45.1707 71.8481 43.3506C70.4433 42.1206 68.3248 42.1206 66.9207 43.3506C64.7487 45.2525 61.4503 45.2554 59.275 43.3506C57.8708 42.1209 55.7522 42.1206 54.3475 43.3506C51.7848 45.5944 47.7529 45.1455 45.7934 42.3344C47.4014 40.4432 48.4833 38.0686 49.0626 35.1771C49.4773 33.1069 48.6257 30.8438 46.691 29.5305C43.0983 27.0919 41.2766 23.6064 41.2766 19.1704V3.92741C41.2766 3.30234 41.7977 2.79386 42.438 2.79386H46.795C47.4353 2.79386 47.9562 3.30234 47.9562 3.92741V6.65061C47.9562 7.31395 48.5069 7.85174 49.1866 7.85174C49.8663 7.85174 50.417 7.31395 50.417 6.65061V3.92741C50.417 1.97773 48.7921 0.391602 46.795 0.391602H42.438C40.4406 0.391602 38.8158 1.97773 38.8158 3.92741V19.1704C38.8158 24.3654 41.0532 28.6297 45.286 31.5028C46.4057 32.263 46.8778 33.5654 46.6475 34.716C44.6541 44.668 36.4885 45.466 26.544 46.2145C19.0181 46.7808 11.2357 47.3665 6.74613 53.0898C2.70574 58.2406 1.09158 63.6927 2.07838 68.8568C3.06666 74.0292 6.63883 78.7881 11.879 81.9134C13.2767 82.7468 15.0717 82.4682 16.1479 81.2528L19.5045 77.4611C20.8004 75.9969 20.4916 73.8322 18.9882 72.7126C17.491 71.5981 15.65 69.6491 15.3817 66.6933C15.2356 65.0846 16.3643 63.6042 18.007 63.2496C20.3482 62.744 22.1307 62.8092 22.897 63.4282C23.0963 63.5891 23.3139 63.7744 23.5657 63.989C26.18 66.2162 31.046 70.3619 42.9108 71.1497C43.5864 71.1948 44.1758 70.6945 44.2218 70.0328C44.2679 69.3709 43.7557 68.798 43.0776 68.753C32.0397 68.0202 27.5797 64.2204 25.1838 62.1792C24.9298 61.9628 24.69 61.7584 24.4659 61.5773C23.0514 60.4346 20.6998 60.2079 17.4758 60.9039C14.6297 61.5182 12.6756 64.0982 12.9306 66.9054C13.2782 70.7334 15.6052 73.215 17.4959 74.6227C17.9112 74.932 17.9812 75.5082 17.6428 75.8903L14.2862 79.682C14.0002 80.005 13.5272 80.0814 13.1622 79.8635C8.51613 77.0925 5.35804 72.9203 4.4974 68.4164C3.62987 63.8763 5.04387 59.2111 8.70004 54.5502C12.5211 49.6792 19.4244 49.1597 26.7332 48.6098C33.1717 48.1251 39.577 47.6295 44.0267 44.0522C46.9338 47.7618 52.4571 48.2328 55.9905 45.1388C56.466 44.7224 57.1562 44.7224 57.6318 45.1388C60.7436 47.8636 65.4581 47.8582 68.5637 45.1388C69.0391 44.7224 69.7293 44.7224 70.2049 45.1388C72.2059 46.8909 74.9724 47.5854 77.6272 46.9463C72.4704 56.5156 61.0898 67.8687 48.641 68.8113C47.9634 68.8626 47.4568 69.4404 47.5095 70.1018C47.5595 70.7317 48.0984 71.2101 48.735 71.2101C48.7668 71.2101 48.7991 71.2089 48.8314 71.2065C64.5643 70.0153 78.1832 54.1886 81.9653 43.2218C86.3606 30.4761 83.5744 15.3282 69.7245 12.3816Z" fill="#2B3990"/>
</g>
<defs>
<clipPath id="clip0_1_25018">
<rect width="84" height="82" fill="white" transform="translate(0.839844 0.391602)"/>
</clipPath>
</defs>
</svg>
