<svg width="73" height="73" viewBox="0 0 73 73" fill="none" xmlns="http://www.w3.org/2000/svg">
<path d="M66.5194 41.2737C68.1638 41.0068 69.8339 40.8963 71.5181 40.9447C72.2201 40.9385 72.8193 40.4246 72.8398 39.7382C72.8604 39.0529 72.3011 38.4819 71.5914 38.4621C68.5996 38.3826 65.6515 38.7724 62.7947 39.583C62.7112 39.6004 62.6327 39.624 62.5543 39.6575C62.076 39.7977 61.5977 39.9355 61.1246 40.1006C57.832 39.9306 55.0381 38.1492 53.629 35.2942C52.1839 32.3621 52.5735 28.5313 54.574 25.9754C54.655 25.8724 54.7219 25.7557 54.7682 25.6266C54.9687 25.0668 55.1963 24.5181 55.4264 23.9719H55.4406C57.724 23.9719 59.9829 23.6616 62.1634 23.0868C64.5625 24.7142 67.3923 25.5881 70.3122 25.5881C70.7647 25.5881 71.2186 25.567 71.6737 25.5248C72.3808 25.4603 72.899 24.8545 72.8321 24.1717C72.764 23.4878 72.1288 22.9664 71.4307 23.0545C69.3222 23.2482 67.2381 22.8795 65.361 22.023C67.4232 21.1851 69.38 20.0952 71.1658 18.7508C71.7264 18.3288 71.8254 17.5492 71.3883 17.0092C70.9511 16.468 70.1424 16.3736 69.5832 16.7945C65.8521 19.6061 61.3136 21.2347 56.608 21.4619C58.6612 17.574 61.5052 14.1032 64.9881 11.2755C65.532 10.8348 65.6014 10.0515 65.145 9.52642C64.6885 9.00133 63.8786 8.9343 63.3334 9.37497C59.0508 12.852 55.6746 17.2364 53.4323 22.1583C53.4195 22.1819 53.4092 22.2042 53.3989 22.2291C53.062 22.9714 52.7509 23.7261 52.4681 24.492C50.5395 26.2361 47.8653 26.6904 45.8776 25.5645C43.6534 24.3071 42.5361 21.694 43.2214 19.3504C43.2265 19.333 43.2226 19.3169 43.2265 19.2995C43.2304 19.2833 43.2419 19.2709 43.2445 19.2536C43.4618 18.1872 43.6096 17.111 43.7254 16.0323C47.7586 13.701 50.7658 10.0788 52.2071 5.73785C52.4231 5.0849 52.0515 4.38479 51.3752 4.17624C50.6977 3.97018 49.9751 4.32769 49.7591 4.97815C48.6984 8.17336 46.6542 10.9155 43.9246 12.9116C43.9336 12.4125 43.9246 11.9148 43.9105 11.4157C43.9079 11.3611 43.9156 11.3077 43.9054 11.2544C43.8012 7.8655 43.2201 4.49154 42.1337 1.25165C41.9151 0.598701 41.1925 0.241195 40.515 0.452222C39.84 0.66325 39.4697 1.36213 39.6883 2.01507C40.5176 4.4903 41.0267 7.04994 41.2427 9.63069C38.3512 8.31984 36.2182 5.80364 35.5252 2.71394C35.3748 2.04486 34.6895 1.61784 33.9965 1.76308C33.3023 1.90831 32.8626 2.56871 33.0117 3.23903C33.9721 7.51669 37.14 10.913 41.3674 12.3455C41.3661 14.3974 41.1643 16.4494 40.7721 18.4728C37.6235 22.1235 34.8309 23.9793 28.7702 23.9793C23.3626 23.9793 19.0311 22.4326 15.8979 19.3814C15.8966 19.3802 15.8966 19.3802 15.8953 19.3802C15.8953 19.3802 15.894 19.3789 15.894 19.3777C15.4402 18.9383 15.0262 18.4678 14.5929 18.0122C16.0689 13.9381 16.6539 9.54628 16.2656 5.25124C16.2039 4.56851 15.5996 4.05335 14.8732 4.12287C14.166 4.18245 13.6415 4.7845 13.7045 5.46724C14.0169 8.9343 13.6389 12.4672 12.6258 15.8126C10.4915 13.2492 8.63757 10.4822 7.14103 7.50676C6.83117 6.88857 6.05976 6.63285 5.42334 6.93326C4.78436 7.23242 4.51822 7.9735 4.82935 8.59169C5.92219 10.7653 7.19888 12.8333 8.617 14.8046C6.52647 14.7463 4.44622 14.5079 2.40197 14.0784C1.70898 13.922 1.02371 14.3565 0.871998 15.0268C0.720286 15.6959 1.16128 16.3575 1.85427 16.504C4.39736 17.039 6.99574 17.3084 9.59798 17.3084C9.91812 17.3084 10.2383 17.296 10.5584 17.2873C11.0572 17.8893 11.5677 18.4802 12.0974 19.0574C12.1629 19.1431 12.2311 19.2213 12.3185 19.2896C12.8765 19.8891 13.4242 20.4974 14.0156 21.0696C14.0156 21.0696 14.0156 21.0709 14.0169 21.0709L14.1776 21.2496C17.7737 25.217 22.6992 30.6478 22.6992 35.1514C22.6992 38.9499 19.4811 40.8938 15.7552 43.1444C15.3823 43.3691 15.0069 43.5987 14.6327 43.8284C10.4465 43.7675 6.67818 42.6516 2.81211 40.3067C2.21169 39.943 1.41842 40.1192 1.04042 40.6965C0.661145 41.2787 0.842427 42.0446 1.44413 42.4095C4.69821 44.3832 7.8983 45.5725 11.2964 46.0615C7.74916 48.5467 4.37165 51.2739 1.23199 54.2159C0.722858 54.6938 0.710001 55.4796 1.20499 55.9712C1.45827 56.2219 1.79255 56.3473 2.12812 56.3473C2.45083 56.3473 2.77353 56.2306 3.02296 55.9972C4.84093 54.2929 6.74632 52.6692 8.71214 51.1163C7.72859 54.8204 7.24388 58.6239 7.27088 62.4696C7.27602 63.1523 7.85073 63.7022 8.55657 63.7022H8.56557C9.27527 63.6973 9.8474 63.1374 9.84226 62.4522C9.80755 57.683 10.6124 52.9832 12.2195 48.4772C13.3368 47.6815 14.4695 46.9094 15.6214 46.1671C18.9244 44.5608 22.8599 45.061 25.9147 47.4779C28.7586 49.7285 30.0327 53.2539 29.2948 56.5968C25.2191 58.0926 21.3993 60.1371 17.9485 62.7228C17.3867 63.1436 17.2851 63.9232 17.721 64.4644C17.973 64.7785 18.3522 64.9436 18.7354 64.9436C19.0105 64.9436 19.2882 64.8592 19.5222 64.6829C22.4883 62.4609 25.7514 60.6734 29.2138 59.3029C29.2408 59.6046 29.287 59.9037 29.3282 60.2041C26.9895 62.9227 26.3994 69.4645 26.5601 71.2558C26.6192 71.9038 27.1798 72.3916 27.8406 72.3916C27.8779 72.3916 27.9152 72.3904 27.9525 72.3866C28.6596 72.327 29.1842 71.7262 29.1225 71.0435C28.9811 69.4633 29.4439 66.0471 30.2899 63.7146C30.9623 65.2104 31.9394 66.5772 33.1647 67.7043C34.2562 68.7073 35.3594 69.3652 36.7441 69.8382C36.8868 69.8853 37.0308 69.9089 37.1735 69.9089C37.7032 69.9089 38.1982 69.5911 38.3859 69.0822C38.6224 68.4354 38.2727 67.7254 37.6029 67.4982C36.5628 67.142 35.7656 66.6665 34.9389 65.9056C33.364 64.4582 32.302 62.5167 31.9484 60.4375C31.7954 59.5437 31.7209 58.6313 31.7093 57.7239C32.9718 54.5238 35.5934 52.2074 38.9477 51.3621C42.2687 50.5192 45.8493 51.223 48.4374 53.1632C48.5583 57.6085 49.9417 61.9072 52.4835 65.6288C52.729 65.9888 53.1392 66.1849 53.557 66.1849C53.8 66.1849 54.0456 66.1179 54.2629 65.9801C54.8556 65.6027 55.0189 64.8318 54.6293 64.2596C52.6326 61.3362 51.4356 58.0144 51.0962 54.556C55.3454 56.7259 58.9029 59.9223 61.4653 63.8921C61.7083 64.2708 62.1287 64.4781 62.5582 64.4781C62.7909 64.4781 63.0249 64.4172 63.237 64.2906C63.84 63.9281 64.0238 63.1635 63.6484 62.5813C62.1004 60.1818 60.2131 58.0479 58.0569 56.2107C60.3802 55.9389 62.7266 55.9401 65.0652 56.243C65.7647 56.3311 66.4152 55.8557 66.5104 55.1779C66.6042 54.4977 66.1105 53.8733 65.406 53.7827C62.0259 53.347 58.6291 53.4785 55.2966 54.1389C53.9389 53.2328 52.4989 52.4346 50.9856 51.7506C50.9831 48.4275 51.0152 46.0106 52.4989 44.5769C53.8926 43.2276 56.68 42.5994 61.2699 42.5994C61.4203 42.5994 61.572 42.5734 61.7212 42.5212C62.1287 42.3735 62.544 42.2655 62.9567 42.1377C65.8714 43.6062 68.4968 45.6581 70.5526 48.1333C70.8071 48.4399 71.18 48.5988 71.5567 48.5988C71.8396 48.5988 72.1224 48.5095 72.3603 48.3257C72.9144 47.8962 73.0031 47.1154 72.5595 46.5817C70.8534 44.5272 68.7976 42.7323 66.5194 41.2737ZM50.6771 42.8229C48.7858 44.6501 48.4708 47.1936 48.4207 50.153C45.425 48.5281 41.7942 48.0725 38.2972 48.9576C35.8119 49.5845 33.607 50.904 31.9099 52.7126C31.4084 49.9755 29.8952 47.4171 27.5436 45.5563C25.5624 43.9885 23.2199 43.0687 20.8413 42.8341C23.3407 40.9696 25.2705 38.6818 25.2705 35.1514C25.2705 31.8519 23.3214 28.4047 20.9249 25.2517C23.2893 26.0511 25.925 26.462 28.7702 26.462C34.3642 26.462 37.7083 24.9674 40.614 22.2973C41.0717 24.5044 42.4859 26.5241 44.5778 27.7083C46.3906 28.7324 48.557 28.9199 50.5974 28.3389C49.8722 30.978 50.0857 33.879 51.3096 36.3605C52.1916 38.1468 53.4889 39.6115 55.0754 40.6729C53.143 41.1098 51.7172 41.8162 50.6771 42.8229Z" fill="#2B3990"/>
</svg>
