<svg width="132" height="125" viewBox="0 0 132 125" fill="none" xmlns="http://www.w3.org/2000/svg">
<path d="M99.4482 88.5908C95.2158 88.5908 91.7725 91.8502 91.7725 95.8564C91.7725 99.8627 95.2158 103.122 99.4482 103.122C103.681 103.122 107.124 99.8627 107.124 95.8564C107.124 91.8502 103.681 88.5908 99.4482 88.5908ZM99.4482 98.2783C98.0374 98.2783 96.8896 97.1919 96.8896 95.8564C96.8896 94.521 98.0374 93.4346 99.4482 93.4346C100.859 93.4346 102.007 94.521 102.007 95.8564C102.007 97.1919 100.859 98.2783 99.4482 98.2783Z" fill="#2B3990"/>
<path d="M105.594 76.0688C104.664 76.0688 103.739 76.1158 102.822 76.2096C104.691 72.5566 106.027 68.7017 106.815 64.6858H108.92C113.858 64.6858 117.875 60.8832 117.875 56.2092C117.875 51.5353 113.858 47.7327 108.92 47.7327H106.813C105.576 41.4687 102.958 35.4862 99.1476 30.2208L100.639 28.8089C104.131 25.504 104.131 20.1262 100.639 16.8213C98.9529 15.225 96.7041 14.3459 94.307 14.3459C91.9099 14.3459 89.6611 15.225 87.9747 16.8213L86.4828 18.2333C80.9189 14.6266 74.5976 12.1473 67.9829 10.9776V8.98291C67.9829 4.30893 63.9657 0.506348 59.0278 0.506348C54.09 0.506348 50.0728 4.30893 50.0728 8.98291V10.9776C43.4552 12.1481 37.135 14.6266 31.5723 18.2333L30.0807 16.8213C28.3943 15.225 26.1456 14.3459 23.7484 14.3459C21.3515 14.3459 19.1028 15.225 17.4161 16.8213C13.9247 20.1262 13.9247 25.504 17.4161 28.8091L18.9081 30.2211C15.0978 35.4877 12.4788 41.4709 11.2428 47.7327H9.13525C4.19742 47.7327 0.180176 51.5353 0.180176 56.2092C0.180176 60.8832 4.19742 64.6858 9.13525 64.6858H11.2425C12.4791 70.9495 15.0975 76.9322 18.9075 82.1976L17.4159 83.6096C13.9244 86.9145 13.9244 92.2923 17.4159 95.5974C20.9076 98.9025 26.589 98.9023 30.0804 95.5974L31.5721 94.1852C37.1362 97.7919 43.4575 100.271 50.0725 101.441V103.436C50.0725 108.11 54.0897 111.912 59.0276 111.912C63.9654 111.912 67.9827 108.11 67.9827 103.436V101.443C72.2263 100.698 76.2983 99.4332 80.1567 97.6642C80.0579 98.5317 80.0083 99.407 80.0083 100.288C80.0083 113.642 91.4859 124.506 105.594 124.506C119.703 124.506 131.18 113.642 131.18 100.288C131.18 86.9331 119.702 76.0688 105.594 76.0688ZM105.594 119.663C94.3078 119.663 85.1255 110.971 85.1255 100.288C85.1255 98.0273 85.5331 95.8129 86.337 93.7064C86.7098 92.7294 86.383 91.6364 85.5246 90.9893C85.0602 90.6391 84.4961 90.4618 83.9304 90.4618C83.4504 90.4618 82.9686 90.5894 82.5452 90.8476C77.2197 94.0941 71.3408 96.1585 65.0717 96.9834C63.807 97.1498 62.8655 98.1735 62.8655 99.3823V103.436C62.8655 105.439 61.1438 107.068 59.0276 107.068C56.9114 107.068 55.1897 105.439 55.1897 103.436V99.3823C55.1897 98.1735 54.2481 97.1498 52.9832 96.9834C45.6953 96.0246 38.7305 93.2932 32.8419 89.0845C31.8233 88.3562 30.3936 88.4504 29.4909 89.3046L26.4618 92.1719C24.9653 93.5884 22.5305 93.5884 21.0342 92.1719C19.5377 90.7556 19.5377 88.4507 21.0342 87.0344L24.0634 84.1671C24.966 83.3127 25.0653 81.9591 24.2957 80.9949C19.8504 75.4237 16.9651 68.8311 15.9513 61.9302C15.7753 60.7331 14.6941 59.8418 13.4171 59.8418H9.13525C7.01904 59.8418 5.29736 58.2121 5.29736 56.209C5.29736 54.2059 7.01904 52.5762 9.13525 52.5762H13.4176C14.6946 52.5762 15.7761 51.6849 15.9519 50.4875C16.9648 43.5888 19.8504 36.9963 24.2965 31.4228C25.0656 30.4586 24.9663 29.1053 24.0639 28.2509L21.0348 25.3836C19.5382 23.9671 19.5382 21.6624 21.0348 20.2461C22.531 18.8298 24.9658 18.8295 26.4623 20.2461L29.4914 23.1133C30.3941 23.9678 31.8241 24.062 32.8427 23.3332C38.7285 19.1252 45.6932 16.3941 52.9837 15.4348C54.2484 15.2684 55.1899 14.2447 55.1899 13.0359V8.98291C55.1899 6.97978 56.9116 5.3501 59.0278 5.3501C61.144 5.3501 62.8657 6.97978 62.8657 8.98291V13.0362C62.8657 14.2449 63.8073 15.2686 65.0723 15.435C72.3599 16.3936 79.3246 19.125 85.2132 23.3337C86.2318 24.062 87.6618 23.9678 88.5642 23.1136L91.5934 20.2466C93.0899 18.8303 95.5246 18.83 97.0209 20.2466C98.5174 21.6629 98.5174 23.9675 97.0209 25.3841L93.992 28.2511C93.0894 29.1055 92.9901 30.4591 93.7597 31.4233C98.2053 36.9946 101.091 43.5871 102.104 50.488C102.28 51.6852 103.361 52.5764 104.638 52.5764H108.92C111.037 52.5764 112.758 54.2061 112.758 56.2092C112.758 58.2124 111.037 59.842 108.92 59.842H104.638C103.361 59.842 102.28 60.7333 102.104 61.9307C101.233 67.8628 99.0519 73.4278 95.6211 78.4706C95.027 79.3437 95.0874 80.4784 95.771 81.2909C96.4547 82.1034 97.6099 82.4127 98.6415 82.0598C100.867 81.2986 103.207 80.9128 105.595 80.9128C116.881 80.9128 126.064 89.6045 126.064 100.288C126.063 110.971 116.881 119.663 105.594 119.663Z" fill="#2B3990"/>
<path d="M59.0278 23.5142C54.1601 23.5142 49.4497 24.456 45.028 26.3138C43.7364 26.8566 43.1541 28.2874 43.7274 29.51C44.3006 30.7328 45.8127 31.2833 47.104 30.741C50.8677 29.1595 54.8796 28.3579 59.0278 28.3579C75.2521 28.3579 88.4517 40.8519 88.4517 56.2095C88.4517 71.5671 75.2524 84.061 59.0278 84.061C42.8033 84.061 29.604 71.5671 29.604 56.2095C29.604 52.2824 30.4512 48.4849 32.1217 44.923C32.695 43.7005 32.113 42.2694 30.8214 41.7269C29.5303 41.1844 28.0179 41.7351 27.4448 42.9577C25.4821 47.1422 24.4868 51.6006 24.4868 56.2092C24.4868 74.2374 39.9819 88.9045 59.0278 88.9045C78.0737 88.9045 93.5688 74.2374 93.5688 56.2092C93.5688 38.181 78.0735 23.5142 59.0278 23.5142Z" fill="#2B3990"/>
<path d="M37.0513 62.4326C37.0513 69.1097 42.7902 74.542 49.8442 74.542C56.8983 74.542 62.6372 69.1097 62.6372 62.4326C62.6372 55.7555 56.8983 50.3232 49.8442 50.3232C42.7902 50.3232 37.0513 55.7555 37.0513 62.4326ZM57.52 62.4326C57.52 66.4389 54.0767 69.6982 49.8442 69.6982C45.6118 69.6982 42.1685 66.4389 42.1685 62.4326C42.1685 58.4264 45.6118 55.167 49.8442 55.167C54.0767 55.167 57.52 58.4264 57.52 62.4326Z" fill="#009951"/>
<path d="M70.8901 38.585C66.3051 38.585 62.5747 42.1158 62.5747 46.4561C62.5747 50.7963 66.3051 54.3271 70.8901 54.3271C75.4751 54.3271 79.2056 50.7961 79.2056 46.4561C79.2056 42.1161 75.4751 38.585 70.8901 38.585ZM70.8901 49.4832C69.1265 49.4832 67.6919 48.1252 67.6919 46.4558C67.6919 44.7867 69.1265 43.4285 70.8901 43.4285C72.6535 43.4285 74.0884 44.7864 74.0884 46.4558C74.0881 48.1252 72.6535 49.4832 70.8901 49.4832Z" fill="#009951"/>
<path d="M79.3526 61.7246C80.7657 61.7246 81.9112 60.6403 81.9112 59.3027C81.9112 57.9651 80.7657 56.8809 79.3526 56.8809H79.3508C77.9377 56.8809 76.793 57.9651 76.793 59.3027C76.793 60.6403 77.9395 61.7246 79.3526 61.7246Z" fill="#2B3990"/>
<path d="M59.3675 39.2793C59.3675 37.9417 58.222 36.8574 56.8089 36.8574H56.8071C55.394 36.8574 54.2495 37.9417 54.2495 39.2793C54.2495 40.6169 55.3958 41.7012 56.8089 41.7012C58.222 41.7012 59.3675 40.6169 59.3675 39.2793Z" fill="#2B3990"/>
<path d="M72.635 66.0938C71.2219 66.0938 70.0771 67.178 70.0771 68.5156C70.0771 69.8532 71.2237 70.9375 72.6368 70.9375C74.0499 70.9375 75.1954 69.8532 75.1954 68.5156C75.1954 67.178 74.0499 66.0938 72.6368 66.0938H72.635Z" fill="#2B3990"/>
<path d="M34.6919 36.5951C35.1821 37.017 35.798 37.225 36.4123 37.225C37.108 37.225 37.8013 36.9579 38.3061 36.4323C39.2567 35.4428 39.1796 33.9109 38.134 33.0112L38.1327 33.01C37.0872 32.1103 35.4697 32.1837 34.5192 33.1735C33.5687 34.163 33.6462 35.6954 34.6919 36.5951Z" fill="#2B3990"/>
<path d="M116.529 104.158H116.527C115.114 104.158 113.969 105.242 113.969 106.58C113.969 107.918 115.116 109.002 116.529 109.002C117.942 109.002 119.087 107.918 119.087 106.58C119.087 105.242 117.942 104.158 116.529 104.158Z" fill="#2B3990"/>
<path d="M118.158 96.0132C118.158 94.6756 117.013 93.5913 115.6 93.5913H115.598C114.185 93.5913 113.041 94.6756 113.041 96.0132C113.041 97.3508 114.187 98.4351 115.6 98.4351C117.013 98.4351 118.158 97.3508 118.158 96.0132Z" fill="#2B3990"/>
<path d="M104.223 107.399H104.221C102.808 107.399 101.664 108.484 101.664 109.821C101.664 111.159 102.81 112.243 104.223 112.243C105.636 112.243 106.782 111.159 106.782 109.821C106.782 108.484 105.636 107.399 104.223 107.399Z" fill="#2B3990"/>
</svg>
