<svg width="154" height="154" viewBox="0 0 154 154" fill="none" xmlns="http://www.w3.org/2000/svg">
<path d="M148.33 137.191C144.896 132.952 140.066 129.994 134.73 128.862L125.929 127.146L125.073 131.54L133.818 133.245C142.719 135.143 149.178 143.121 149.178 152.222V153.997H153.655V152.222C153.655 146.767 151.764 141.429 148.33 137.191Z" fill="#2B3990"/>
<path d="M103.477 107.064C109.145 102.261 113.05 96.4844 114.922 90.2807H115.366C121.538 90.2807 126.559 85.2603 126.559 79.0892C126.559 75.3327 124.709 71.9189 121.7 69.8627C124.032 64.8196 125.118 59.6468 125.118 53.8946C125.118 39.9083 118.471 28.5344 105.361 20.0761C104.542 16.0525 102.711 12.2937 100.029 9.1502L96.6227 12.0558C98.9944 14.8349 100.551 18.2025 101.123 21.7936L101.147 21.9416C101.297 22.9303 101.375 23.9403 101.375 24.9478C101.375 27.3878 100.938 29.7694 100.077 32.0265C99.032 34.7674 97.3509 37.2898 95.2168 39.326L94.9897 39.5361C91.3062 42.9431 86.5153 44.8194 81.5003 44.8194H70.6619C64.5097 44.8194 58.6664 47.1526 54.2086 51.3893L57.2931 54.6339C60.9151 51.1917 65.663 49.296 70.6619 49.296H81.5003C87.3358 49.296 92.9233 47.223 97.3366 43.4397C105.337 43.8704 111.713 50.5139 111.713 58.6184V81.765C111.713 92.5993 104.739 100.126 100.583 103.648C94.6992 108.634 87.0239 111.984 81.4832 111.984C75.314 111.984 65.0869 107.588 58.156 99.4386L57.5151 97.916L68.0051 93.7593L66.3558 89.5976L55.7789 93.7886L53.9916 89.5406L52.6822 90.0915C51.7348 87.3888 51.2542 84.5972 51.2542 81.765V68.7005C51.2542 64.7417 52.4383 60.9345 54.6787 57.6905L50.9943 55.1469C48.2351 59.1421 46.7771 63.8288 46.7771 68.7005V70.7678C43.7263 65.3977 42.3256 60.0034 42.3256 53.8946C42.3256 41.0635 48.3859 31.0622 60.8524 23.3189L61.016 23.2174C63.5829 21.6405 66.3277 20.3617 69.1791 19.4186C73.1351 18.1106 77.275 17.4474 81.4832 17.4474V12.9708C76.7965 12.9708 72.1838 13.7104 67.7735 15.1685C66.259 15.6693 64.7732 16.2578 63.3211 16.9231C64.5091 14.2377 66.288 11.8212 68.5505 9.87511C72.1483 6.78029 76.7473 5.0762 81.5003 5.0762C85.9351 5.0762 90.1295 6.50454 93.6301 9.20661L96.366 5.66323C92.0744 2.35055 86.9341 0.599609 81.5003 0.599609C75.6764 0.599609 70.0405 2.68839 65.6311 6.48126C61.5318 10.0073 58.7222 14.7943 57.6459 20.0501C44.5077 28.5052 37.8484 39.8871 37.8484 53.8946C37.8484 59.5975 38.9167 64.7313 41.2084 69.7337C40.0356 70.5031 39.0128 71.4892 38.1914 72.6567C36.8607 74.5467 36.1575 76.7712 36.1575 79.0895C36.1575 85.2607 41.1785 90.281 47.3505 90.281H48.0346C48.191 90.8006 48.3626 91.3175 48.5479 91.8314L45.8539 92.9646C44.1078 90.7725 41.049 89.9068 38.3269 91.0516L15.4888 100.888L13.7818 96.8311L9.65504 98.5669L13.1851 106.957L6.4652 109.784L4.4251 104.936L0.29834 106.671L9.65921 128.919L13.786 127.183L11.6736 122.163L18.3936 119.336L21.7646 127.348L25.8914 125.612L24.1694 121.52L47.0251 111.676C49.5932 110.596 51.091 108.029 50.9423 105.394L55.6819 103.4C57.9327 105.865 60.4346 107.991 63.0277 109.77V122.027L27.9864 128.855L27.9497 128.863C22.6132 129.995 17.7832 132.953 14.3495 137.192C10.9158 141.43 9.02465 146.768 9.02465 152.223V153.998H13.5018V152.222C13.5018 143.121 19.9603 135.143 28.8612 133.245L67.5046 125.714V112.464C72.5581 115.106 77.5988 116.461 81.4829 116.461C85.6688 116.461 90.6567 114.987 95.4613 112.463V125.77L120.576 130.665L121.433 126.271L99.9384 122.082V109.761C101.159 108.924 102.345 108.023 103.477 107.064ZM122.082 79.0892C122.082 82.609 119.359 85.503 115.909 85.7802C116.093 84.4531 116.19 83.1134 116.19 81.7656V78.8036C117.462 77.1455 118.59 75.502 119.577 73.8576C121.139 75.1089 122.082 77.0118 122.082 79.0892ZM101.04 39.4738C102.376 37.6777 103.468 35.7015 104.261 33.6219C105.211 31.1306 105.735 28.5168 105.832 25.8416C115.785 33.2059 120.641 42.4193 120.641 53.8946C120.641 60.0034 119.24 65.3977 116.19 70.7678V58.6187C116.189 49.3279 109.714 41.5258 101.04 39.4738ZM40.6347 79.0892C40.6347 77.6982 41.0558 76.3651 41.8528 75.2331C42.262 74.652 42.7548 74.1474 43.3115 73.7275C44.3173 75.4154 45.4718 77.1016 46.7771 78.8033V81.7653C46.7771 83.119 46.8711 84.4638 47.0553 85.7963C43.4884 85.6415 40.6347 82.6929 40.6347 79.0892ZM9.9371 118.036L8.29905 114.143L8.20115 113.91L14.7698 111.147L16.506 115.273L9.9371 118.036ZM24.3524 101.944L29.5609 114.323L21.7646 116.461L16.5562 104.082L24.3524 101.944ZM46.3329 106.493C46.1374 106.973 45.7664 107.348 45.2713 107.556L33.673 112.552L28.4645 100.173L40.0807 95.1703C40.5583 94.9695 41.0854 94.9665 41.5653 95.1623C42.0453 95.3577 42.4202 95.7287 42.6214 96.2062L46.3252 105.009C46.5258 105.486 46.5287 106.014 46.3329 106.493ZM49.5473 101.124L47.811 96.9974L51.6005 95.4034L53.3367 99.5296L49.5473 101.124Z" fill="#2B3990"/>
<path d="M52.8145 137.852L53.3069 133.402L73.6354 135.651L73.1429 140.101L52.8145 137.852Z" fill="#2B3990"/>
<path d="M89.2734 135.775L109.602 133.526L110.094 137.976L89.7659 140.225L89.2734 135.775Z" fill="#2B3990"/>
<path d="M61.9385 70.8818H72.4225V75.3584H61.9385V70.8818Z" fill="#009951"/>
<path d="M90.2988 70.8818H100.783V75.3584H90.2988V70.8818Z" fill="#009951"/>
</svg>
